<svg width="202" height="124" viewBox="0 0 202 124" fill="none" xmlns="http://www.w3.org/2000/svg">
<rect x="25" width="152" height="108" fill="#364161"/>
<rect x="29" y="6" width="144" height="88" fill="#F5F5F6"/>
<rect x="80.8008" y="97.6328" width="40.4" height="6.73333" fill="#F5F5F6"/>
<rect y="108" width="202" height="16" fill="#364161"/>
<circle cx="101" cy="55" r="19.5" stroke="#C22347"/>
<rect x="96.8398" y="49.0781" width="8.32001" height="9.51975" fill="#F0F2F4"/>
<path d="M86.8814 45.0346C86.8358 44.9912 86.7991 44.9393 86.7734 44.8818L86.8078 44.8594L86.8814 45.0346Z" fill="#C22347"/>
<path d="M89.2365 57.6484L89.1973 57.666V57.6596L89.2365 57.6484Z" fill="#C22347"/>
<path d="M103.235 45.5781L103.247 45.5893C103.196 45.6304 103.136 45.658 103.072 45.6693L103.235 45.5781Z" fill="#C22347"/>
<path d="M103.591 45.394C103.543 45.4068 103.493 45.4127 103.443 45.4116L103.585 45.3828L103.591 45.394Z" fill="#C22347"/>
<path d="M98.8775 57.4263L98.8151 57.731L98.7191 58.363L98.6687 59.1422V59.9718L98.6119 60.7174L98.4991 61.4117V61.4173L98.3391 62.0573L98.1863 62.4861L98.1015 62.5661L98.0959 62.6957L97.9263 63.0349L97.6503 63.5037L97.3223 63.9101L96.9447 64.2765L96.7151 64.4445H96.6703L96.5407 64.5741L96.2751 64.7213H96.1679L96.0775 64.8173L95.8239 64.9244L95.3607 65.054L94.9991 65.1164C91.6232 65.4666 88.284 66.109 85.0191 67.0364C82.4154 63.5764 81.0051 59.3648 81 55.0346C80.995 50.7044 82.3955 46.4895 84.9911 43.0234L85.1887 43.1194L85.5607 43.3594L85.5663 43.365L85.5783 43.3762L85.5895 43.3818L85.8999 43.645L86.2383 44.0122L86.5095 44.3898L86.7495 44.8306L86.7551 44.8362L86.9415 45.305C86.9299 45.2591 86.9227 45.2122 86.9199 45.165L87.0799 45.837C87.0722 45.7998 87.0682 45.7621 87.0679 45.7242L87.0967 45.893C87.0911 45.8874 87.0911 45.8762 87.0855 45.8706L87.1815 46.4857L87.2207 47.0841L87.2039 47.7393C87.1983 47.7729 87.1983 47.8009 87.1927 47.8193L87.1191 48.5305L86.9783 49.2753L86.9663 49.3713V49.3433L86.8823 50.0632L86.8535 50.752L86.8647 51.4344L86.9103 52.2344L87.0007 53.1208L87.1247 54.0127L87.3199 55.0327L87.5287 55.9583L87.7999 57.0255L88.4207 59.0126L88.8159 60.0854L89.6399 62.0605L90.1031 62.4165L91.1583 62.5685H91.1639L91.2439 62.5741L92.5535 62.7381L95.0375 62.9693L95.5735 62.7293L96.7983 60.9854L97.3911 60.0646L97.9727 59.111L98.4863 58.1798L98.8775 57.4263Z" fill="#C22347"/>
<path d="M113.346 65.7611L113.459 65.6875L113.217 65.9075L113.346 65.7611Z" fill="#C22347"/>
<path d="M116.152 68.0566C114.274 70.2377 111.947 71.9876 109.331 73.1869C106.715 74.3862 103.87 75.0065 100.992 75.0054C98.1141 75.0044 95.2701 74.382 92.6547 73.1808C90.0393 71.9795 87.7141 70.2279 85.8379 68.0454C88.866 67.2155 91.9572 66.636 95.0803 66.3126L95.4803 66.2615L95.5707 66.2447L96.0051 66.1263L96.5419 65.9231H96.6883L96.8003 65.8055L97.0939 65.6455L97.1955 65.6399L97.3371 65.4871L97.7091 65.2047C97.7561 65.1693 97.7997 65.1296 97.8395 65.0863L98.1043 64.8215L98.5219 64.3247C98.5701 64.2768 98.612 64.2231 98.6467 64.1647L98.9283 63.7247L99.1939 63.1767L99.2955 63.0695V62.9399L99.4707 62.4544L99.6627 61.7152L99.7923 60.936C99.8026 60.8833 99.8082 60.8297 99.8091 60.776L99.8659 60.0424V59.1832L99.9107 58.5169L99.9843 58.0033L100.304 56.5865L100.496 55.9313L100.57 55.8513V55.6993L100.801 55.0106L100.886 54.9258V54.785L101.134 54.141L101.96 52.313L102.395 51.461L102.508 51.3483V51.2347L102.892 50.5523L103.01 50.4275L103.016 50.3315L103.496 49.5315L104.088 48.5995L104.432 48.0859L106.566 48.2059L108.638 48.3979L109.349 49.9283L109.767 50.9723L110.112 51.8858L110.117 52.0322L110.19 52.1058L110.439 52.8514V53.0114L110.507 53.085L110.732 53.8466L110.744 54.0274L110.806 54.0842L111.189 55.6841L111.195 55.8817L111.235 55.9265L111.348 56.5361L111.353 56.7561L111.387 56.7905L111.547 58.1561L111.58 58.8169V59.4056L111.536 59.9528L111.406 60.828L111.342 61.7256L111.348 62.4592C111.345 62.4859 111.347 62.513 111.353 62.5392L111.416 63.2111L111.545 63.8879C111.551 63.9111 111.551 63.9279 111.556 63.9447L111.732 64.5095L112.031 65.2151L112.048 65.2487C112.054 65.2624 112.061 65.2755 112.07 65.2879L112.087 65.3223C112.098 65.3335 112.104 65.3447 112.116 65.3559L112.324 65.7231L112.668 66.1855L113.092 66.6374L113.566 67.0374L114.159 67.4038L114.667 67.6302C114.72 67.6526 114.775 67.6713 114.831 67.6862L115.084 67.771L115.18 67.8102H115.24C115.548 67.8926 115.847 67.9718 116.152 68.0566Z" fill="#C22347"/>
<path d="M121 55.0036C121.006 59.3493 119.591 63.5777 116.97 67.0441C116.49 66.9025 116.004 66.7673 115.513 66.6441L114.779 66.3729L114.379 66.1417L113.659 65.5017L113.377 65.1354L113.137 64.729L112.934 64.2938L112.928 64.1418L112.848 64.0682L112.747 63.7354V63.5714L112.695 63.5154L112.615 63.1258L112.547 62.4938C112.549 62.4802 112.547 62.4665 112.542 62.4538L112.536 61.7482L112.581 61.0883V61.0595L112.587 61.0371V61.0035L112.699 60.2691L112.773 59.4563V58.7795L112.739 58.0963L112.659 57.2724L112.383 55.5388L112.168 54.5628L111.92 53.6029L111.64 52.6781V52.5181L111.567 52.4453L111.284 51.5869L110.477 49.527L109.992 48.4278L109.432 47.2702L106.621 47.0102L103.827 46.8502L102.467 48.9158L101.931 49.8038L101.813 49.9342V50.0182L100.876 51.7909L100.859 51.8189L100.899 51.6269L100.904 51.5597H100.91L100.972 50.9501L101 50.1238C101.006 50.0902 101.006 50.0622 101.011 50.0438L101.085 49.3326L101.215 48.6774L101.384 48.0958C101.379 48.107 101.373 48.1126 101.373 48.1182L101.39 48.0382H101.395L101.418 47.9022C101.419 47.9444 101.413 47.9866 101.401 48.027L101.61 47.507L101.887 46.9878L102.169 46.5759L102.502 46.1863L102.863 45.8535C102.837 45.8752 102.809 45.8942 102.779 45.9103L102.908 45.8143C102.897 45.8287 102.883 45.8418 102.869 45.8535L103.213 45.6223L103.247 45.5879L103.258 45.5823L103.264 45.5767L103.281 45.5655L103.631 45.3847L103.642 45.3791L104.065 45.2191L104.545 45.1063L104.879 45.0719C108.974 44.8011 113.029 44.0961 116.975 42.9688C119.592 46.435 121.005 50.6607 121 55.0036Z" fill="#C22347"/>
<path d="M115.513 66.6368L114.78 66.3656L114.38 66.1344L113.66 65.4945L113.377 65.1281L113.137 64.7217L112.934 64.2865L112.928 64.1345L112.848 64.0609L112.747 63.7281V63.5641L112.696 63.5081L112.616 63.1185L112.548 62.4865C112.549 62.4729 112.547 62.4592 112.542 62.4465L112.536 61.741L112.581 61.081V61.0522L112.587 61.0298V60.997L112.7 60.2626L112.773 59.4498V58.773L112.74 58.0898L112.66 57.2659L112.383 55.5323L112.168 54.5563L111.92 53.5964L111.64 52.6716V52.5116L111.567 52.4388L111.284 51.5804L110.477 49.5205L109.992 48.4213L109.432 47.2637L106.621 47.0037L103.827 46.8438L102.467 48.9093L101.932 49.7973L101.813 49.9277V50.0117L100.876 51.7844L100.86 51.8124V51.8236L100.769 52.3036L100.6 53.0236L100.385 53.758L100.08 54.6531L99.77 55.4715L99.3804 56.3747L98.9684 57.2435L98.878 57.4187L98.8156 57.7235L98.7196 58.3554L98.6692 59.1346V59.9642L98.6124 60.7098L98.4996 61.4042V61.4098L98.3396 62.0497L98.1868 62.4785L98.102 62.5585L98.0964 62.6881L97.9268 63.0273L97.6508 63.4961L97.3228 63.9025L96.9451 64.2689L96.7155 64.4369H96.6707L96.5411 64.5665L96.2755 64.7137H96.1683L96.0779 64.8097L95.8243 64.9169L95.3611 65.0465L94.9995 65.1089C91.6236 65.4591 88.2844 66.1015 85.0195 67.0288C85.2851 67.3728 85.5555 67.712 85.8379 68.0392C88.866 67.2085 91.9572 66.6281 95.0803 66.304L95.4803 66.2528L95.5707 66.236L96.0051 66.1176L96.5419 65.9144H96.6883L96.8003 65.7968L97.0939 65.6368L97.1955 65.6312L97.3372 65.4785L97.7092 65.1961C97.7561 65.1606 97.7998 65.121 97.8396 65.0777L98.1044 64.8129L98.522 64.3161C98.5701 64.2682 98.612 64.2145 98.6468 64.1561L98.9284 63.7161L99.194 63.1681L99.2956 63.0609V62.9313L99.4708 62.4457L99.6628 61.7066L99.7924 60.9274C99.8027 60.8746 99.8083 60.8211 99.8092 60.7674L99.866 60.0338V59.1746L99.9108 58.5082L99.9844 57.9947L100.304 56.5779L100.496 55.9227L100.57 55.8427V55.6907L100.801 55.0019L100.886 54.9171V54.7763L101.134 54.1324L101.96 52.3044L102.395 51.4524L102.508 51.3396V51.226L102.892 50.5437L103.01 50.4189L103.016 50.3229L103.496 49.5229L104.088 48.5909L104.432 48.0773L106.566 48.1973L108.638 48.3893L109.349 49.9197L109.767 50.9636L110.112 51.8772L110.117 52.0236L110.19 52.0972L110.439 52.8428V53.0028L110.507 53.0764L110.732 53.838L110.744 54.0188L110.806 54.0756L111.189 55.6755L111.195 55.8731L111.235 55.9179L111.348 56.5275L111.353 56.7475L111.387 56.7819L111.547 58.1474L111.58 58.8082V59.397L111.536 59.9442L111.406 60.8194L111.342 61.717L111.348 62.4505C111.345 62.4773 111.347 62.5044 111.353 62.5305L111.416 63.2025L111.545 63.8793C111.551 63.9025 111.551 63.9193 111.556 63.9361L111.732 64.5009L112.031 65.2065L112.048 65.2401C112.054 65.2538 112.061 65.2669 112.07 65.2793L112.087 65.3137C112.098 65.3249 112.104 65.3361 112.116 65.3473L112.324 65.7144L112.668 66.1768L113.092 66.6288L113.566 67.0288L114.159 67.3952L114.667 67.6216C114.72 67.644 114.775 67.6627 114.831 67.6776L115.084 67.7624L115.18 67.8016H115.24C115.545 67.8816 115.844 67.9616 116.149 68.0416C116.432 67.7144 116.702 67.3752 116.968 67.0312C116.49 66.896 116.004 66.7608 115.513 66.6368ZM113.216 65.9032L113.346 65.756L113.459 65.6824L113.216 65.9032Z" fill="#F0F2F4"/>
<path d="M116.151 41.9531C112.442 42.9805 108.638 43.6255 104.799 43.8779L104.387 43.9179V43.9347L104.291 43.9515L104.285 43.9347L103.833 44.0443C103.796 44.0484 103.76 44.0579 103.726 44.0723L103.235 44.2587L102.693 44.5243L102.653 44.5523C102.595 44.5797 102.541 44.6159 102.493 44.6595L102.262 44.8194C102.205 44.8464 102.154 44.8826 102.109 44.9266L101.731 45.2594C101.672 45.3018 101.621 45.3534 101.579 45.4122L101.274 45.7674C101.227 45.8145 101.187 45.8684 101.156 45.9274L100.879 46.3274L100.833 46.429L100.822 46.4234L100.563 46.9082L100.546 46.9818L100.528 46.9762C100.511 47.0075 100.499 47.042 100.495 47.0778L100.297 47.5522C100.272 47.6065 100.253 47.6634 100.24 47.7218L100.072 48.297L100.083 48.3026L100.06 48.4098H100.044L99.9075 49.1041L99.8963 49.1889L99.8907 49.1833L99.8107 49.9457L99.7747 50.8441L99.7179 51.4137H99.7123L99.5995 52.0345L99.4587 52.656L99.4531 52.6896H99.4475L99.2323 53.4176L98.9675 54.208H98.9731L98.3011 55.8504L97.8891 56.7255L97.4259 57.6175L96.9291 58.5151L96.3875 59.4127L95.7947 60.3326L95.1547 61.2526L95.1771 61.2694L95.1715 61.2806L95.1491 61.2638L94.7987 61.7438L94.0083 61.6758L91.3891 61.3822H91.3275L90.6075 61.275L89.9523 59.6951L89.5683 58.6391H89.5595L89.2395 57.6439L89.2003 57.6607V57.6551L89.2395 57.6439L88.9531 56.6839L88.6995 55.7128L88.4907 54.764L88.3211 53.8496L88.2867 53.8552V53.8432H88.3155L88.1995 53.084L88.1091 52.1977L88.0635 51.4241L88.0523 50.7529L88.0803 50.1377L88.1539 49.5281H88.1515L88.1571 49.5049L88.2987 48.7545L88.3099 48.6697L88.3155 48.6753L88.4003 47.9018L88.4227 47.1018C88.4238 47.0484 88.4219 46.995 88.4171 46.9418L88.3827 46.4506C88.3851 46.3883 88.3813 46.3258 88.3715 46.2642L88.2795 45.6842C88.2749 45.6323 88.2636 45.5812 88.2459 45.5322L88.1107 45.0522H88.1051L88.0939 44.9786L88.0875 44.9842L87.8787 44.4243L87.8563 44.4299L87.8131 44.2843L87.5595 43.8163L87.5483 43.7931L87.5147 43.7427L87.1819 43.2683C87.1542 43.2341 87.1239 43.202 87.0915 43.1723L86.8259 42.8787C86.7835 42.8201 86.7319 42.7687 86.6731 42.7267L86.3675 42.4667C86.3182 42.4221 86.2646 42.3824 86.2075 42.3483L85.7787 42.0715L85.7499 42.0659C85.4851 42.3763 85.2307 42.6923 84.9883 43.0203L85.1859 43.1163L85.5579 43.3563L85.5635 43.3619L85.5755 43.3731L85.5867 43.3787L85.8995 43.6443L86.2379 44.0115L86.5091 44.3891L86.7491 44.8298L86.7547 44.8354L86.9411 45.3042C86.9295 45.2584 86.9223 45.2115 86.9195 45.1642L87.0795 45.8362C87.0718 45.7991 87.0678 45.7613 87.0675 45.7234L87.0963 45.8922C87.0907 45.8866 87.0907 45.8754 87.0851 45.8698L87.1811 46.485L87.2203 47.0834L87.2035 47.7386C87.1979 47.7722 87.1979 47.8002 87.1923 47.8186L87.1187 48.5297L86.9779 49.2745L86.9659 49.3705V49.3425L86.8819 50.0625L86.8531 50.7513L86.8643 51.4337L86.9099 52.2336L87.0003 53.12L87.1243 54.012L87.3195 55.032L87.5283 55.9576L87.7995 57.0247L88.4203 59.0119L88.8155 60.0846L89.6395 62.0598L90.1027 62.4158L91.1579 62.5678H91.1635L91.2435 62.5734L92.5531 62.7374L95.0371 62.9686L95.5731 62.7286L96.7979 60.9846L97.3907 60.0638L97.9723 59.1103L98.4859 58.1791L98.8755 57.4279L98.9491 57.0671L99.1595 56.2231L99.6843 54.5752V54.428L99.7747 54.3376L100.046 53.6264L100.458 52.6784L100.858 51.8313V51.8201L100.897 51.6281L100.903 51.5609H100.908L100.971 50.9513L101 50.1241C101.005 50.0905 101.005 50.0625 101.011 50.0441L101.084 49.3329L101.214 48.6777L101.384 48.0962C101.378 48.1074 101.372 48.113 101.372 48.1186L101.389 48.0386H101.395L101.417 47.9026C101.418 47.9448 101.413 47.9869 101.4 48.0274L101.609 47.5074L101.886 46.9882L102.168 46.5762L102.501 46.1866L102.863 45.8538C102.836 45.8755 102.808 45.8945 102.778 45.9106L102.908 45.8146C102.896 45.8291 102.883 45.8422 102.868 45.8538L103.212 45.6226L103.246 45.5882C103.196 45.6293 103.136 45.6569 103.072 45.6682L103.232 45.5778L103.243 45.589L103.254 45.5834L103.26 45.5778L103.277 45.5666L103.627 45.3858L103.638 45.3802L104.061 45.2202L104.541 45.1074L104.875 45.073C108.971 44.8022 113.027 44.097 116.975 42.9691C116.709 42.6195 116.433 42.2843 116.151 41.9531ZM86.7739 44.8826L86.8083 44.8602L86.8819 45.0354C86.8362 44.9921 86.7995 44.9402 86.7739 44.8826ZM103.444 45.4138L103.585 45.385L103.591 45.3962C103.543 45.409 103.493 45.4149 103.444 45.4138Z" fill="#F0F2F4"/>
<path d="M116.401 41.9495C112.692 42.9769 108.889 43.6218 105.049 43.8742L104.637 43.9142V43.931L104.541 43.9478L104.535 43.931L104.083 44.0406C104.046 44.0448 104.01 44.0542 103.976 44.0686L103.485 44.255L102.943 44.5206L102.903 44.5486C102.845 44.5761 102.791 44.6122 102.743 44.6558L102.512 44.8158C102.455 44.8427 102.404 44.879 102.359 44.923L101.981 45.2558C101.922 45.2981 101.871 45.3497 101.829 45.4086L101.524 45.7638C101.477 45.8109 101.437 45.8648 101.406 45.9238L101.129 46.3238L101.083 46.4254L101.072 46.4198L100.813 46.9045L100.796 46.9781L100.778 46.9725C100.761 47.0039 100.749 47.0384 100.745 47.0741L100.547 47.5485C100.522 47.6029 100.503 47.6597 100.49 47.7181L100.322 48.2933L100.333 48.2989L100.31 48.4061H100.294L100.158 49.1005L100.146 49.1853L100.141 49.1797L100.061 49.9421L100.025 50.8404L99.968 51.41H99.9624L99.8496 52.0308L99.7088 52.6524L99.7032 52.686H99.6976L99.4824 53.414L99.2176 54.2043H99.2232L98.5512 55.8467L98.1392 56.7219L97.676 57.6139L97.1792 58.5114L96.6376 59.409L96.0448 60.329L95.4048 61.249L95.4272 61.2658L95.4216 61.277L95.3992 61.2602L95.0488 61.7401L94.2584 61.6721L91.6392 61.3786H91.5776L90.8576 61.2714L90.2024 59.6914L89.8184 58.6354H89.8096L89.4896 57.6403L89.2032 56.6803L88.9496 55.7091L88.7408 54.7603L88.5712 53.846L88.5368 53.8516V53.8396H88.5656L88.4496 53.0804L88.3592 52.194L88.3136 51.4204L88.3024 50.7492L88.3304 50.1341L88.404 49.5245H88.4016L88.4072 49.5013L88.5488 48.7509L88.56 48.6661L88.5656 48.6717L88.6504 47.8981L88.6728 47.0981C88.6739 47.0447 88.6721 46.9913 88.6672 46.9381L88.6328 46.447C88.6352 46.3846 88.6315 46.3222 88.6216 46.2606L88.5296 45.6806C88.525 45.6287 88.5137 45.5776 88.496 45.5286L88.3608 45.0486H88.3552L88.344 44.975L88.3376 44.9806L88.1288 44.4206L88.1064 44.4262L88.0632 44.2806L87.8096 43.8126L87.7984 43.7894L87.7648 43.739L87.432 43.2646C87.4043 43.2305 87.3741 43.1984 87.3416 43.1686L87.076 42.8751C87.0337 42.8164 86.9821 42.7651 86.9232 42.7231L86.6176 42.4631C86.5683 42.4184 86.5147 42.3787 86.4576 42.3447L86.0288 42.0679L86 42.0623C87.8687 39.8586 90.1928 38.0861 92.8124 36.8669C95.4319 35.6477 98.2847 35.0109 101.174 35.0001C104.063 34.9894 106.921 35.6051 109.549 36.8048C112.178 38.0045 114.516 39.7597 116.401 41.9495Z" fill="#C22347"/>
</svg>
