<svg width="1920" height="774" viewBox="0 0 1920 774" fill="none" xmlns="http://www.w3.org/2000/svg">
<path d="M20.7802 1L1 4.95897M115.725 1L1 26.0735M1054.63 1L1439.68 773M1336.82 1L1921 293.964M1243.2 1L1921 453.643M1430.45 1L1921 197.629M1524.08 1L1921 132.966M1806.27 1L1921 26.0735M1712.65 1L1921 52.4667M960.788 1L959.894 773M1619.02 1L1921 86.7778M1901.22 1L1921 4.95897M209.352 1L1 52.4667M302.978 1L1 86.7778M678.802 1L1 453.643M396.604 1L1 132.966M491.549 1L1 196.309M585.176 1L1 292.644M867.374 1L481 773M772.429 1L1 773H1918.36L1148.25 1M1921 1H1M1921 113.831H1M1921 44.5487H1M1921 58.4051H1M1921 74.9009H1M1921 20.135H1M1921 31.3521H1M1921 571.092H1M1921 138.244H1M1921 92.7162H1M1921 10.2376H1M1921 167.277H1M1921 201.588H1M1921 449.684H1M1921 243.817H1M1921 296.603H1M1921 362.586H1" stroke="url(#paint0_linear_1107_8173)" stroke-linecap="round" stroke-linejoin="round"/>
<defs>
<linearGradient id="paint0_linear_1107_8173" x1="961" y1="387.66" x2="961" y2="0.999994" gradientUnits="userSpaceOnUse">
<stop offset="0.65625" stop-color="#D0D0D0"/>
<stop offset="1" stop-color="#D0D0D0" stop-opacity="0"/>
</linearGradient>
</defs>
</svg>
