<svg width="768" height="311" viewBox="0 0 768 311" fill="none" xmlns="http://www.w3.org/2000/svg">
<path d="M7.91209 1L0 2.58462M45.8901 1L0 11.0359M421.451 1L575.473 310M534.33 1L768 118.262M496.879 1L768 182.174M571.78 1L768 79.7026M609.231 1L768 53.8205M722.11 1L768 11.0359M684.659 1L768 21.6M383.915 1L383.557 310M647.209 1L768 35.3333M760.088 1L768 2.58462M83.3407 1L0 21.6M120.791 1L0 35.3333M271.121 1L0 182.174M158.242 1L0 53.8205M196.22 1L0 79.1744M233.67 1L0 117.733M346.549 1L192 310M308.571 1L0 310H766.945L458.901 1M768 1H0M768 46.1615H0M768 18.4308H0M768 23.9769H0M768 30.5795H0M768 8.65897H0M768 13.1487H0M768 229.185H0M768 55.9333H0M768 37.7103H0M768 4.69744H0M768 67.5538H0M768 81.2872H0M768 180.59H0M768 98.1897H0M768 119.318H0M768 145.728H0" stroke="url(#paint0_linear_1014_2326)" stroke-linecap="round" stroke-linejoin="round"/>
<defs>
<linearGradient id="paint0_linear_1014_2326" x1="384" y1="155.764" x2="384" y2="0.999997" gradientUnits="userSpaceOnUse">
<stop offset="0.65625" stop-color="#D0D0D0"/>
<stop offset="1" stop-color="#D0D0D0" stop-opacity="0"/>
</linearGradient>
</defs>
</svg>
