<svg width="1440" height="308" viewBox="0 0 1440 308" fill="none" xmlns="http://www.w3.org/2000/svg">
<path d="M14.8352 1L0 3.96923M86.044 1L0 19.8051M790.22 1L1079.01 580M1001.87 1L1440 220.723M931.648 1L1440 340.482M1072.09 1L1440 148.472M1142.31 1L1440 99.9744M1353.96 1L1440 19.8051M1283.74 1L1440 39.6M719.841 1L719.17 580M1213.52 1L1440 65.3333M1425.16 1L1440 3.96923M156.264 1L0 39.6M226.484 1L0 65.3333M508.352 1L0 340.482M296.703 1L0 99.9744M367.912 1L0 147.482M438.132 1L0 219.733M649.78 1L360 580M578.571 1L0 580H1438.02L860.44 1M1440 1H0M1440 85.6231H0M1440 33.6615H0M1440 44.0538H0M1440 56.4256H0M1440 15.3513H0M1440 23.7641H0M1440 428.569H0M1440 103.933H0M1440 69.7872H0M1440 7.92821H0M1440 125.708H0M1440 151.441H0M1440 337.513H0M1440 183.113H0M1440 222.703H0M1440 272.19H0" stroke="url(#paint0_linear_1107_4981)" stroke-linecap="round" stroke-linejoin="round"/>
<defs>
<linearGradient id="paint0_linear_1107_4981" x1="720" y1="290.995" x2="720" y2="0.999995" gradientUnits="userSpaceOnUse">
<stop offset="0.65625" stop-color="#D0D0D0"/>
<stop offset="1" stop-color="#D0D0D0" stop-opacity="0"/>
</linearGradient>
</defs>
</svg>
