<svg width="1920" height="375" viewBox="0 0 1920 375" fill="none" xmlns="http://www.w3.org/2000/svg">
<path d="M19.7802 1L0 4.95897M114.725 1L0 26.0735M1053.63 1L1438.68 773M1335.82 1L1920 293.964M1242.2 1L1920 453.643M1429.45 1L1920 197.629M1523.08 1L1920 132.966M1805.27 1L1920 26.0735M1711.65 1L1920 52.4667M959.788 1L958.894 773M1618.02 1L1920 86.7778M1900.22 1L1920 4.95897M208.352 1L0 52.4667M301.978 1L0 86.7778M677.802 1L0 453.643M395.604 1L0 132.966M490.549 1L0 196.309M584.176 1L0 292.644M866.374 1L480 773M771.429 1L0 773H1917.36L1147.25 1M1920 1H0M1920 113.831H0M1920 44.5487H0M1920 58.4051H0M1920 74.9009H0M1920 20.135H0M1920 31.3521H0M1920 571.092H0M1920 138.244H0M1920 92.7162H0M1920 10.2376H0M1920 167.277H0M1920 201.588H0M1920 449.684H0M1920 243.817H0M1920 296.603H0M1920 362.586H0" stroke="url(#paint0_linear_1011_5393)" stroke-linecap="round" stroke-linejoin="round"/>
<defs>
<linearGradient id="paint0_linear_1011_5393" x1="960" y1="387.66" x2="960" y2="0.999994" gradientUnits="userSpaceOnUse">
<stop offset="0.65625" stop-color="#D0D0D0"/>
<stop offset="1" stop-color="#D0D0D0" stop-opacity="0"/>
</linearGradient>
</defs>
</svg>
