<svg width="375" height="153" viewBox="0 0 375 153" fill="none" xmlns="http://www.w3.org/2000/svg">
<path d="M3.86332 1L0 1.77436M22.4073 1L0 5.90427M205.786 1L280.992 152M260.903 1L375 58.3026M242.617 1L375 89.535M279.19 1L375 39.4598M297.476 1L375 26.812M352.593 1L375 5.90427M334.306 1L375 11.0667M187.459 1L187.284 152M316.02 1L375 17.7778M371.137 1L375 1.77436M40.6937 1L0 11.0667M58.9801 1L0 17.7778M132.383 1L0 89.535M77.2665 1L0 26.812M95.8104 1L0 39.2017M114.097 1L0 58.0444M169.214 1L93.75 152M150.67 1L0 152H374.485L224.073 1M375 1H0M375 23.0692H0M375 9.51795H0M375 12.2282H0M375 15.4547H0M375 4.74274H0M375 6.93675H0M375 112.508H0M375 27.8444H0M375 18.9393H0M375 2.80684H0M375 33.5231H0M375 40.2342H0M375 88.7607H0M375 48.494H0M375 58.8188H0M375 71.7248H0" stroke="url(#paint0_linear_1030_2331)" stroke-linecap="round" stroke-linejoin="round"/>
<defs>
<linearGradient id="paint0_linear_1030_2331" x1="187.5" y1="76.6291" x2="187.5" y2="0.999999" gradientUnits="userSpaceOnUse">
<stop offset="0.65625" stop-color="#D0D0D0"/>
<stop offset="1" stop-color="#D0D0D0" stop-opacity="0"/>
</linearGradient>
</defs>
</svg>
