<svg width="88" height="80" viewBox="0 0 88 80" fill="none" xmlns="http://www.w3.org/2000/svg">
<rect x="38.5" y="62.5" width="11" height="9" fill="#999DAA" stroke="#999DAA"/>
<mask id="mask0_1473_20969" style="mask-type:alpha" maskUnits="userSpaceOnUse" x="4" y="11" width="80" height="46">
<rect x="4.5" y="11.5" width="79" height="45" rx="7.5" fill="#FAFAFA" stroke="#07012E"/>
</mask>
<g mask="url(#mask0_1473_20969)">
<mask id="path-3-inside-1_1473_20969" fill="white">
<path fill-rule="evenodd" clip-rule="evenodd" d="M39.146 18.3842C39.1996 18.159 39.4008 18 39.6324 18H48.3663C48.5978 18 48.7991 18.159 48.8527 18.3842L50.7643 26.4129C50.7733 26.4505 50.7998 26.4814 50.8354 26.4962C50.8711 26.511 50.9117 26.5079 50.9447 26.4876L57.974 22.1618C58.1712 22.0405 58.4259 22.0704 58.5896 22.2341L64.7655 28.41C64.9292 28.5737 64.9591 28.8284 64.8377 29.0256L60.5121 36.0547C60.4917 36.0878 60.4886 36.1288 60.5035 36.1647C60.5184 36.2007 60.5495 36.2274 60.5874 36.2364L68.6158 38.1479C68.841 38.2016 69 38.4028 69 38.6343V47.3683C69 47.5998 68.841 47.8011 68.6158 47.8547L60.5912 49.7653C60.5494 49.7753 60.515 49.8047 60.4986 49.8444C60.4864 49.8736 60.489 49.907 60.5056 49.934L64.8382 56.9744C64.9595 57.1716 64.9296 57.4263 64.7659 57.59L58.59 63.7658C58.4263 63.9296 58.1716 63.9595 57.9744 63.8381L50.9409 59.5098C50.9089 59.4901 50.8693 59.487 50.8346 59.5014C50.7999 59.5158 50.7741 59.5459 50.7654 59.5825L48.8527 67.6158C48.7991 67.841 48.5978 68 48.3663 68H39.6324C39.4008 68 39.1996 67.841 39.146 67.6158L37.2327 59.5801C37.2242 59.5443 37.1989 59.5148 37.1649 59.5007C37.1308 59.4865 37.0921 59.4895 37.0607 59.5089L30.0256 63.8382C29.8284 63.9595 29.5737 63.9296 29.41 63.7659L23.2341 57.59C23.0704 57.4263 23.0405 57.1716 23.1619 56.9744L27.491 49.9396C27.5103 49.9083 27.5132 49.8696 27.4992 49.8357C27.4851 49.8017 27.4556 49.7765 27.4199 49.768L19.3842 47.8547C19.159 47.8011 19 47.5999 19 47.3683V38.6344C19 38.4029 19.159 38.2016 19.3842 38.148L27.415 36.2359C27.4523 36.227 27.4829 36.2007 27.4976 36.1654C27.5123 36.13 27.5092 36.0897 27.4891 36.057L23.1623 29.026C23.0409 28.8288 23.0708 28.5741 23.2346 28.4104L29.4104 22.2345C29.5741 22.0708 29.8288 22.0409 30.026 22.1622L37.0563 26.4886C37.0887 26.5085 37.1287 26.5116 37.1639 26.497C37.199 26.4825 37.225 26.452 37.2338 26.4151L39.146 18.3842ZM44.0002 50.1406C47.9451 50.1406 51.1431 46.9427 51.1431 42.9978C51.1431 39.0529 47.9451 35.8549 44.0002 35.8549C40.0553 35.8549 36.8574 39.0529 36.8574 42.9978C36.8574 46.9427 40.0553 50.1406 44.0002 50.1406Z"/>
</mask>
<path fill-rule="evenodd" clip-rule="evenodd" d="M39.146 18.3842C39.1996 18.159 39.4008 18 39.6324 18H48.3663C48.5978 18 48.7991 18.159 48.8527 18.3842L50.7643 26.4129C50.7733 26.4505 50.7998 26.4814 50.8354 26.4962C50.8711 26.511 50.9117 26.5079 50.9447 26.4876L57.974 22.1618C58.1712 22.0405 58.4259 22.0704 58.5896 22.2341L64.7655 28.41C64.9292 28.5737 64.9591 28.8284 64.8377 29.0256L60.5121 36.0547C60.4917 36.0878 60.4886 36.1288 60.5035 36.1647C60.5184 36.2007 60.5495 36.2274 60.5874 36.2364L68.6158 38.1479C68.841 38.2016 69 38.4028 69 38.6343V47.3683C69 47.5998 68.841 47.8011 68.6158 47.8547L60.5912 49.7653C60.5494 49.7753 60.515 49.8047 60.4986 49.8444C60.4864 49.8736 60.489 49.907 60.5056 49.934L64.8382 56.9744C64.9595 57.1716 64.9296 57.4263 64.7659 57.59L58.59 63.7658C58.4263 63.9296 58.1716 63.9595 57.9744 63.8381L50.9409 59.5098C50.9089 59.4901 50.8693 59.487 50.8346 59.5014C50.7999 59.5158 50.7741 59.5459 50.7654 59.5825L48.8527 67.6158C48.7991 67.841 48.5978 68 48.3663 68H39.6324C39.4008 68 39.1996 67.841 39.146 67.6158L37.2327 59.5801C37.2242 59.5443 37.1989 59.5148 37.1649 59.5007C37.1308 59.4865 37.0921 59.4895 37.0607 59.5089L30.0256 63.8382C29.8284 63.9595 29.5737 63.9296 29.41 63.7659L23.2341 57.59C23.0704 57.4263 23.0405 57.1716 23.1619 56.9744L27.491 49.9396C27.5103 49.9083 27.5132 49.8696 27.4992 49.8357C27.4851 49.8017 27.4556 49.7765 27.4199 49.768L19.3842 47.8547C19.159 47.8011 19 47.5999 19 47.3683V38.6344C19 38.4029 19.159 38.2016 19.3842 38.148L27.415 36.2359C27.4523 36.227 27.4829 36.2007 27.4976 36.1654C27.5123 36.13 27.5092 36.0897 27.4891 36.057L23.1623 29.026C23.0409 28.8288 23.0708 28.5741 23.2346 28.4104L29.4104 22.2345C29.5741 22.0708 29.8288 22.0409 30.026 22.1622L37.0563 26.4886C37.0887 26.5085 37.1287 26.5116 37.1639 26.497C37.199 26.4825 37.225 26.452 37.2338 26.4151L39.146 18.3842ZM44.0002 50.1406C47.9451 50.1406 51.1431 46.9427 51.1431 42.9978C51.1431 39.0529 47.9451 35.8549 44.0002 35.8549C40.0553 35.8549 36.8574 39.0529 36.8574 42.9978C36.8574 46.9427 40.0553 50.1406 44.0002 50.1406Z" fill="#F5F5F6"/>
<path d="M37.0563 26.4886L36.5322 27.3403L37.0563 26.4886ZM29.4104 22.2345L30.1175 22.9416L29.4104 22.2345ZM23.1623 29.026L24.0139 28.5019L23.1623 29.026ZM27.4891 36.057L26.6374 36.5811L27.4891 36.057ZM27.415 36.2359L27.6466 37.2087L27.415 36.2359ZM19.3842 38.148L19.1526 37.1752L19.3842 38.148ZM19.3842 47.8547L19.6158 46.8819L19.3842 47.8547ZM27.4199 49.768L27.6515 48.7952L27.4199 49.768ZM23.2341 57.59L22.527 58.2971L23.2341 57.59ZM23.1619 56.9744L24.0135 57.4985L23.1619 56.9744ZM30.0256 63.8382L30.5497 64.6898L30.0256 63.8382ZM37.0607 59.5089L36.5366 58.6572L37.0607 59.5089ZM37.2327 59.5801L38.2055 59.3485L37.2327 59.5801ZM39.146 67.6158L40.1188 67.3842L39.146 67.6158ZM48.8527 67.6158L47.8799 67.3842L48.8527 67.6158ZM50.7654 59.5825L51.7382 59.8141L50.7654 59.5825ZM50.9409 59.5098L51.465 58.6581L50.9409 59.5098ZM57.9744 63.8381L57.4503 64.6898L57.9744 63.8381ZM64.8382 56.9744L63.9865 57.4985L64.8382 56.9744ZM60.5056 49.934L61.3572 49.4099L60.5056 49.934ZM60.5912 49.7653L60.3596 48.7925L60.5912 49.7653ZM68.6158 38.1479L68.3842 39.1207L68.6158 38.1479ZM60.5874 36.2364L60.819 35.2636L60.5874 36.2364ZM60.5121 36.0547L61.3638 36.5788L60.5121 36.0547ZM64.7655 28.41L65.4726 27.7028L64.7655 28.41ZM64.8377 29.0256L63.9861 28.5015L64.8377 29.0256ZM57.974 22.1618L57.4499 21.3102L57.974 22.1618ZM58.5896 22.2341L57.8825 22.9412L58.5896 22.2341ZM50.9447 26.4876L50.4206 25.636L50.9447 26.4876ZM50.7643 26.4129L51.7371 26.1813L50.7643 26.4129ZM39.146 18.3842L38.1732 18.1526L39.146 18.3842ZM27.491 49.9396L26.6393 49.4155L27.491 49.9396ZM48.3663 17H39.6324V19H48.3663V17ZM51.7371 26.1813L49.8255 18.1526L47.8799 18.6158L49.7915 26.6445L51.7371 26.1813ZM57.4499 21.3102L50.4206 25.636L51.4688 27.3393L58.4981 23.0135L57.4499 21.3102ZM65.4726 27.7028L59.2967 21.527L57.8825 22.9412L64.0584 29.1171L65.4726 27.7028ZM61.3638 36.5788L65.6894 29.5497L63.9861 28.5015L59.6605 35.5306L61.3638 36.5788ZM68.8474 37.1751L60.819 35.2636L60.3558 37.2092L68.3842 39.1207L68.8474 37.1751ZM70 47.3683V38.6343H68V47.3683H70ZM60.8228 50.7381L68.8474 48.8275L68.3842 46.8819L60.3596 48.7925L60.8228 50.7381ZM65.6898 56.4503L61.3572 49.4099L59.6539 50.4581L63.9865 57.4985L65.6898 56.4503ZM59.2971 64.4729L65.473 58.2971L64.0588 56.8829L57.8829 63.0587L59.2971 64.4729ZM50.4168 60.3614L57.4503 64.6898L58.4985 62.9865L51.465 58.6581L50.4168 60.3614ZM49.8255 67.8474L51.7382 59.8141L49.7926 59.3509L47.8799 67.3842L49.8255 67.8474ZM39.6324 69H48.3663V67H39.6324V69ZM36.2599 59.8117L38.1732 67.8474L40.1188 67.3842L38.2055 59.3485L36.2599 59.8117ZM30.5497 64.6898L37.5848 60.3605L36.5366 58.6572L29.5015 62.9865L30.5497 64.6898ZM22.527 58.2971L28.7029 64.473L30.1171 63.0588L23.9412 56.8829L22.527 58.2971ZM26.6393 49.4155L22.3102 56.4503L24.0135 57.4985L28.3426 50.4637L26.6393 49.4155ZM19.1526 48.8275L27.1883 50.7408L27.6515 48.7952L19.6158 46.8819L19.1526 48.8275ZM18 38.6344V47.3683H20V38.6344H18ZM27.1834 35.2631L19.1526 37.1752L19.6158 39.1208L27.6466 37.2087L27.1834 35.2631ZM22.3106 29.5501L26.6374 36.5811L28.3407 35.5329L24.0139 28.5019L22.3106 29.5501ZM28.7033 21.5274L22.5274 27.7032L23.9417 29.1175L30.1175 22.9416L28.7033 21.5274ZM37.5804 25.6369L30.5501 21.3106L29.5019 23.0139L36.5322 27.3403L37.5804 25.6369ZM38.1732 18.1526L36.261 26.1834L38.2067 26.6467L40.1188 18.6158L38.1732 18.1526ZM50.1431 42.9978C50.1431 46.3904 47.3928 49.1406 44.0002 49.1406V51.1406C48.4974 51.1406 52.1431 47.4949 52.1431 42.9978H50.1431ZM44.0002 36.8549C47.3928 36.8549 50.1431 39.6052 50.1431 42.9978H52.1431C52.1431 38.5006 48.4974 34.8549 44.0002 34.8549V36.8549ZM37.8574 42.9978C37.8574 39.6052 40.6076 36.8549 44.0002 36.8549V34.8549C39.503 34.8549 35.8574 38.5006 35.8574 42.9978H37.8574ZM44.0002 49.1406C40.6076 49.1406 37.8574 46.3904 37.8574 42.9978H35.8574C35.8574 47.4949 39.503 51.1406 44.0002 51.1406V49.1406ZM37.547 27.4207C37.8764 27.2841 38.1231 26.9974 38.2067 26.6467L36.261 26.1834C36.3269 25.9067 36.5215 25.6809 36.7807 25.5734L37.547 27.4207ZM36.5322 27.3403C36.8395 27.5293 37.2171 27.5576 37.547 27.4207L36.7807 25.5734C37.0404 25.4657 37.338 25.4877 37.5804 25.6369L36.5322 27.3403ZM30.1175 22.9416C29.9538 23.1053 29.6991 23.1352 29.5019 23.0139L30.5501 21.3106C29.9585 20.9466 29.1944 21.0363 28.7033 21.5274L30.1175 22.9416ZM24.0139 28.5019C24.1353 28.699 24.1054 28.9537 23.9417 29.1175L22.5274 27.7032C22.0363 28.1944 21.9466 28.9585 22.3106 29.5501L24.0139 28.5019ZM28.4214 36.5483C28.5582 36.2181 28.5299 35.8404 28.3407 35.5329L26.6374 36.5811C26.4884 36.339 26.4663 36.0418 26.5738 35.7824L28.4214 36.5483ZM27.6466 37.2087C27.9977 37.1251 28.2847 36.8781 28.4214 36.5483L26.5738 35.7824C26.6812 35.5234 26.9068 35.3289 27.1834 35.2631L27.6466 37.2087ZM20 38.6344C20 38.8659 19.841 39.0672 19.6158 39.1208L19.1526 37.1752C18.4769 37.3361 18 37.9398 18 38.6344H20ZM19.6158 46.8819C19.841 46.9356 20 47.1368 20 47.3683H18C18 48.0629 18.4769 48.6667 19.1526 48.8275L19.6158 46.8819ZM28.4228 49.4525C28.2867 49.1242 28.001 48.8784 27.6515 48.7952L27.1883 50.7408C26.9103 50.6746 26.6835 50.4792 26.5755 50.2188L28.4228 49.4525ZM23.9412 56.8829C24.105 57.0466 24.1349 57.3013 24.0135 57.4985L22.3102 56.4503C21.9462 57.0419 22.0359 57.806 22.527 58.2971L23.9412 56.8829ZM29.5015 62.9865C29.6987 62.8651 29.9534 62.8951 30.1171 63.0588L28.7029 64.473C29.194 64.9641 29.9581 65.0538 30.5497 64.6898L29.5015 62.9865ZM37.548 58.5769C37.2191 58.4405 36.8427 58.4688 36.5366 58.6572L37.5848 60.3605C37.3414 60.5103 37.0426 60.5325 36.7818 60.4244L37.548 58.5769ZM38.2055 59.3485C38.1223 58.9989 37.8764 58.7132 37.548 58.5769L36.7818 60.4244C36.5214 60.3164 36.3261 60.0896 36.2599 59.8117L38.2055 59.3485ZM39.6324 67C39.8639 67 40.0651 67.159 40.1188 67.3842L38.1732 67.8474C38.334 68.5231 38.9378 69 39.6324 69V67ZM47.8799 67.3842C47.9335 67.159 48.1348 67 48.3663 67V69C49.0609 69 49.6646 68.5231 49.8255 67.8474L47.8799 67.3842ZM50.4516 58.5777C50.1225 58.7141 49.876 59.0005 49.7926 59.3509L51.7382 59.8141C51.6722 60.0914 51.4773 60.3175 51.2176 60.4252L50.4516 58.5777ZM51.465 58.6581C51.1582 58.4693 50.7812 58.4411 50.4516 58.5777L51.2176 60.4252C50.9575 60.533 50.6596 60.5108 50.4168 60.3614L51.465 58.6581ZM57.8829 63.0587C58.0466 62.895 58.3014 62.8651 58.4985 62.9865L57.4503 64.6898C58.0419 65.0538 58.806 64.9641 59.2971 64.4729L57.8829 63.0587ZM63.9865 57.4985C63.8652 57.3013 63.8951 57.0466 64.0588 56.8829L65.473 58.2971C65.9641 57.806 66.0538 57.0419 65.6898 56.4503L63.9865 57.4985ZM59.5751 49.4608C59.4403 49.7851 59.4682 50.1563 59.6539 50.4581L61.3572 49.4099C61.5098 49.6577 61.5325 49.9621 61.4221 50.2279L59.5751 49.4608ZM60.3596 48.7925C60.0041 48.8771 59.7137 49.1271 59.5751 49.4607L61.422 50.2281C61.3164 50.4823 61.0948 50.6734 60.8228 50.7381L60.3596 48.7925ZM68 47.3683C68 47.1368 68.159 46.9355 68.3842 46.8819L68.8474 48.8275C69.5231 48.6666 70 48.0629 70 47.3683H68ZM68.3842 39.1207C68.159 39.0671 68 38.8659 68 38.6343H70C70 37.9397 69.5231 37.336 68.8474 37.1751L68.3842 39.1207ZM59.5797 36.5477C59.7166 36.878 60.0041 37.1255 60.3558 37.2092L60.819 35.2636C61.095 35.3293 61.3201 35.5233 61.4272 35.7818L59.5797 36.5477ZM59.6605 35.5306C59.4709 35.8386 59.4426 36.217 59.5797 36.5477L61.4272 35.7818C61.5345 36.0406 61.5125 36.3371 61.3638 36.5788L59.6605 35.5306ZM64.0584 29.1171C63.8946 28.9533 63.8647 28.6986 63.9861 28.5015L65.6894 29.5497C66.0534 28.9581 65.9637 28.194 65.4726 27.7028L64.0584 29.1171ZM58.4981 23.0135C58.3009 23.1348 58.0462 23.1049 57.8825 22.9412L59.2967 21.527C58.8056 21.0359 58.0415 20.9462 57.4499 21.3102L58.4981 23.0135ZM50.4524 27.4199C50.7829 27.557 51.161 27.5286 51.4688 27.3393L50.4206 25.636C50.6625 25.4871 50.9594 25.465 51.2184 25.5725L50.4524 27.4199ZM49.7915 26.6445C49.8752 26.9959 50.1224 27.2831 50.4524 27.4199L51.2184 25.5725C51.4771 25.6797 51.6713 25.905 51.7371 26.1813L49.7915 26.6445ZM39.6324 17C38.9378 17 38.334 17.4769 38.1732 18.1526L40.1188 18.6158C40.0651 18.841 39.8639 19 39.6324 19V17ZM28.3426 50.4637C28.531 50.1576 28.5592 49.7813 28.4228 49.4525L26.5755 50.2188C26.4673 49.9579 26.4895 49.659 26.6393 49.4155L28.3426 50.4637ZM48.3663 19C48.1348 19 47.9335 18.841 47.8799 18.6158L49.8255 18.1526C49.6646 17.4769 49.0609 17 48.3663 17V19Z" fill="#999DAA" mask="url(#path-3-inside-1_1473_20969)"/>
</g>
<rect x="4.5" y="4.5" width="79" height="58" stroke="#999DAA"/>
<rect x="31.5" y="70.5" width="25" height="5" fill="#999DAA" stroke="#999DAA"/>
<line x1="4.5" y1="56.5" x2="83.5" y2="56.5" stroke="#999DAA" stroke-linecap="round"/>
</svg>
