<svg width="144" height="80" viewBox="0 0 144 80" fill="none" xmlns="http://www.w3.org/2000/svg">
<mask id="path-1-inside-1_1489_21732" fill="white">
<path fill-rule="evenodd" clip-rule="evenodd" d="M27.146 15.3842C27.1996 15.159 27.4008 15 27.6324 15H36.3663C36.5978 15 36.7991 15.159 36.8527 15.3842L38.7643 23.4129C38.7733 23.4505 38.7998 23.4814 38.8354 23.4962C38.8711 23.511 38.9117 23.5079 38.9447 23.4876L45.974 19.1618C46.1712 19.0405 46.4259 19.0704 46.5896 19.2341L52.7655 25.41C52.9292 25.5737 52.9591 25.8284 52.8377 26.0256L48.5121 33.0547C48.4917 33.0878 48.4886 33.1288 48.5035 33.1647C48.5184 33.2007 48.5495 33.2274 48.5874 33.2364L56.6158 35.1479C56.841 35.2016 57 35.4028 57 35.6343V44.3683C57 44.5998 56.841 44.8011 56.6158 44.8547L48.5912 46.7653C48.5494 46.7753 48.515 46.8047 48.4986 46.8444C48.4864 46.8736 48.489 46.907 48.5056 46.934L52.8382 53.9744C52.9595 54.1716 52.9296 54.4263 52.7659 54.59L46.59 60.7658C46.4263 60.9296 46.1716 60.9595 45.9744 60.8381L38.9409 56.5098C38.9089 56.4901 38.8693 56.487 38.8346 56.5014C38.7999 56.5158 38.7741 56.5459 38.7654 56.5825L36.8527 64.6158C36.7991 64.841 36.5978 65 36.3663 65H27.6324C27.4008 65 27.1996 64.841 27.146 64.6158L25.2327 56.5801C25.2242 56.5443 25.1989 56.5148 25.1649 56.5007C25.1308 56.4865 25.0921 56.4895 25.0607 56.5089L18.0256 60.8382C17.8284 60.9595 17.5737 60.9296 17.41 60.7659L11.2341 54.59C11.0704 54.4263 11.0405 54.1716 11.1619 53.9744L15.491 46.9396C15.5103 46.9083 15.5132 46.8696 15.4992 46.8357C15.4851 46.8017 15.4556 46.7765 15.4199 46.768L7.38419 44.8547C7.15896 44.8011 7 44.5999 7 44.3683V35.6344C7 35.4029 7.15896 35.2016 7.38419 35.148L15.415 33.2359C15.4523 33.227 15.4829 33.2007 15.4976 33.1654C15.5123 33.13 15.5092 33.0897 15.4891 33.057L11.1623 26.026C11.0409 25.8288 11.0708 25.5741 11.2346 25.4104L17.4104 19.2345C17.5741 19.0708 17.8288 19.0409 18.026 19.1622L25.0563 23.4886C25.0887 23.5085 25.1287 23.5116 25.1639 23.497C25.199 23.4825 25.225 23.452 25.2338 23.4151L27.146 15.3842ZM32.0002 47.1406C35.9451 47.1406 39.1431 43.9427 39.1431 39.9978C39.1431 36.0529 35.9451 32.8549 32.0002 32.8549C28.0553 32.8549 24.8574 36.0529 24.8574 39.9978C24.8574 43.9427 28.0553 47.1406 32.0002 47.1406Z"/>
</mask>
<path fill-rule="evenodd" clip-rule="evenodd" d="M27.146 15.3842C27.1996 15.159 27.4008 15 27.6324 15H36.3663C36.5978 15 36.7991 15.159 36.8527 15.3842L38.7643 23.4129C38.7733 23.4505 38.7998 23.4814 38.8354 23.4962C38.8711 23.511 38.9117 23.5079 38.9447 23.4876L45.974 19.1618C46.1712 19.0405 46.4259 19.0704 46.5896 19.2341L52.7655 25.41C52.9292 25.5737 52.9591 25.8284 52.8377 26.0256L48.5121 33.0547C48.4917 33.0878 48.4886 33.1288 48.5035 33.1647C48.5184 33.2007 48.5495 33.2274 48.5874 33.2364L56.6158 35.1479C56.841 35.2016 57 35.4028 57 35.6343V44.3683C57 44.5998 56.841 44.8011 56.6158 44.8547L48.5912 46.7653C48.5494 46.7753 48.515 46.8047 48.4986 46.8444C48.4864 46.8736 48.489 46.907 48.5056 46.934L52.8382 53.9744C52.9595 54.1716 52.9296 54.4263 52.7659 54.59L46.59 60.7658C46.4263 60.9296 46.1716 60.9595 45.9744 60.8381L38.9409 56.5098C38.9089 56.4901 38.8693 56.487 38.8346 56.5014C38.7999 56.5158 38.7741 56.5459 38.7654 56.5825L36.8527 64.6158C36.7991 64.841 36.5978 65 36.3663 65H27.6324C27.4008 65 27.1996 64.841 27.146 64.6158L25.2327 56.5801C25.2242 56.5443 25.1989 56.5148 25.1649 56.5007C25.1308 56.4865 25.0921 56.4895 25.0607 56.5089L18.0256 60.8382C17.8284 60.9595 17.5737 60.9296 17.41 60.7659L11.2341 54.59C11.0704 54.4263 11.0405 54.1716 11.1619 53.9744L15.491 46.9396C15.5103 46.9083 15.5132 46.8696 15.4992 46.8357C15.4851 46.8017 15.4556 46.7765 15.4199 46.768L7.38419 44.8547C7.15896 44.8011 7 44.5999 7 44.3683V35.6344C7 35.4029 7.15896 35.2016 7.38419 35.148L15.415 33.2359C15.4523 33.227 15.4829 33.2007 15.4976 33.1654C15.5123 33.13 15.5092 33.0897 15.4891 33.057L11.1623 26.026C11.0409 25.8288 11.0708 25.5741 11.2346 25.4104L17.4104 19.2345C17.5741 19.0708 17.8288 19.0409 18.026 19.1622L25.0563 23.4886C25.0887 23.5085 25.1287 23.5116 25.1639 23.497C25.199 23.4825 25.225 23.452 25.2338 23.4151L27.146 15.3842ZM32.0002 47.1406C35.9451 47.1406 39.1431 43.9427 39.1431 39.9978C39.1431 36.0529 35.9451 32.8549 32.0002 32.8549C28.0553 32.8549 24.8574 36.0529 24.8574 39.9978C24.8574 43.9427 28.0553 47.1406 32.0002 47.1406Z" fill="#F5F5F6"/>
<path d="M25.0563 23.4886L24.5322 24.3403L25.0563 23.4886ZM17.4104 19.2345L18.1175 19.9416L17.4104 19.2345ZM11.1623 26.026L12.0139 25.5019L11.1623 26.026ZM15.4891 33.057L14.6374 33.5811L15.4891 33.057ZM15.415 33.2359L15.6466 34.2087L15.415 33.2359ZM7.38419 35.148L7.15257 34.1752L7.38419 35.148ZM7.38419 44.8547L7.61581 43.8819L7.38419 44.8547ZM15.4199 46.768L15.6515 45.7952L15.4199 46.768ZM11.2341 54.59L10.527 55.2971L11.2341 54.59ZM11.1619 53.9744L12.0135 54.4985L11.1619 53.9744ZM18.0256 60.8382L18.5497 61.6898L18.0256 60.8382ZM25.0607 56.5089L24.5366 55.6572L25.0607 56.5089ZM25.2327 56.5801L26.2055 56.3485L25.2327 56.5801ZM27.146 64.6158L28.1188 64.3842L27.146 64.6158ZM36.8527 64.6158L35.8799 64.3842L36.8527 64.6158ZM38.7654 56.5825L39.7382 56.8141L38.7654 56.5825ZM38.9409 56.5098L39.465 55.6581L38.9409 56.5098ZM45.9744 60.8381L45.4503 61.6898L45.9744 60.8381ZM52.8382 53.9744L51.9865 54.4985L52.8382 53.9744ZM48.5056 46.934L49.3572 46.4099L48.5056 46.934ZM48.5912 46.7653L48.3596 45.7925L48.5912 46.7653ZM56.6158 35.1479L56.3842 36.1207L56.6158 35.1479ZM48.5874 33.2364L48.819 32.2636L48.5874 33.2364ZM48.5121 33.0547L49.3638 33.5788L48.5121 33.0547ZM52.7655 25.41L53.4726 24.7028L52.7655 25.41ZM52.8377 26.0256L51.9861 25.5015L52.8377 26.0256ZM45.974 19.1618L45.4499 18.3102L45.974 19.1618ZM46.5896 19.2341L45.8825 19.9412L46.5896 19.2341ZM38.9447 23.4876L38.4206 22.636L38.9447 23.4876ZM38.7643 23.4129L39.7371 23.1813L38.7643 23.4129ZM27.146 15.3842L26.1732 15.1526L27.146 15.3842ZM15.491 46.9396L14.6393 46.4155L15.491 46.9396ZM36.3663 14H27.6324V16H36.3663V14ZM39.7371 23.1813L37.8255 15.1526L35.8799 15.6158L37.7915 23.6445L39.7371 23.1813ZM45.4499 18.3102L38.4206 22.636L39.4688 24.3393L46.4981 20.0135L45.4499 18.3102ZM53.4726 24.7028L47.2967 18.527L45.8825 19.9412L52.0584 26.1171L53.4726 24.7028ZM49.3638 33.5788L53.6894 26.5497L51.9861 25.5015L47.6605 32.5306L49.3638 33.5788ZM56.8474 34.1751L48.819 32.2636L48.3558 34.2092L56.3842 36.1207L56.8474 34.1751ZM58 44.3683V35.6343H56V44.3683H58ZM48.8228 47.7381L56.8474 45.8275L56.3842 43.8819L48.3596 45.7925L48.8228 47.7381ZM53.6898 53.4503L49.3572 46.4099L47.6539 47.4581L51.9865 54.4985L53.6898 53.4503ZM47.2971 61.4729L53.473 55.2971L52.0588 53.8829L45.8829 60.0587L47.2971 61.4729ZM38.4168 57.3614L45.4503 61.6898L46.4985 59.9865L39.465 55.6581L38.4168 57.3614ZM37.8255 64.8474L39.7382 56.8141L37.7926 56.3509L35.8799 64.3842L37.8255 64.8474ZM27.6324 66H36.3663V64H27.6324V66ZM24.2599 56.8117L26.1732 64.8474L28.1188 64.3842L26.2055 56.3485L24.2599 56.8117ZM18.5497 61.6898L25.5848 57.3605L24.5366 55.6572L17.5015 59.9865L18.5497 61.6898ZM10.527 55.2971L16.7029 61.473L18.1171 60.0588L11.9412 53.8829L10.527 55.2971ZM14.6393 46.4155L10.3102 53.4503L12.0135 54.4985L16.3426 47.4637L14.6393 46.4155ZM7.15257 45.8275L15.1883 47.7408L15.6515 45.7952L7.61581 43.8819L7.15257 45.8275ZM6 35.6344V44.3683H8V35.6344H6ZM15.1834 32.2631L7.15257 34.1752L7.61581 36.1208L15.6466 34.2087L15.1834 32.2631ZM10.3106 26.5501L14.6374 33.5811L16.3407 32.5329L12.0139 25.5019L10.3106 26.5501ZM16.7033 18.5274L10.5274 24.7032L11.9417 26.1175L18.1175 19.9416L16.7033 18.5274ZM25.5804 22.6369L18.5501 18.3106L17.5019 20.0139L24.5322 24.3403L25.5804 22.6369ZM26.1732 15.1526L24.261 23.1834L26.2067 23.6467L28.1188 15.6158L26.1732 15.1526ZM38.1431 39.9978C38.1431 43.3904 35.3928 46.1406 32.0002 46.1406V48.1406C36.4974 48.1406 40.1431 44.4949 40.1431 39.9978H38.1431ZM32.0002 33.8549C35.3928 33.8549 38.1431 36.6052 38.1431 39.9978H40.1431C40.1431 35.5006 36.4974 31.8549 32.0002 31.8549V33.8549ZM25.8574 39.9978C25.8574 36.6052 28.6076 33.8549 32.0002 33.8549V31.8549C27.503 31.8549 23.8574 35.5006 23.8574 39.9978H25.8574ZM32.0002 46.1406C28.6076 46.1406 25.8574 43.3904 25.8574 39.9978H23.8574C23.8574 44.4949 27.503 48.1406 32.0002 48.1406V46.1406ZM25.547 24.4207C25.8764 24.2841 26.1231 23.9974 26.2067 23.6467L24.261 23.1834C24.3269 22.9067 24.5215 22.6809 24.7807 22.5734L25.547 24.4207ZM24.5322 24.3403C24.8395 24.5293 25.2171 24.5576 25.547 24.4207L24.7807 22.5734C25.0404 22.4657 25.338 22.4877 25.5804 22.6369L24.5322 24.3403ZM18.1175 19.9416C17.9538 20.1053 17.6991 20.1352 17.5019 20.0139L18.5501 18.3106C17.9585 17.9466 17.1944 18.0363 16.7033 18.5274L18.1175 19.9416ZM12.0139 25.5019C12.1353 25.699 12.1054 25.9537 11.9417 26.1175L10.5274 24.7032C10.0363 25.1944 9.94659 25.9585 10.3106 26.5501L12.0139 25.5019ZM16.4214 33.5483C16.5582 33.2181 16.5299 32.8404 16.3407 32.5329L14.6374 33.5811C14.4884 33.339 14.4663 33.0418 14.5738 32.7824L16.4214 33.5483ZM15.6466 34.2087C15.9977 34.1251 16.2847 33.8781 16.4214 33.5483L14.5738 32.7824C14.6812 32.5234 14.9068 32.3289 15.1834 32.2631L15.6466 34.2087ZM8 35.6344C8 35.8659 7.84104 36.0672 7.61581 36.1208L7.15257 34.1752C6.47687 34.3361 6 34.9398 6 35.6344H8ZM7.61581 43.8819C7.84104 43.9356 8 44.1368 8 44.3683H6C6 45.0629 6.47687 45.6667 7.15257 45.8275L7.61581 43.8819ZM16.4228 46.4525C16.2867 46.1242 16.001 45.8784 15.6515 45.7952L15.1883 47.7408C14.9103 47.6746 14.6835 47.4792 14.5755 47.2188L16.4228 46.4525ZM11.9412 53.8829C12.105 54.0466 12.1349 54.3013 12.0135 54.4985L10.3102 53.4503C9.94617 54.0419 10.0359 54.806 10.527 55.2971L11.9412 53.8829ZM17.5015 59.9865C17.6987 59.8651 17.9534 59.8951 18.1171 60.0588L16.7029 61.473C17.194 61.9641 17.9581 62.0538 18.5497 61.6898L17.5015 59.9865ZM25.548 55.5769C25.2191 55.4405 24.8427 55.4688 24.5366 55.6572L25.5848 57.3605C25.3414 57.5103 25.0426 57.5325 24.7818 57.4244L25.548 55.5769ZM26.2055 56.3485C26.1223 55.9989 25.8764 55.7132 25.548 55.5769L24.7818 57.4244C24.5214 57.3164 24.3261 57.0896 24.2599 56.8117L26.2055 56.3485ZM27.6324 64C27.8639 64 28.0651 64.159 28.1188 64.3842L26.1732 64.8474C26.334 65.5231 26.9378 66 27.6324 66V64ZM35.8799 64.3842C35.9335 64.159 36.1348 64 36.3663 64V66C37.0609 66 37.6646 65.5231 37.8255 64.8474L35.8799 64.3842ZM38.4516 55.5777C38.1225 55.7141 37.876 56.0005 37.7926 56.3509L39.7382 56.8141C39.6722 57.0914 39.4773 57.3175 39.2176 57.4252L38.4516 55.5777ZM39.465 55.6581C39.1582 55.4693 38.7812 55.4411 38.4516 55.5777L39.2176 57.4252C38.9575 57.533 38.6596 57.5108 38.4168 57.3614L39.465 55.6581ZM45.8829 60.0587C46.0466 59.895 46.3014 59.8651 46.4985 59.9865L45.4503 61.6898C46.0419 62.0538 46.806 61.9641 47.2971 61.4729L45.8829 60.0587ZM51.9865 54.4985C51.8652 54.3013 51.8951 54.0466 52.0588 53.8829L53.473 55.2971C53.9641 54.806 54.0538 54.0419 53.6898 53.4503L51.9865 54.4985ZM47.5751 46.4608C47.4403 46.7851 47.4682 47.1563 47.6539 47.4581L49.3572 46.4099C49.5098 46.6577 49.5325 46.9621 49.4221 47.2279L47.5751 46.4608ZM48.3596 45.7925C48.0041 45.8771 47.7137 46.1271 47.5751 46.4607L49.422 47.2281C49.3164 47.4823 49.0948 47.6734 48.8228 47.7381L48.3596 45.7925ZM56 44.3683C56 44.1368 56.159 43.9355 56.3842 43.8819L56.8474 45.8275C57.5231 45.6666 58 45.0629 58 44.3683H56ZM56.3842 36.1207C56.159 36.0671 56 35.8659 56 35.6343H58C58 34.9397 57.5231 34.336 56.8474 34.1751L56.3842 36.1207ZM47.5797 33.5477C47.7166 33.878 48.0041 34.1255 48.3558 34.2092L48.819 32.2636C49.095 32.3293 49.3201 32.5233 49.4272 32.7818L47.5797 33.5477ZM47.6605 32.5306C47.4709 32.8386 47.4426 33.217 47.5797 33.5477L49.4272 32.7818C49.5345 33.0406 49.5125 33.3371 49.3638 33.5788L47.6605 32.5306ZM52.0584 26.1171C51.8946 25.9533 51.8647 25.6986 51.9861 25.5015L53.6894 26.5497C54.0534 25.9581 53.9637 25.194 53.4726 24.7028L52.0584 26.1171ZM46.4981 20.0135C46.3009 20.1348 46.0462 20.1049 45.8825 19.9412L47.2967 18.527C46.8056 18.0359 46.0415 17.9462 45.4499 18.3102L46.4981 20.0135ZM38.4524 24.4199C38.7829 24.557 39.161 24.5286 39.4688 24.3393L38.4206 22.636C38.6625 22.4871 38.9594 22.465 39.2184 22.5725L38.4524 24.4199ZM37.7915 23.6445C37.8752 23.9959 38.1224 24.2831 38.4524 24.4199L39.2184 22.5725C39.4771 22.6797 39.6713 22.905 39.7371 23.1813L37.7915 23.6445ZM27.6324 14C26.9378 14 26.334 14.4769 26.1732 15.1526L28.1188 15.6158C28.0651 15.841 27.8639 16 27.6324 16V14ZM16.3426 47.4637C16.531 47.1576 16.5592 46.7813 16.4228 46.4525L14.5755 47.2188C14.4673 46.9579 14.4895 46.659 14.6393 46.4155L16.3426 47.4637ZM36.3663 16C36.1348 16 35.9335 15.841 35.8799 15.6158L37.8255 15.1526C37.6646 14.4769 37.0609 14 36.3663 14V16Z" fill="#999DAA" mask="url(#path-1-inside-1_1489_21732)"/>
<path d="M55 30.2362L62.2634 30.2362L62.2634 23L79 40L62.2634 57L62.2634 49.7638L55 49.7638" stroke="#999DAA" stroke-linecap="round"/>
<mask id="path-4-inside-2_1489_21732" fill="white">
<path fill-rule="evenodd" clip-rule="evenodd" d="M103.574 12.3842C103.627 12.159 103.829 12 104.06 12H113.937C114.168 12 114.37 12.159 114.423 12.3842L116.573 21.4115C116.583 21.4572 116.616 21.4949 116.659 21.5129C116.703 21.5309 116.752 21.5271 116.792 21.5024L124.691 16.6413C124.889 16.52 125.143 16.5499 125.307 16.7136L132.291 23.6975C132.455 23.8613 132.485 24.116 132.363 24.3131L127.498 32.2198C127.474 32.2583 127.47 32.3057 127.488 32.3474C127.505 32.3891 127.541 32.42 127.585 32.4305L136.616 34.5807C136.841 34.6343 137 34.8356 137 35.0671V44.9439C137 45.1754 136.841 45.3767 136.616 45.4303L127.571 47.5839C127.529 47.5938 127.495 47.6229 127.479 47.662C127.465 47.6949 127.468 47.7323 127.487 47.7626L132.363 55.6867C132.485 55.8839 132.455 56.1386 132.291 56.3023L125.307 63.2862C125.143 63.45 124.889 63.4799 124.691 63.3585L116.775 58.4871C116.739 58.4649 116.695 58.4614 116.655 58.4777C116.616 58.4939 116.587 58.528 116.577 58.5692L114.423 67.6158C114.37 67.841 114.168 68 113.937 68H104.06C103.829 68 103.627 67.841 103.574 67.6158L101.417 58.5578C101.408 58.5219 101.383 58.4923 101.349 58.4782C101.315 58.4641 101.276 58.4671 101.245 58.4864L93.3088 63.37C93.1116 63.4914 92.8569 63.4614 92.6932 63.2977L85.7092 56.3138C85.5455 56.1501 85.5156 55.8954 85.6369 55.6982L90.5141 47.7729C90.5351 47.7387 90.5384 47.6965 90.523 47.6594C90.5076 47.6224 90.4755 47.5949 90.4365 47.5856L81.3842 45.4303C81.159 45.3767 81 45.1754 81 44.9439V35.0671C81 34.8356 81.159 34.6343 81.3842 34.5807L90.4169 32.4301C90.4619 32.4194 90.4989 32.3876 90.5166 32.3449C90.5343 32.3022 90.5305 32.2536 90.5063 32.2143L85.637 24.3017C85.5157 24.1045 85.5456 23.8498 85.7093 23.6861L92.6932 16.7021C92.857 16.5384 93.1117 16.5085 93.3088 16.6298L101.228 21.5031C101.263 21.5249 101.307 21.5282 101.345 21.5123C101.384 21.4964 101.412 21.4632 101.422 21.4229L103.574 12.3842ZM109.001 47.9936C113.42 47.9936 117.001 44.4118 117.001 39.9936C117.001 35.5753 113.42 31.9936 109.001 31.9936C104.583 31.9936 101.001 35.5753 101.001 39.9936C101.001 44.4118 104.583 47.9936 109.001 47.9936Z"/>
</mask>
<path fill-rule="evenodd" clip-rule="evenodd" d="M103.574 12.3842C103.627 12.159 103.829 12 104.06 12H113.937C114.168 12 114.37 12.159 114.423 12.3842L116.573 21.4115C116.583 21.4572 116.616 21.4949 116.659 21.5129C116.703 21.5309 116.752 21.5271 116.792 21.5024L124.691 16.6413C124.889 16.52 125.143 16.5499 125.307 16.7136L132.291 23.6975C132.455 23.8613 132.485 24.116 132.363 24.3131L127.498 32.2198C127.474 32.2583 127.47 32.3057 127.488 32.3474C127.505 32.3891 127.541 32.42 127.585 32.4305L136.616 34.5807C136.841 34.6343 137 34.8356 137 35.0671V44.9439C137 45.1754 136.841 45.3767 136.616 45.4303L127.571 47.5839C127.529 47.5938 127.495 47.6229 127.479 47.662C127.465 47.6949 127.468 47.7323 127.487 47.7626L132.363 55.6867C132.485 55.8839 132.455 56.1386 132.291 56.3023L125.307 63.2862C125.143 63.45 124.889 63.4799 124.691 63.3585L116.775 58.4871C116.739 58.4649 116.695 58.4614 116.655 58.4777C116.616 58.4939 116.587 58.528 116.577 58.5692L114.423 67.6158C114.37 67.841 114.168 68 113.937 68H104.06C103.829 68 103.627 67.841 103.574 67.6158L101.417 58.5578C101.408 58.5219 101.383 58.4923 101.349 58.4782C101.315 58.4641 101.276 58.4671 101.245 58.4864L93.3088 63.37C93.1116 63.4914 92.8569 63.4614 92.6932 63.2977L85.7092 56.3138C85.5455 56.1501 85.5156 55.8954 85.6369 55.6982L90.5141 47.7729C90.5351 47.7387 90.5384 47.6965 90.523 47.6594C90.5076 47.6224 90.4755 47.5949 90.4365 47.5856L81.3842 45.4303C81.159 45.3767 81 45.1754 81 44.9439V35.0671C81 34.8356 81.159 34.6343 81.3842 34.5807L90.4169 32.4301C90.4619 32.4194 90.4989 32.3876 90.5166 32.3449C90.5343 32.3022 90.5305 32.2536 90.5063 32.2143L85.637 24.3017C85.5157 24.1045 85.5456 23.8498 85.7093 23.6861L92.6932 16.7021C92.857 16.5384 93.1117 16.5085 93.3088 16.6298L101.228 21.5031C101.263 21.5249 101.307 21.5282 101.345 21.5123C101.384 21.4964 101.412 21.4632 101.422 21.4229L103.574 12.3842ZM109.001 47.9936C113.42 47.9936 117.001 44.4118 117.001 39.9936C117.001 35.5753 113.42 31.9936 109.001 31.9936C104.583 31.9936 101.001 35.5753 101.001 39.9936C101.001 44.4118 104.583 47.9936 109.001 47.9936Z" fill="#F5F5F6"/>
<path d="M101.422 21.4229L100.449 21.1913L101.422 21.4229ZM101.228 21.5031L100.704 22.3548L101.228 21.5031ZM92.6932 16.7021L91.9861 15.995L92.6932 16.7021ZM93.3088 16.6298L92.7847 17.4815L93.3088 16.6298ZM85.7093 23.6861L86.4164 24.3932L85.7093 23.6861ZM90.5063 32.2143L89.6546 32.7384L90.5063 32.2143ZM90.4169 32.4301L90.1853 31.4573L90.4169 32.4301ZM81.3842 34.5807L81.1526 33.6079L81.3842 34.5807ZM90.4365 47.5856L90.6681 46.6128L90.4365 47.5856ZM85.7092 56.3138L86.4163 55.6067L85.7092 56.3138ZM85.6369 55.6982L86.4886 56.2223L85.6369 55.6982ZM93.3088 63.37L92.7847 62.5183L93.3088 63.37ZM92.6932 63.2977L93.4003 62.5906L92.6932 63.2977ZM101.245 58.4864L100.72 57.6348L101.245 58.4864ZM101.417 58.5578L102.39 58.3262L101.417 58.5578ZM103.574 67.6158L104.546 67.3842L103.574 67.6158ZM114.423 67.6158L113.45 67.3842L114.423 67.6158ZM116.577 58.5692L117.55 58.8009L116.577 58.5692ZM116.775 58.4871L117.3 57.6355L116.775 58.4871ZM124.691 63.3585L125.216 62.5069L124.691 63.3585ZM132.363 55.6867L131.512 56.2108L132.363 55.6867ZM127.487 47.7626L126.635 48.2867L127.487 47.7626ZM127.571 47.5839L127.339 46.6111L127.571 47.5839ZM136.616 45.4303L136.384 44.4575L136.616 45.4303ZM136.616 34.5807L136.847 33.6079L136.616 34.5807ZM127.585 32.4305L127.353 33.4033L127.585 32.4305ZM127.498 32.2198L128.349 32.7439L127.498 32.2198ZM132.291 23.6975L131.584 24.4047L132.291 23.6975ZM124.691 16.6413L124.167 15.7897L124.691 16.6413ZM125.307 16.7136L126.014 16.0065L125.307 16.7136ZM116.792 21.5024L117.316 22.3541L116.792 21.5024ZM116.573 21.4115L117.545 21.1799L116.573 21.4115ZM103.574 12.3842L102.601 12.1526L103.574 12.3842ZM90.5141 47.7729L91.3657 48.297L90.5141 47.7729ZM114.423 12.3842L115.396 12.1526L114.423 12.3842ZM113.937 11H104.06V13H113.937V11ZM117.545 21.1799L115.396 12.1526L113.45 12.6158L115.6 21.6431L117.545 21.1799ZM124.167 15.7897L116.268 20.6508L117.316 22.3541L125.215 17.493L124.167 15.7897ZM132.998 22.9904L126.014 16.0065L124.6 17.4207L131.584 24.4047L132.998 22.9904ZM128.349 32.7439L133.215 24.8372L131.512 23.7891L126.646 31.6957L128.349 32.7439ZM136.847 33.6079L127.816 31.4577L127.353 33.4033L136.384 35.5535L136.847 33.6079ZM138 44.9439V35.0671H136V44.9439H138ZM127.802 48.5568L136.847 46.4031L136.384 44.4575L127.339 46.6111L127.802 48.5568ZM133.215 55.1626L128.339 47.2385L126.635 48.2867L131.512 56.2108L133.215 55.1626ZM126.014 63.9933L132.998 57.0094L131.584 55.5952L124.6 62.5791L126.014 63.9933ZM116.251 59.3388L124.167 64.2102L125.216 62.5069L117.3 57.6355L116.251 59.3388ZM115.396 67.8474L117.55 58.8009L115.604 58.3376L113.45 67.3842L115.396 67.8474ZM104.06 69H113.937V67H104.06V69ZM100.444 58.7895L102.601 67.8474L104.546 67.3842L102.39 58.3262L100.444 58.7895ZM93.8329 64.2217L101.769 59.3381L100.72 57.6348L92.7847 62.5183L93.8329 64.2217ZM85.0021 57.0209L91.9861 64.0048L93.4003 62.5906L86.4163 55.6067L85.0021 57.0209ZM89.6624 47.2488L84.7853 55.1741L86.4886 56.2223L91.3657 48.297L89.6624 47.2488ZM81.1526 46.4031L90.2049 48.5584L90.6681 46.6128L81.6158 44.4575L81.1526 46.4031ZM80 35.0671V44.9439H82V35.0671H80ZM90.1853 31.4573L81.1526 33.6079L81.6158 35.5535L90.6485 33.4029L90.1853 31.4573ZM84.7853 24.8258L89.6546 32.7384L91.358 31.6902L86.4887 23.7776L84.7853 24.8258ZM91.9861 15.995L85.0022 22.9789L86.4164 24.3932L93.4003 17.4092L91.9861 15.995ZM101.752 20.6514L93.8329 15.7782L92.7847 17.4815L100.704 22.3548L101.752 20.6514ZM102.601 12.1526L100.449 21.1913L102.394 21.6545L104.546 12.6158L102.601 12.1526ZM116.001 39.9936C116.001 43.8596 112.867 46.9936 109.001 46.9936V48.9936C113.972 48.9936 118.001 44.9641 118.001 39.9936H116.001ZM109.001 32.9936C112.867 32.9936 116.001 36.1276 116.001 39.9936H118.001C118.001 35.023 113.972 30.9936 109.001 30.9936V32.9936ZM102.001 39.9936C102.001 36.1276 105.135 32.9936 109.001 32.9936V30.9936C104.031 30.9936 100.001 35.023 100.001 39.9936H102.001ZM109.001 46.9936C105.135 46.9936 102.001 43.8596 102.001 39.9936H100.001C100.001 44.9641 104.031 48.9936 109.001 48.9936V46.9936ZM101.728 22.436C102.061 22.2981 102.31 22.0086 102.394 21.6545L100.449 21.1913C100.514 20.9179 100.706 20.6948 100.962 20.5886L101.728 22.436ZM100.704 22.3548C101.014 22.5456 101.395 22.5742 101.728 22.436L100.962 20.5886C101.219 20.4822 101.513 20.5041 101.752 20.6514L100.704 22.3548ZM93.4003 17.4092C93.2366 17.5729 92.9819 17.6028 92.7847 17.4815L93.8329 15.7782C93.2414 15.4141 92.4773 15.5038 91.9861 15.995L93.4003 17.4092ZM86.4887 23.7776C86.61 23.9747 86.5801 24.2294 86.4164 24.3932L85.0022 22.9789C84.511 23.4701 84.4213 24.2342 84.7853 24.8258L86.4887 23.7776ZM91.4404 32.7277C91.5802 32.3904 91.5513 32.0044 91.358 31.6902L89.6546 32.7384C89.5097 32.5029 89.4884 32.2141 89.5927 31.9622L91.4404 32.7277ZM90.6485 33.4029C91.0076 33.3174 91.3008 33.0647 91.4404 32.7277L89.5927 31.9622C89.697 31.7105 89.9162 31.5213 90.1853 31.4573L90.6485 33.4029ZM82 35.0671C82 35.2986 81.841 35.4999 81.6158 35.5535L81.1526 33.6079C80.4769 33.7688 80 34.3725 80 35.0671H82ZM81.6158 44.4575C81.841 44.5111 82 44.7124 82 44.9439H80C80 45.6385 80.4769 46.2422 81.1526 46.4031L81.6158 44.4575ZM91.4465 47.2759C91.3089 46.9446 91.0206 46.6968 90.6681 46.6128L90.2049 48.5584C89.9303 48.4931 89.7063 48.3002 89.5994 48.0429L91.4465 47.2759ZM86.4163 55.6067C86.58 55.7704 86.61 56.0251 86.4886 56.2223L84.7853 55.1741C84.4213 55.7656 84.511 56.5297 85.0021 57.0209L86.4163 55.6067ZM92.7847 62.5183C92.9819 62.397 93.2366 62.4269 93.4003 62.5906L91.9861 64.0048C92.4772 64.496 93.2413 64.5857 93.8329 64.2217L92.7847 62.5183ZM101.732 57.5544C101.403 57.418 101.027 57.4465 100.72 57.6348L101.769 59.3381C101.526 59.4877 101.227 59.5101 100.966 59.402L101.732 57.5544ZM102.39 58.3262C102.307 57.9767 102.061 57.6907 101.732 57.5544L100.966 59.402C100.706 59.294 100.51 59.0672 100.444 58.7895L102.39 58.3262ZM104.06 67C104.292 67 104.493 67.159 104.546 67.3842L102.601 67.8474C102.762 68.5231 103.365 69 104.06 69V67ZM113.45 67.3842C113.504 67.159 113.705 67 113.937 67V69C114.631 69 115.235 68.5231 115.396 67.8474L113.45 67.3842ZM116.272 57.5539C115.939 57.6922 115.689 57.9825 115.604 58.3376L117.55 58.8009C117.485 59.0734 117.294 59.2957 117.038 59.4015L116.272 57.5539ZM117.3 57.6355C116.989 57.4441 116.606 57.4155 116.272 57.5539L117.038 59.4015C116.783 59.5074 116.49 59.4856 116.251 59.3388L117.3 57.6355ZM124.6 62.5791C124.764 62.4154 125.018 62.3855 125.216 62.5069L124.167 64.2102C124.759 64.5742 125.523 64.4845 126.014 63.9933L124.6 62.5791ZM131.512 56.2108C131.39 56.0136 131.42 55.7589 131.584 55.5952L132.998 57.0094C133.489 56.5182 133.579 55.7541 133.215 55.1626L131.512 56.2108ZM126.556 47.2785C126.419 47.6064 126.447 47.9816 126.635 48.2867L128.339 47.2385C128.489 47.4831 128.511 47.7834 128.403 48.0456L126.556 47.2785ZM127.339 46.6111C126.984 46.6956 126.694 46.9451 126.556 47.2783L128.403 48.0457C128.297 48.3006 128.074 48.4919 127.802 48.5568L127.339 46.6111ZM136 44.9439C136 44.7124 136.159 44.5111 136.384 44.4575L136.847 46.4031C137.523 46.2422 138 45.6385 138 44.9439H136ZM136.384 35.5535C136.159 35.4999 136 35.2986 136 35.0671H138C138 34.3725 137.523 33.7688 136.847 33.6079L136.384 35.5535ZM126.564 32.73C126.703 33.0661 126.995 33.3181 127.353 33.4033L127.816 31.4577C128.087 31.522 128.307 31.712 128.411 31.9648L126.564 32.73ZM126.646 31.6957C126.453 32.0089 126.424 32.3937 126.564 32.73L128.411 31.9648C128.516 32.2177 128.495 32.5076 128.349 32.7439L126.646 31.6957ZM131.584 24.4047C131.42 24.2409 131.39 23.9862 131.512 23.7891L133.215 24.8372C133.579 24.2457 133.489 23.4816 132.998 22.9904L131.584 24.4047ZM125.215 17.493C125.018 17.6143 124.764 17.5844 124.6 17.4207L126.014 16.0065C125.523 15.5153 124.759 15.4256 124.167 15.7897L125.215 17.493ZM116.276 22.4365C116.614 22.5768 117.001 22.548 117.316 22.3541L116.268 20.6508C116.503 20.5062 116.791 20.485 117.042 20.5892L116.276 22.4365ZM115.6 21.6431C115.685 22.0028 115.938 22.2965 116.276 22.4365L117.042 20.5892C117.293 20.6932 117.482 20.9116 117.545 21.1799L115.6 21.6431ZM104.06 11C103.365 11 102.762 11.4769 102.601 12.1526L104.546 12.6158C104.493 12.841 104.292 13 104.06 13V11ZM91.3657 48.297C91.5559 47.9879 91.5844 47.6079 91.4465 47.2759L89.5994 48.0429C89.4923 47.785 89.5143 47.4895 89.6624 47.2488L91.3657 48.297ZM113.937 13C113.705 13 113.504 12.841 113.45 12.6158L115.396 12.1526C115.235 11.4769 114.631 11 113.937 11V13Z" fill="#999DAA" mask="url(#path-4-inside-2_1489_21732)"/>
</svg>
