<svg width="82" height="24" viewBox="0 0 82 24" fill="none" xmlns="http://www.w3.org/2000/svg">
<path d="M1 13C0.447715 13 -2.49199e-08 12.5523 0 12C2.49199e-08 11.4477 0.447715 11 1 11L1 13ZM81.191 11.2929C81.5815 11.6834 81.5815 12.3166 81.191 12.7071L74.827 19.0711C74.4365 19.4616 73.8033 19.4616 73.4128 19.0711C73.0223 18.6806 73.0223 18.0474 73.4128 17.6569L79.0697 12L73.4128 6.34316C73.0223 5.95263 73.0223 5.31947 73.4128 4.92894C73.8033 4.53842 74.4365 4.53842 74.827 4.92894L81.191 11.2929ZM1 11L80.4839 11L80.4839 13L1 13L1 11Z" fill="#0F1937"/>
</svg>
