<svg xmlns="http://www.w3.org/2000/svg" fill="none" viewBox="0 0 88 80"><path fill="#999DAA" stroke="#999DAA" d="M34.5 60.5h11v15h-11z"/><path fill="#FAFAFA" fill-rule="evenodd" d="M50 53.59C58.83 49.165 65 39.252 65 29 65 15.193 53.807 4 40 4S15 15.193 15 29c0 10.252 6.17 20.165 15 24.59V71h20V53.59Z" clip-rule="evenodd"/><path fill="#999DAA" d="m50 53.59-.224-.447-.276.139v.308h.5Zm-20 0h.5v-.309l-.276-.138-.224.447ZM30 71h-.5v.5h.5V71Zm20 0v.5h.5V71H50Zm14.5-42c0 10.065-6.066 19.803-14.724 24.143l.448.894C59.224 49.526 65.5 39.44 65.5 29h-1ZM40 4.5c13.531 0 24.5 10.969 24.5 24.5h1C65.5 14.917 54.083 3.5 40 3.5v1ZM15.5 29C15.5 15.469 26.469 4.5 40 4.5v-1C25.917 3.5 14.5 14.917 14.5 29h1Zm14.724 24.143C21.566 48.803 15.5 39.065 15.5 29h-1c0 10.439 6.275 20.526 15.276 25.037l.448-.894ZM30.5 71V53.59h-1V71h1Zm19.5-.5H30v1h20v-1Zm-.5-16.91V71h1V53.59h-1ZM31 66h18v1H31zm11.5-5v.5h-1V61h1Zm-.5-9h-.5a.5.5 0 0 1 .146-.354L42 52Zm3.646-4.354a.5.5 0 0 1 .708.708l-.708-.708ZM41.5 61v-9h1v9h-1Zm.146-9.354 4-4 .708.708-4 4-.708-.708ZM37.5 61v.5h1V61h-1Zm.5-9h.5a.5.5 0 0 0-.146-.354L38 52Zm-3.646-4.354a.5.5 0 0 0-.708.708l.708-.708ZM38.5 61v-9h-1v9h1Zm-.146-9.354-4-4-.708.708 4 4 .708-.708Z"/><path stroke="#999DAA" stroke-linecap="round" d="M53.883 14.01c-7.51-7.51-19.93-7.267-27.74.543-7.811 7.81-8.055 20.23-.545 27.74"/><rect width="8" height="1" x="69" y="28" fill="#999DAA" rx=".5"/><rect width="8" height="1" x="64.867" y="13.57" fill="#999DAA" rx=".5" transform="rotate(-30 64.867 13.57)"/><rect width="8" height="1" x="65.367" y="42.57" fill="#999DAA" rx=".5" transform="rotate(30 65.367 42.57)"/><rect width="8" height="1" x="3" y="27" fill="#999DAA" rx=".5"/><rect width="8" height="1" x="7.207" y="45.703" fill="#999DAA" rx=".5" transform="rotate(-30 7.207 45.703)"/><rect width="8" height="1" x="8.707" y="8.703" fill="#999DAA" rx=".5" transform="rotate(30 8.707 8.703)"/><path fill="#999DAA" d="M31 61h18v1H31z"/></svg>