<svg width="88" height="80" viewBox="0 0 88 80" fill="none" xmlns="http://www.w3.org/2000/svg">
<mask id="path-1-inside-1_1521_21885" fill="white">
<path fill-rule="evenodd" clip-rule="evenodd" d="M68 4H8V36H32V44L40 36H68V4Z"/>
</mask>
<path d="M8 4V3H7V4H8ZM68 4H69V3H68V4ZM8 36H7V37H8V36ZM32 36H33V35H32V36ZM32 44H31V46.4142L32.7071 44.7071L32 44ZM40 36V35H39.5858L39.2929 35.2929L40 36ZM68 36V37H69V36H68ZM8 5H68V3H8V5ZM9 36V4H7V36H9ZM32 35H8V37H32V35ZM33 44V36H31V44H33ZM39.2929 35.2929L31.2929 43.2929L32.7071 44.7071L40.7071 36.7071L39.2929 35.2929ZM68 35H40V37H68V35ZM67 4V36H69V4H67Z" fill="#999DAA" mask="url(#path-1-inside-1_1521_21885)"/>
<path d="M29.5 52C29.5 56.1421 26.1421 59.5 22 59.5C17.8579 59.5 14.5 56.1421 14.5 52C14.5 47.8579 17.8579 44.5 22 44.5C26.1421 44.5 29.5 47.8579 29.5 52Z" stroke="#999DAA"/>
<path d="M73.5 52C73.5 56.1421 70.1421 59.5 66 59.5C61.8579 59.5 58.5 56.1421 58.5 52C58.5 47.8579 61.8579 44.5 66 44.5C70.1421 44.5 73.5 47.8579 73.5 52Z" stroke="#999DAA"/>
<path fill-rule="evenodd" clip-rule="evenodd" d="M41 36V38V39H42H48L55 44.25L56 45V43.75V40V39H57H83H84V38V10V9H83H77.7981H68V10H77.7981H83V38H56H55V39V43L48.6 38.2L48.3333 38H48H42V36H41Z" fill="#999DAA"/>
<path d="M4 72.5822V76H40V72.5822C40 71.5585 39.6862 70.5928 39.0587 69.6852C38.4322 68.7787 37.6042 68.0927 36.5747 67.6271C34.0666 66.4181 31.6037 65.511 29.1858 64.9059C26.768 64.302 24.3727 64 22 64C19.6273 64 17.232 64.302 14.8142 64.9059C12.3963 65.511 9.93338 66.3952 7.42527 67.5585C6.39581 68.0698 5.56783 68.7787 4.94134 69.6852C4.31378 70.5928 4 71.5585 4 72.5822Z" fill="#999DAA"/>
<path d="M48 72.5822V76H84V72.5822C84 71.5585 83.6862 70.5928 83.0587 69.6852C82.4322 68.7787 81.6042 68.0927 80.5747 67.6271C78.0666 66.4181 75.6037 65.511 73.1858 64.9059C70.768 64.302 68.3727 64 66 64C63.6273 64 61.232 64.302 58.8142 64.9059C56.3963 65.511 53.9334 66.3952 51.4253 67.5585C50.3958 68.0698 49.5678 68.7787 48.9413 69.6852C48.3138 70.5928 48 71.5585 48 72.5822Z" fill="#999DAA"/>
</svg>
