<svg xmlns="http://www.w3.org/2000/svg" width="26" height="26" fill="none">
  <path stroke="#0F1937" stroke-width="2" d="M22.77 24.38c-2.36 0-4.8-.65-7.29-1.95A28.5 28.5 0 0 1 3.6 10.55a15.62 15.62 0 0 1-1.97-7.31 1.58 1.58 0 0 1 1.6-1.61h2.76c.45 0 .83.13 1.14.39.3.26.51.62.61 1.07l.71 2.96a2.06 2.06 0 0 1-.56 1.87l-3.13 2.89a30.59 30.59 0 0 0 4.77 6.26 27.77 27.77 0 0 0 6.23 4.57l3.06-3.26c.25-.25.51-.43.8-.53.29-.1.6-.1.91-.03l2.39.52c.45.08.8.28 1.06.6.26.33.4.73.4 1.2v2.66a1.58 1.58 0 0 1-1.6 1.57Z"/>
</svg>
