<svg width="650" height="262" viewBox="0 0 650 262" fill="none" xmlns="http://www.w3.org/2000/svg">
<path d="M6.69643 1L0 2.33846M38.8393 1L0 9.47692M356.696 1L487.054 262M452.232 1L650 100.046M420.536 1L650 154.031M483.929 1L650 67.4769M515.625 1L650 45.6154M611.161 1L650 9.47692M579.464 1L650 18.4M324.928 1L324.625 262M547.768 1L650 30M643.304 1L650 2.33846M70.5357 1L0 18.4M102.232 1L0 30M229.464 1L0 154.031M133.929 1L0 45.6154M166.071 1L0 67.0308M197.768 1L0 99.6M293.304 1L162.5 262M261.161 1L0 262H649.107L388.393 1M650 1H0M650 39.1462H0M650 15.7231H0M650 20.4077H0M650 25.9846H0M650 7.46923H0M650 11.2615H0M650 193.738H0M650 47.4H0M650 32.0077H0M650 4.12308H0M650 57.2154H0M650 68.8154H0M650 152.692H0M650 83.0923H0M650 100.938H0M650 123.246H0" stroke="url(#paint0_linear_1213_9092)" stroke-linecap="round" stroke-linejoin="round"/>
<defs>
<linearGradient id="paint0_linear_1213_9092" x1="325" y1="131.723" x2="325" y2="0.999998" gradientUnits="userSpaceOnUse">
<stop offset="0.65625" stop-color="#D0D0D0"/>
<stop offset="1" stop-color="#D0D0D0" stop-opacity="0"/>
</linearGradient>
</defs>
</svg>
