<svg width="40" height="40" viewBox="0 0 40 40" fill="none" xmlns="http://www.w3.org/2000/svg">
<rect x="15.8398" y="14.0806" width="8.32001" height="9.51975" fill="#F0F2F4"/>
<path d="M5.88241 10.0323C5.83674 9.98896 5.80004 9.93704 5.77441 9.87952L5.80881 9.85712L5.88241 10.0323Z" fill="#0F1937"/>
<path d="M8.23549 22.6423L8.19629 22.6599V22.6535L8.23549 22.6423Z" fill="#0F1937"/>
<path d="M22.2355 10.5734L22.2467 10.5846C22.1963 10.6257 22.1363 10.6533 22.0723 10.6646L22.2355 10.5734Z" fill="#0F1937"/>
<path d="M22.5915 10.3927C22.5435 10.4055 22.494 10.4114 22.4443 10.4103L22.5859 10.3815L22.5915 10.3927Z" fill="#0F1937"/>
<path d="M17.8775 22.4222L17.8151 22.727L17.7191 23.359L17.6687 24.1382V24.9678L17.6119 25.7133L17.4991 26.4077V26.4133L17.3391 27.0533L17.1863 27.4821L17.1015 27.5621L17.0959 27.6917L16.9263 28.0309L16.6503 28.4997L16.3223 28.906L15.9447 29.2724L15.7151 29.4404H15.6703L15.5407 29.57L15.2751 29.7172H15.1679L15.0775 29.8132L14.8239 29.9204L14.3607 30.05L13.9991 30.1124C10.6232 30.4626 7.28402 31.105 4.01912 32.0324C1.41542 28.5723 0.00506278 24.3608 1.36046e-05 20.0306C-0.00503557 15.7004 1.3955 11.4855 3.99112 8.01941L4.18873 8.11541L4.56073 8.3554L4.56633 8.361L4.57833 8.3722L4.58953 8.3778L4.89993 8.64099L5.23833 9.00818L5.50953 9.38577L5.74953 9.82656L5.75513 9.83216L5.94153 10.3009C5.92993 10.2551 5.9227 10.2082 5.91993 10.161L6.07993 10.8329C6.07224 10.7958 6.06822 10.758 6.06793 10.7201L6.09673 10.8889C6.09113 10.8833 6.09113 10.8721 6.08553 10.8665L6.18153 11.4817L6.22073 12.0801L6.20393 12.7353C6.19833 12.7689 6.19833 12.7969 6.19273 12.8153L6.11913 13.5265L5.97833 14.2712L5.96633 14.3672V14.3392L5.88233 15.0592L5.85353 15.748L5.86473 16.4304L5.91033 17.2304L6.00073 18.1167L6.12473 19.0087L6.31993 20.0287L6.52873 20.9543L6.79993 22.0214L7.42073 24.0086L7.81593 25.0814L8.63993 27.0565L9.10313 27.4125L10.1583 27.5645H10.1639L10.2439 27.5701L11.5535 27.7341L14.0375 27.9653L14.5735 27.7253L15.7983 25.9813L16.3911 25.0606L16.9727 24.107L17.4863 23.1758L17.8775 22.4222Z" fill="#0F1937"/>
<path d="M32.3454 30.7593L32.4582 30.6857L32.2158 30.9057L32.3454 30.7593Z" fill="#0F1937"/>
<path d="M35.1515 33.0514C33.2738 35.2325 30.9472 36.9825 28.3309 38.1817C25.7146 39.381 22.8702 40.0013 19.9921 40.0002C17.1141 39.9992 14.2701 39.3768 11.6547 38.1756C9.0393 36.9744 6.71405 35.2227 4.83789 33.0402C7.866 32.2103 10.9572 31.6308 14.0803 31.3075L14.4803 31.2563L14.5707 31.2395L15.0051 31.1211L15.5419 30.9179H15.6883L15.8003 30.8003L16.0939 30.6403L16.1955 30.6347L16.3371 30.4819L16.7091 30.1995C16.7561 30.1641 16.7997 30.1244 16.8395 30.0811L17.1043 29.8163L17.5219 29.3195C17.5701 29.2716 17.612 29.2179 17.6467 29.1595L17.9283 28.7195L18.1939 28.1715L18.2955 28.0643V27.9348L18.4707 27.4492L18.6627 26.71L18.7923 25.9308C18.8026 25.8781 18.8082 25.8245 18.8091 25.7708L18.8659 25.0372V24.1781L18.9107 23.5117L18.9843 22.9981L19.3043 21.5813L19.4963 20.9261L19.5699 20.8461V20.6941L19.8011 20.0054L19.8859 19.9206V19.7798L20.1339 19.1358L20.9603 17.3078L21.3947 16.4559L21.5075 16.3431V16.2295L21.8915 15.5471L22.0099 15.4223L22.0155 15.3263L22.4955 14.5263L23.0883 13.5943L23.4323 13.0807L25.5659 13.2007L27.6379 13.3927L28.3491 14.9231L28.7667 15.9671L29.1115 16.8806L29.1171 17.027L29.1899 17.1006L29.4387 17.8462V18.0062L29.5067 18.0798L29.7323 18.8414L29.7435 19.0222L29.8059 19.079L30.1891 20.6789L30.1947 20.8765L30.2347 20.9213L30.3475 21.5309L30.3531 21.7509L30.3867 21.7853L30.5467 23.1509L30.5803 23.8117V24.4004L30.5355 24.9476L30.4059 25.8228L30.3419 26.7204L30.3475 27.454C30.3449 27.4808 30.3468 27.5078 30.3531 27.534L30.4155 28.2059L30.5451 28.8827C30.5507 28.9059 30.5507 28.9227 30.5563 28.9395L30.7315 29.5043L31.0307 30.2099L31.0475 30.2435C31.0537 30.2572 31.0612 30.2704 31.0699 30.2827L31.0867 30.3171C31.0979 30.3283 31.1035 30.3395 31.1155 30.3507L31.3243 30.7179L31.6683 31.1803L32.0915 31.6323L32.5659 32.0322L33.1587 32.3986L33.6667 32.625C33.7201 32.6474 33.7749 32.6661 33.8307 32.681L34.0843 32.7658L34.1803 32.805H34.2403C34.5475 32.8874 34.8467 32.9666 35.1515 33.0514Z" fill="#0F1937"/>
<path d="M40.0002 20.0004C40.0061 24.3461 38.5907 28.5745 35.9698 32.0409C35.4898 31.8993 35.0042 31.7641 34.513 31.6409L33.7794 31.3697L33.3794 31.1385L32.6594 30.4985L32.377 30.1321L32.137 29.7257L31.9338 29.2905L31.9282 29.1385L31.8482 29.065L31.7466 28.7322V28.5682L31.6954 28.5122L31.6154 28.1226L31.5474 27.4906C31.5488 27.477 31.5469 27.4633 31.5418 27.4506L31.5362 26.745L31.581 26.085V26.0562L31.5866 26.0338V26.0002L31.6994 25.2659L31.773 24.4531V23.7763L31.7394 23.0931L31.6594 22.2691L31.3826 20.5356L31.1682 19.5596L30.9202 18.5996L30.6402 17.6749V17.5149L30.5666 17.4421L30.2842 16.5837L29.477 14.5237L28.9922 13.4246L28.4322 12.267L25.621 12.007L22.8266 11.847L21.4666 13.9126L20.9314 14.8005L20.813 14.9309V15.0149L19.8762 16.7877L19.8594 16.8157L19.8986 16.6237L19.9042 16.5565H19.9098L19.9722 15.9469L20.0002 15.1205C20.0058 15.0869 20.0058 15.0589 20.0114 15.0405L20.085 14.3293L20.2146 13.6742L20.3842 13.0926C20.3786 13.1038 20.373 13.1094 20.373 13.115L20.3898 13.035H20.3954L20.4178 12.899C20.4189 12.9412 20.4132 12.9833 20.401 13.0238L20.6098 12.5038L20.8866 11.9846L21.169 11.5726L21.5018 11.183L21.8634 10.8502C21.8371 10.8719 21.8087 10.891 21.7786 10.907L21.9082 10.811C21.8966 10.8255 21.8834 10.8386 21.869 10.8502L22.213 10.619L22.2466 10.5846L22.2578 10.579L22.2642 10.5734L22.281 10.5622L22.6306 10.3815L22.6418 10.3759L23.065 10.2159L23.545 10.1031L23.8786 10.0687C27.9739 9.79789 32.029 9.09288 35.9754 7.96552C38.592 11.4317 40.0052 15.6575 40.0002 20.0004Z" fill="#0F1937"/>
<path d="M34.5132 31.6402L33.7796 31.369L33.3796 31.1379L32.6596 30.4979L32.3772 30.1315L32.1372 29.7251L31.934 29.2899L31.9284 29.1379L31.8484 29.0643L31.7468 28.7315V28.5675L31.6956 28.5115L31.6156 28.1219L31.5476 27.4899C31.549 27.4764 31.547 27.4626 31.542 27.45L31.5364 26.7444L31.5812 26.0844V26.0556L31.5868 26.0332V26.0004L31.6996 25.266L31.7732 24.4532V23.7764L31.7396 23.0933L31.6596 22.2693L31.3828 20.5357L31.1684 19.5598L30.9204 18.5998L30.6404 17.675V17.515L30.5668 17.4422L30.2844 16.5838L29.4772 14.5239L28.9924 13.4247L28.4324 12.2672L25.6212 12.0072L22.8268 11.8472L21.4668 13.9127L20.9316 14.8007L20.8132 14.9311V15.0151L19.8764 16.7878L19.8596 16.8158V16.827L19.7692 17.307L19.5996 18.027L19.3852 18.7614L19.0804 19.6566L18.77 20.4749L18.3804 21.3781L17.9684 22.2469L17.878 22.4221L17.8156 22.7269L17.7196 23.3589L17.6692 24.138V24.9676L17.6124 25.7132L17.4996 26.4076V26.4132L17.3396 27.0532L17.1868 27.4819L17.102 27.5619L17.0964 27.6915L16.9268 28.0307L16.6508 28.4995L16.3228 28.9059L15.9451 29.2723L15.7155 29.4403H15.6707L15.5411 29.5699L15.2755 29.7171H15.1683L15.0779 29.8131L14.8243 29.9203L14.3611 30.0499L13.9995 30.1123C10.6236 30.4625 7.28443 31.1049 4.01953 32.0322C4.28513 32.3762 4.55553 32.7154 4.83793 33.0426C7.86597 32.2119 10.9572 31.6315 14.0803 31.3074L14.4803 31.2563L14.5707 31.2394L15.0051 31.1211L15.5419 30.9179H15.6883L15.8003 30.8003L16.0939 30.6403L16.1955 30.6347L16.3372 30.4819L16.7092 30.1995C16.7561 30.1641 16.7998 30.1244 16.8396 30.0811L17.1044 29.8163L17.522 29.3195C17.5701 29.2716 17.612 29.2179 17.6468 29.1595L17.9284 28.7195L18.194 28.1715L18.2956 28.0643V27.9347L18.4708 27.4491L18.6628 26.71L18.7924 25.9308C18.8027 25.8781 18.8083 25.8245 18.8092 25.7708L18.866 25.0372V24.178L18.9108 23.5117L18.9844 22.9981L19.3044 21.5813L19.4964 20.9261L19.57 20.8461V20.6941L19.8012 20.0053L19.886 19.9206V19.7798L20.134 19.1358L20.9604 17.3078L21.3948 16.4558L21.5076 16.343V16.2295L21.8916 15.5471L22.01 15.4223L22.0156 15.3263L22.4956 14.5263L23.0884 13.5943L23.4324 13.0807L25.566 13.2007L27.638 13.3927L28.3492 14.9231L28.7668 15.9671L29.1116 16.8806L29.1172 17.027L29.19 17.1006L29.4388 17.8462V18.0062L29.5068 18.0798L29.7324 18.8414L29.7436 19.0222L29.806 19.079L30.1892 20.6789L30.1948 20.8765L30.2348 20.9213L30.3476 21.5309L30.3532 21.7509L30.3868 21.7853L30.5468 23.1509L30.5804 23.8116V24.4004L30.5356 24.9476L30.406 25.8228L30.342 26.7204L30.3476 27.454C30.3449 27.4807 30.3468 27.5078 30.3532 27.5339L30.4156 28.2059L30.5452 28.8827C30.5508 28.9059 30.5508 28.9227 30.5564 28.9395L30.7316 29.5043L31.0308 30.2099L31.0476 30.2435C31.0538 30.2572 31.0613 30.2703 31.07 30.2827L31.0868 30.3171C31.098 30.3283 31.1036 30.3395 31.1156 30.3507L31.3244 30.7179L31.6684 31.1803L32.0916 31.6322L32.566 32.0322L33.1588 32.3986L33.6668 32.625C33.7201 32.6474 33.7749 32.6661 33.8308 32.681L34.0844 32.7658L34.1804 32.805H34.2404C34.5452 32.885 34.8444 32.965 35.1492 33.045C35.4316 32.7178 35.702 32.3786 35.9676 32.0346C35.49 31.8994 35.0044 31.7642 34.5132 31.6402ZM32.2164 30.9067L32.346 30.7595L32.4588 30.6859L32.2164 30.9067Z" fill="#F0F2F4"/>
<path d="M35.1507 6.94922C31.4423 7.9766 27.6385 8.62154 23.7987 8.87397L23.3867 8.91397V8.93077L23.2907 8.94756L23.2851 8.93077L22.8331 9.04036C22.7962 9.04452 22.7601 9.05395 22.7259 9.06836L22.2347 9.25476L21.6931 9.52035L21.6531 9.54835C21.5947 9.57581 21.5407 9.61195 21.4931 9.65555L21.2619 9.81554C21.2053 9.84248 21.1537 9.87871 21.1091 9.92274L20.7307 10.2555C20.6721 10.2979 20.6207 10.3495 20.5787 10.4083L20.2739 10.7635C20.2266 10.8106 20.1867 10.8645 20.1555 10.9235L19.8787 11.3235L19.8331 11.4251L19.8219 11.4195L19.5627 11.9043L19.5459 11.9779L19.5283 11.9723C19.5105 12.0036 19.4991 12.0381 19.4947 12.0739L19.2971 12.5483C19.2722 12.6026 19.2532 12.6595 19.2403 12.7179L19.0715 13.293L19.0827 13.2986L19.0603 13.4058H19.0435L18.9075 14.1002L18.8963 14.185L18.8907 14.1794L18.8107 14.9418L18.7747 15.8402L18.7179 16.4098H18.7123L18.5995 17.0305L18.4587 17.6521L18.4531 17.6857H18.4475L18.2323 18.4137L17.9675 19.2041H17.9731L17.3011 20.8464L16.8891 21.7216L16.4259 22.6136L15.9291 23.5112L15.3875 24.4088L14.7947 25.3287L14.1547 26.2487L14.1771 26.2655L14.1715 26.2767L14.1491 26.2599L13.7987 26.7399L13.0083 26.6719L10.3891 26.3783H10.3275L9.60749 26.2711L8.95229 24.6911L8.56829 23.6352H8.55949L8.23949 22.64L8.20029 22.6568V22.6512L8.23949 22.64L7.95309 21.68L7.69949 20.7088L7.49069 19.7601L7.32109 18.8457L7.28669 18.8513V18.8393H7.31549L7.19949 18.0801L7.10909 17.1937L7.06349 16.4202L7.05229 15.749L7.08029 15.1338L7.15389 14.5242H7.15149L7.15709 14.501L7.29869 13.7506L7.30989 13.6658L7.31549 13.6714L7.40029 12.8979L7.42269 12.0979C7.42381 12.0445 7.42194 11.9911 7.41709 11.9379L7.38269 11.4467C7.3851 11.3843 7.38135 11.3219 7.37149 11.2603L7.27949 10.6803C7.27486 10.6284 7.26357 10.5773 7.24589 10.5283L7.11069 10.0483H7.10509L7.09389 9.97474L7.08749 9.98034L6.87869 9.42035L6.85629 9.42595L6.81309 9.28036L6.55949 8.81237L6.54829 8.78917L6.51469 8.73877L6.18188 8.26438C6.15415 8.23021 6.12394 8.19812 6.09148 8.16839L5.82588 7.87479C5.78355 7.81616 5.73194 7.76483 5.67308 7.7228L5.36748 7.4628C5.31819 7.41815 5.2646 7.37849 5.20748 7.34441L4.77868 7.06762L4.74988 7.06202C4.48508 7.37241 4.23068 7.6884 3.98828 8.01639L4.18588 8.11239L4.55788 8.35238L4.56348 8.35798L4.57548 8.36918L4.58668 8.37478L4.89948 8.64037L5.23788 9.00756L5.50908 9.38515L5.74908 9.82594L5.75468 9.83154L5.94108 10.3003C5.92949 10.2544 5.92226 10.2076 5.91948 10.1603L6.07948 10.8323C6.0718 10.7952 6.06778 10.7574 6.06748 10.7195L6.09628 10.8883C6.09068 10.8827 6.09068 10.8715 6.08508 10.8659L6.18108 11.4811L6.22028 12.0795L6.20349 12.7347C6.19788 12.7683 6.19789 12.7963 6.19228 12.8147L6.11868 13.5258L5.97788 14.2706L5.96588 14.3666V14.3386L5.88188 15.0586L5.85308 15.7474L5.86428 16.4298L5.90988 17.2297L6.00028 18.1161L6.12428 19.0081L6.31948 20.0281L6.52829 20.9536L6.79949 22.0208L7.42029 24.008L7.81549 25.0807L8.63949 27.0559L9.10269 27.4119L10.1579 27.5639H10.1635L10.2435 27.5695L11.5531 27.7335L14.0371 27.9647L14.5731 27.7247L15.7979 25.9807L16.3907 25.0599L16.9723 24.1064L17.4859 23.1752L17.8755 22.424L17.9491 22.0632L18.1595 21.2192L18.6843 19.5713V19.4241L18.7747 19.3337L19.0459 18.6225L19.4579 17.6745L19.8579 16.8274V16.8162L19.8971 16.6242L19.9027 16.557H19.9083L19.9707 15.9474L19.9995 15.1202C20.0051 15.0866 20.0051 15.0586 20.0107 15.0402L20.0843 14.329L20.2139 13.6738L20.3835 13.0923C20.3779 13.1035 20.3723 13.1091 20.3723 13.1147L20.3891 13.0347H20.3947L20.4171 12.8987C20.4182 12.9409 20.4125 12.983 20.4003 13.0235L20.6091 12.5035L20.8859 11.9843L21.1683 11.5723L21.5011 11.1827L21.8627 10.8499C21.8364 10.8716 21.808 10.8906 21.7779 10.9067L21.9075 10.8107C21.8959 10.8252 21.8827 10.8383 21.8683 10.8499L22.2123 10.6187L22.2459 10.5843C22.1956 10.6254 22.1355 10.653 22.0715 10.6643L22.2315 10.5739L22.2427 10.5851L22.2539 10.5795L22.2603 10.5739L22.2771 10.5627L22.6267 10.3819L22.6379 10.3763L23.0611 10.2163L23.5411 10.1035L23.8747 10.0691C27.9712 9.79833 32.0273 9.09305 35.9747 7.96519C35.7091 7.6156 35.4331 7.28041 35.1507 6.94922ZM5.77388 9.87874L5.80828 9.85634L5.88188 10.0315C5.83621 9.98818 5.79951 9.93626 5.77388 9.87874ZM22.4435 10.4099L22.5851 10.3811L22.5907 10.3923C22.5427 10.4051 22.4932 10.411 22.4435 10.4099Z" fill="#F0F2F4"/>
<path d="M35.4008 6.94948C31.6925 7.97686 27.8886 8.6218 24.0488 8.87423L23.6368 8.91422V8.93102L23.5408 8.94782L23.5352 8.93102L23.0832 9.04062C23.0463 9.04478 23.0102 9.05421 22.976 9.06862L22.4848 9.25502L21.9432 9.52061L21.9032 9.54861C21.8448 9.57607 21.7908 9.61221 21.7432 9.6558L21.512 9.8158C21.4555 9.84273 21.4038 9.87897 21.3592 9.923L20.9808 10.2558C20.9222 10.2981 20.8709 10.3497 20.8288 10.4086L20.524 10.7638C20.4767 10.8109 20.4368 10.8648 20.4056 10.9238L20.1288 11.3238L20.0832 11.4254L20.072 11.4198L19.8128 11.9045L19.796 11.9781L19.7784 11.9725C19.7606 12.0039 19.7492 12.0384 19.7448 12.0741L19.5472 12.5485C19.5223 12.6029 19.5033 12.6597 19.4904 12.7181L19.3216 13.2933L19.3328 13.2989L19.3104 13.4061H19.2936L19.1576 14.1005L19.1464 14.1853L19.1408 14.1797L19.0608 14.9421L19.0248 15.8404L18.968 16.41H18.9624L18.8496 17.0308L18.7088 17.6524L18.7032 17.686H18.6976L18.4824 18.414L18.2176 19.2043H18.2232L17.5512 20.8467L17.1392 21.7219L16.676 22.6139L16.1792 23.5114L15.6376 24.409L15.0448 25.329L14.4048 26.249L14.4272 26.2658L14.4216 26.277L14.3992 26.2602L14.0488 26.7401L13.2584 26.6721L10.6392 26.3786H10.5776L9.85761 26.2714L9.20241 24.6914L8.81841 23.6354H8.80961L8.4896 22.6403L8.2032 21.6803L7.9496 20.7091L7.7408 19.7603L7.5712 18.846L7.5368 18.8516V18.8396H7.5656L7.4496 18.0804L7.3592 17.194L7.3136 16.4204L7.3024 15.7492L7.3304 15.1341L7.404 14.5245H7.4016L7.4072 14.5013L7.5488 13.7509L7.56 13.6661L7.5656 13.6717L7.6504 12.8981L7.6728 12.0981C7.67393 12.0447 7.67206 11.9913 7.6672 11.9381L7.6328 11.447C7.63521 11.3846 7.63146 11.3222 7.6216 11.2606L7.5296 10.6806C7.52498 10.6287 7.51369 10.5776 7.496 10.5286L7.3608 10.0486H7.3552L7.344 9.975L7.3376 9.9806L7.1288 9.42061L7.1064 9.42621L7.0632 9.28061L6.8096 8.81263L6.7984 8.78943L6.7648 8.73903L6.432 8.26464C6.40427 8.23046 6.37405 8.19838 6.3416 8.16864L6.076 7.87505C6.03366 7.81642 5.98205 7.76508 5.9232 7.72306L5.6176 7.46306C5.56831 7.41841 5.51472 7.37875 5.4576 7.34467L5.0288 7.06787L5 7.06227C6.86867 4.85856 9.19283 3.08607 11.8124 1.86691C14.4319 0.647737 17.2847 0.0108584 20.174 0.000137638C23.0634 -0.0105831 25.9208 0.605108 28.5493 1.8048C31.1778 3.0045 33.5159 4.75969 35.4008 6.94948Z" fill="#0F1937"/>
</svg>
