<svg width="15" height="17" viewBox="0 0 15 17" fill="none" xmlns="http://www.w3.org/2000/svg">
<path d="M2.8 16.875C2.3 16.875 1.875 16.7 1.525 16.35C1.175 16 1 15.575 1 15.075V2.375H0V0.875H4.5V0H10.5V0.875H15V2.375H14V15.075C14 15.575 13.825 16 13.475 16.35C13.125 16.7 12.7 16.875 12.2 16.875H2.8ZM12.5 2.375H2.5V15.075C2.5 15.1417 2.53333 15.2083 2.6 15.275C2.66667 15.3417 2.73333 15.375 2.8 15.375H12.2C12.2667 15.375 12.3333 15.3417 12.4 15.275C12.4667 15.2083 12.5 15.1417 12.5 15.075V2.375ZM4.9 13.375H6.4V4.375H4.9V13.375ZM8.6 13.375H10.1V4.375H8.6V13.375ZM2.5 2.375V15.075C2.5 15.1583 2.5 15.2293 2.5 15.288C2.5 15.346 2.5 15.375 2.5 15.375C2.5 15.375 2.5 15.346 2.5 15.288C2.5 15.2293 2.5 15.1583 2.5 15.075V2.375Z" fill="black"/>
</svg>
