<svg width="40" height="40" viewBox="0 0 40 40" fill="none" xmlns="http://www.w3.org/2000/svg">
<rect x="15.8398" y="14.0801" width="8.32001" height="9.51975" fill="#F0F2F4"/>
<path d="M5.88241 10.0307C5.83674 9.98731 5.80004 9.93539 5.77441 9.87787L5.80881 9.85547L5.88241 10.0307Z" fill="#CDCFD1"/>
<path d="M8.23549 22.6406L8.19629 22.6582V22.6518L8.23549 22.6406Z" fill="#CDCFD1"/>
<path d="M22.2355 10.5742L22.2467 10.5854C22.1963 10.6265 22.1363 10.6541 22.0723 10.6654L22.2355 10.5742Z" fill="#CDCFD1"/>
<path d="M22.5915 10.3921C22.5435 10.4048 22.494 10.4108 22.4443 10.4097L22.5859 10.3809L22.5915 10.3921Z" fill="#CDCFD1"/>
<path d="M17.8775 22.4223L17.8151 22.7271L17.7191 23.3591L17.6687 24.1383V24.9679L17.6119 25.7135L17.4991 26.4078V26.4134L17.3391 27.0534L17.1863 27.4822L17.1015 27.5622L17.0959 27.6918L16.9263 28.031L16.6503 28.4998L16.3223 28.9062L15.9447 29.2726L15.7151 29.4406H15.6703L15.5407 29.5702L15.2751 29.7174H15.1679L15.0775 29.8133L14.8239 29.9205L14.3607 30.0501L13.9991 30.1125C10.6232 30.4627 7.28402 31.1051 4.01912 32.0325C1.41542 28.5725 0.00506278 24.3609 1.36046e-05 20.0307C-0.00503557 15.7005 1.3955 11.4856 3.99112 8.01953L4.18873 8.11553L4.56073 8.35552L4.56633 8.36112L4.57833 8.37232L4.58953 8.37792L4.89993 8.64111L5.23833 9.0083L5.50953 9.38589L5.74953 9.82668L5.75513 9.83228L5.94153 10.3011C5.92993 10.2552 5.9227 10.2083 5.91993 10.1611L6.07993 10.8331C6.07224 10.7959 6.06822 10.7582 6.06793 10.7203L6.09673 10.8891C6.09113 10.8835 6.09113 10.8723 6.08553 10.8667L6.18153 11.4818L6.22073 12.0802L6.20393 12.7354C6.19833 12.769 6.19833 12.797 6.19273 12.8154L6.11913 13.5266L5.97833 14.2714L5.96633 14.3674V14.3394L5.88233 15.0593L5.85353 15.7481L5.86473 16.4305L5.91033 17.2305L6.00073 18.1169L6.12473 19.0088L6.31993 20.0288L6.52873 20.9544L6.79993 22.0216L7.42073 24.0087L7.81593 25.0815L8.63993 27.0566L9.10313 27.4126L10.1583 27.5646H10.1639L10.2439 27.5702L11.5535 27.7342L14.0375 27.9654L14.5735 27.7254L15.7983 25.9815L16.3911 25.0607L16.9727 24.1071L17.4863 23.1759L17.8775 22.4223Z" fill="#CDCFD1"/>
<path d="M32.3454 30.7572L32.4582 30.6836L32.2158 30.9036L32.3454 30.7572Z" fill="#CDCFD1"/>
<path d="M35.1515 33.0507C33.2738 35.2318 30.9472 36.9818 28.3309 38.1811C25.7146 39.3803 22.8702 40.0006 19.9921 39.9996C17.1141 39.9985 14.2701 39.3761 11.6547 38.1749C9.0393 36.9737 6.71405 35.222 4.83789 33.0395C7.866 32.2096 10.9572 31.6301 14.0803 31.3068L14.4803 31.2556L14.5707 31.2388L15.0051 31.1204L15.5419 30.9172H15.6883L15.8003 30.7996L16.0939 30.6396L16.1955 30.634L16.3371 30.4812L16.7091 30.1988C16.7561 30.1634 16.7997 30.1238 16.8395 30.0804L17.1043 29.8156L17.5219 29.3188C17.5701 29.271 17.612 29.2172 17.6467 29.1588L17.9283 28.7189L18.1939 28.1709L18.2955 28.0637V27.9341L18.4707 27.4485L18.6627 26.7093L18.7923 25.9301C18.8026 25.8774 18.8082 25.8239 18.8091 25.7701L18.8659 25.0366V24.1774L18.9107 23.511L18.9843 22.9974L19.3043 21.5807L19.4963 20.9255L19.5699 20.8455V20.6935L19.8011 20.0047L19.8859 19.9199V19.7791L20.1339 19.1351L20.9603 17.3072L21.3947 16.4552L21.5075 16.3424V16.2288L21.8915 15.5464L22.0099 15.4216L22.0155 15.3256L22.4955 14.5256L23.0883 13.5937L23.4323 13.0801L25.5659 13.2001L27.6379 13.3921L28.3491 14.9224L28.7667 15.9664L29.1115 16.88L29.1171 17.0264L29.1899 17.1L29.4387 17.8456V18.0055L29.5067 18.0791L29.7323 18.8407L29.7435 19.0215L29.8059 19.0783L30.1891 20.6783L30.1947 20.8759L30.2347 20.9207L30.3475 21.5303L30.3531 21.7502L30.3867 21.7846L30.5467 23.1502L30.5803 23.811V24.3998L30.5355 24.947L30.4059 25.8221L30.3419 26.7197L30.3475 27.4533C30.3449 27.4801 30.3468 27.5071 30.3531 27.5333L30.4155 28.2053L30.5451 28.8821C30.5507 28.9053 30.5507 28.9221 30.5563 28.9389L30.7315 29.5036L31.0307 30.2092L31.0475 30.2428C31.0537 30.2566 31.0612 30.2697 31.0699 30.282L31.0867 30.3164C31.0979 30.3276 31.1035 30.3388 31.1155 30.35L31.3243 30.7172L31.6683 31.1796L32.0915 31.6316L32.5659 32.0316L33.1587 32.398L33.6667 32.6244C33.7201 32.6467 33.7749 32.6654 33.8307 32.6804L34.0843 32.7652L34.1803 32.8043H34.2403C34.5475 32.8867 34.8467 32.9659 35.1515 33.0507Z" fill="#CDCFD1"/>
<path d="M40.0002 19.9997C40.0061 24.3454 38.5907 28.5738 35.9698 32.0402C35.4898 31.8986 35.0042 31.7634 34.513 31.6402L33.7794 31.369L33.3794 31.1378L32.6594 30.4978L32.377 30.1315L32.137 29.7251L31.9338 29.2899L31.9282 29.1379L31.8482 29.0643L31.7466 28.7315V28.5675L31.6954 28.5115L31.6154 28.1219L31.5474 27.4899C31.5488 27.4763 31.5469 27.4626 31.5418 27.4499L31.5362 26.7443L31.581 26.0844V26.0556L31.5866 26.0332V25.9996L31.6994 25.2652L31.773 24.4524V23.7756L31.7394 23.0924L31.6594 22.2685L31.3826 20.5349L31.1682 19.5589L30.9202 18.599L30.6402 17.6742V17.5142L30.5666 17.4414L30.2842 16.583L29.477 14.5231L28.9922 13.4239L28.4322 12.2663L25.621 12.0063L22.8266 11.8463L21.4666 13.9119L20.9314 14.7999L20.813 14.9303V15.0143L19.8762 16.787L19.8594 16.815L19.8986 16.623L19.9042 16.5558H19.9098L19.9722 15.9462L20.0002 15.1199C20.0058 15.0863 20.0058 15.0583 20.0114 15.0399L20.085 14.3287L20.2146 13.6735L20.3842 13.0919C20.3786 13.1031 20.373 13.1087 20.373 13.1143L20.3898 13.0343H20.3954L20.4178 12.8983C20.4189 12.9405 20.4132 12.9827 20.401 13.0231L20.6098 12.5031L20.8866 11.9839L21.169 11.5719L21.5018 11.1824L21.8634 10.8496C21.8371 10.8713 21.8087 10.8903 21.7786 10.9064L21.9082 10.8104C21.8966 10.8248 21.8834 10.8379 21.869 10.8496L22.213 10.6184L22.2466 10.584L22.2578 10.5784L22.2642 10.5728L22.281 10.5616L22.6306 10.3808L22.6418 10.3752L23.065 10.2152L23.545 10.1024L23.8786 10.068C27.9739 9.79721 32.029 9.09221 35.9754 7.96484C38.592 11.4311 40.0052 15.6568 40.0002 19.9997Z" fill="#CDCFD1"/>
<path d="M34.5132 31.6407L33.7796 31.3695L33.3796 31.1383L32.6596 30.4984L32.3772 30.132L32.1372 29.7256L31.934 29.2904L31.9284 29.1384L31.8484 29.0648L31.7468 28.732V28.568L31.6956 28.512L31.6156 28.1224L31.5476 27.4904C31.549 27.4768 31.547 27.4631 31.542 27.4504L31.5364 26.7449L31.5812 26.0849V26.0561L31.5868 26.0337V26.0009L31.6996 25.2665L31.7732 24.4537V23.7769L31.7396 23.0938L31.6596 22.2698L31.3828 20.5362L31.1684 19.5603L30.9204 18.6003L30.6404 17.6755V17.5155L30.5668 17.4427L30.2844 16.5843L29.4772 14.5244L28.9924 13.4252L28.4324 12.2676L25.6212 12.0077L22.8268 11.8477L21.4668 13.9132L20.9316 14.8012L20.8132 14.9316V15.0156L19.8764 16.7883L19.8596 16.8163V16.8275L19.7692 17.3075L19.5996 18.0275L19.3852 18.7619L19.0804 19.657L18.77 20.4754L18.3804 21.3786L17.9684 22.2474L17.878 22.4226L17.8156 22.7274L17.7196 23.3593L17.6692 24.1385V24.9681L17.6124 25.7137L17.4996 26.4081V26.4137L17.3396 27.0536L17.1868 27.4824L17.102 27.5624L17.0964 27.692L16.9268 28.0312L16.6508 28.5L16.3228 28.9064L15.9451 29.2728L15.7155 29.4408H15.6707L15.5411 29.5704L15.2755 29.7176H15.1683L15.0779 29.8136L14.8243 29.9208L14.3611 30.0504L13.9995 30.1128C10.6236 30.463 7.28443 31.1054 4.01953 32.0327C4.28513 32.3767 4.55553 32.7159 4.83793 33.0431C7.86597 32.2124 10.9572 31.632 14.0803 31.3079L14.4803 31.2567L14.5707 31.2399L15.0051 31.1215L15.5419 30.9183H15.6883L15.8003 30.8007L16.0939 30.6408L16.1955 30.6352L16.3372 30.4824L16.7092 30.2C16.7561 30.1645 16.7998 30.1249 16.8396 30.0816L17.1044 29.8168L17.522 29.32C17.5701 29.2721 17.612 29.2184 17.6468 29.16L17.9284 28.72L18.194 28.172L18.2956 28.0648V27.9352L18.4708 27.4496L18.6628 26.7105L18.7924 25.9313C18.8027 25.8785 18.8083 25.825 18.8092 25.7713L18.866 25.0377V24.1785L18.9108 23.5121L18.9844 22.9986L19.3044 21.5818L19.4964 20.9266L19.57 20.8466V20.6946L19.8012 20.0058L19.886 19.921V19.7802L20.134 19.1363L20.9604 17.3083L21.3948 16.4563L21.5076 16.3435V16.2299L21.8916 15.5476L22.01 15.4228L22.0156 15.3268L22.4956 14.5268L23.0884 13.5948L23.4324 13.0812L25.566 13.2012L27.638 13.3932L28.3492 14.9236L28.7668 15.9675L29.1116 16.8811L29.1172 17.0275L29.19 17.1011L29.4388 17.8467V18.0067L29.5068 18.0803L29.7324 18.8419L29.7436 19.0227L29.806 19.0795L30.1892 20.6794L30.1948 20.877L30.2348 20.9218L30.3476 21.5314L30.3532 21.7514L30.3868 21.7858L30.5468 23.1514L30.5804 23.8121V24.4009L30.5356 24.9481L30.406 25.8233L30.342 26.7209L30.3476 27.4544C30.3449 27.4812 30.3468 27.5083 30.3532 27.5344L30.4156 28.2064L30.5452 28.8832C30.5508 28.9064 30.5508 28.9232 30.5564 28.94L30.7316 29.5048L31.0308 30.2104L31.0476 30.244C31.0538 30.2577 31.0613 30.2708 31.07 30.2832L31.0868 30.3176C31.098 30.3288 31.1036 30.34 31.1156 30.3512L31.3244 30.7184L31.6684 31.1807L32.0916 31.6327L32.566 32.0327L33.1588 32.3991L33.6668 32.6255C33.7201 32.6479 33.7749 32.6666 33.8308 32.6815L34.0844 32.7663L34.1804 32.8055H34.2404C34.5452 32.8855 34.8444 32.9655 35.1492 33.0455C35.4316 32.7183 35.702 32.3791 35.9676 32.0351C35.49 31.8999 35.0044 31.7647 34.5132 31.6407ZM32.2164 30.9071L32.346 30.7599L32.4588 30.6864L32.2164 30.9071Z" fill="#F0F2F4"/>
<path d="M35.1507 6.94922C31.4423 7.9766 27.6385 8.62154 23.7987 8.87397L23.3867 8.91397V8.93077L23.2907 8.94756L23.2851 8.93077L22.8331 9.04036C22.7962 9.04452 22.7601 9.05395 22.7259 9.06836L22.2347 9.25476L21.6931 9.52035L21.6531 9.54835C21.5947 9.57581 21.5407 9.61195 21.4931 9.65555L21.2619 9.81554C21.2053 9.84248 21.1537 9.87871 21.1091 9.92274L20.7307 10.2555C20.6721 10.2979 20.6207 10.3495 20.5787 10.4083L20.2739 10.7635C20.2266 10.8106 20.1867 10.8645 20.1555 10.9235L19.8787 11.3235L19.8331 11.4251L19.8219 11.4195L19.5627 11.9043L19.5459 11.9779L19.5283 11.9723C19.5105 12.0036 19.4991 12.0381 19.4947 12.0739L19.2971 12.5483C19.2722 12.6026 19.2532 12.6595 19.2403 12.7179L19.0715 13.293L19.0827 13.2986L19.0603 13.4058H19.0435L18.9075 14.1002L18.8963 14.185L18.8907 14.1794L18.8107 14.9418L18.7747 15.8402L18.7179 16.4098H18.7123L18.5995 17.0305L18.4587 17.6521L18.4531 17.6857H18.4475L18.2323 18.4137L17.9675 19.2041H17.9731L17.3011 20.8464L16.8891 21.7216L16.4259 22.6136L15.9291 23.5112L15.3875 24.4088L14.7947 25.3287L14.1547 26.2487L14.1771 26.2655L14.1715 26.2767L14.1491 26.2599L13.7987 26.7399L13.0083 26.6719L10.3891 26.3783H10.3275L9.60749 26.2711L8.95229 24.6911L8.56829 23.6352H8.55949L8.23949 22.64L8.20029 22.6568V22.6512L8.23949 22.64L7.95309 21.68L7.69949 20.7088L7.49069 19.7601L7.32109 18.8457L7.28669 18.8513V18.8393H7.31549L7.19949 18.0801L7.10909 17.1937L7.06349 16.4202L7.05229 15.749L7.08029 15.1338L7.15389 14.5242H7.15149L7.15709 14.501L7.29869 13.7506L7.30989 13.6658L7.31549 13.6714L7.40029 12.8979L7.42269 12.0979C7.42381 12.0445 7.42194 11.9911 7.41709 11.9379L7.38269 11.4467C7.3851 11.3843 7.38135 11.3219 7.37149 11.2603L7.27949 10.6803C7.27486 10.6284 7.26357 10.5773 7.24589 10.5283L7.11069 10.0483H7.10509L7.09389 9.97474L7.08749 9.98034L6.87869 9.42035L6.85629 9.42595L6.81309 9.28036L6.55949 8.81237L6.54829 8.78917L6.51469 8.73877L6.18188 8.26438C6.15415 8.23021 6.12394 8.19812 6.09148 8.16839L5.82588 7.87479C5.78355 7.81616 5.73194 7.76483 5.67308 7.7228L5.36748 7.4628C5.31819 7.41815 5.2646 7.37849 5.20748 7.34441L4.77868 7.06762L4.74988 7.06202C4.48508 7.37241 4.23068 7.6884 3.98828 8.01639L4.18588 8.11239L4.55788 8.35238L4.56348 8.35798L4.57548 8.36918L4.58668 8.37478L4.89948 8.64037L5.23788 9.00756L5.50908 9.38515L5.74908 9.82594L5.75468 9.83154L5.94108 10.3003C5.92949 10.2544 5.92226 10.2076 5.91948 10.1603L6.07948 10.8323C6.0718 10.7952 6.06778 10.7574 6.06748 10.7195L6.09628 10.8883C6.09068 10.8827 6.09068 10.8715 6.08508 10.8659L6.18108 11.4811L6.22028 12.0795L6.20349 12.7347C6.19788 12.7683 6.19789 12.7963 6.19228 12.8147L6.11868 13.5258L5.97788 14.2706L5.96588 14.3666V14.3386L5.88188 15.0586L5.85308 15.7474L5.86428 16.4298L5.90988 17.2297L6.00028 18.1161L6.12428 19.0081L6.31948 20.0281L6.52829 20.9536L6.79949 22.0208L7.42029 24.008L7.81549 25.0807L8.63949 27.0559L9.10269 27.4119L10.1579 27.5639H10.1635L10.2435 27.5695L11.5531 27.7335L14.0371 27.9647L14.5731 27.7247L15.7979 25.9807L16.3907 25.0599L16.9723 24.1064L17.4859 23.1752L17.8755 22.424L17.9491 22.0632L18.1595 21.2192L18.6843 19.5713V19.4241L18.7747 19.3337L19.0459 18.6225L19.4579 17.6745L19.8579 16.8274V16.8162L19.8971 16.6242L19.9027 16.557H19.9083L19.9707 15.9474L19.9995 15.1202C20.0051 15.0866 20.0051 15.0586 20.0107 15.0402L20.0843 14.329L20.2139 13.6738L20.3835 13.0923C20.3779 13.1035 20.3723 13.1091 20.3723 13.1147L20.3891 13.0347H20.3947L20.4171 12.8987C20.4182 12.9409 20.4125 12.983 20.4003 13.0235L20.6091 12.5035L20.8859 11.9843L21.1683 11.5723L21.5011 11.1827L21.8627 10.8499C21.8364 10.8716 21.808 10.8906 21.7779 10.9067L21.9075 10.8107C21.8959 10.8252 21.8827 10.8383 21.8683 10.8499L22.2123 10.6187L22.2459 10.5843C22.1956 10.6254 22.1355 10.653 22.0715 10.6643L22.2315 10.5739L22.2427 10.5851L22.2539 10.5795L22.2603 10.5739L22.2771 10.5627L22.6267 10.3819L22.6379 10.3763L23.0611 10.2163L23.5411 10.1035L23.8747 10.0691C27.9712 9.79833 32.0273 9.09305 35.9747 7.96519C35.7091 7.6156 35.4331 7.28041 35.1507 6.94922ZM5.77388 9.87874L5.80828 9.85634L5.88188 10.0315C5.83621 9.98818 5.79951 9.93626 5.77388 9.87874ZM22.4435 10.4099L22.5851 10.3811L22.5907 10.3923C22.5427 10.4051 22.4932 10.411 22.4435 10.4099Z" fill="#F0F2F4"/>
<path d="M35.1508 6.94948C31.4425 7.97686 27.6386 8.6218 23.7988 8.87423L23.3868 8.91422V8.93102L23.2908 8.94782L23.2852 8.93102L22.8332 9.04062C22.7963 9.04478 22.7602 9.05421 22.726 9.06862L22.2348 9.25502L21.6932 9.52061L21.6532 9.54861C21.5948 9.57607 21.5408 9.61221 21.4932 9.6558L21.262 9.8158C21.2055 9.84273 21.1538 9.87897 21.1092 9.923L20.7308 10.2558C20.6722 10.2981 20.6209 10.3497 20.5788 10.4086L20.274 10.7638C20.2267 10.8109 20.1868 10.8648 20.1556 10.9238L19.8788 11.3238L19.8332 11.4254L19.822 11.4198L19.5628 11.9045L19.546 11.9781L19.5284 11.9725C19.5106 12.0039 19.4992 12.0384 19.4948 12.0741L19.2972 12.5485C19.2723 12.6029 19.2533 12.6597 19.2404 12.7181L19.0716 13.2933L19.0828 13.2989L19.0604 13.4061H19.0436L18.9076 14.1005L18.8964 14.1853L18.8908 14.1797L18.8108 14.9421L18.7748 15.8404L18.718 16.41H18.7124L18.5996 17.0308L18.4588 17.6524L18.4532 17.686H18.4476L18.2324 18.414L17.9676 19.2043H17.9732L17.3012 20.8467L16.8892 21.7219L16.426 22.6139L15.9292 23.5114L15.3876 24.409L14.7948 25.329L14.1548 26.249L14.1772 26.2658L14.1716 26.277L14.1492 26.2602L13.7988 26.7401L13.0084 26.6721L10.3892 26.3786H10.3276L9.60761 26.2714L8.95241 24.6914L8.56841 23.6354H8.55961L8.2396 22.6403L7.9532 21.6803L7.6996 20.7091L7.4908 19.7603L7.3212 18.846L7.2868 18.8516V18.8396H7.3156L7.1996 18.0804L7.1092 17.194L7.0636 16.4204L7.0524 15.7492L7.0804 15.1341L7.154 14.5245H7.1516L7.1572 14.5013L7.2988 13.7509L7.31 13.6661L7.3156 13.6717L7.4004 12.8981L7.4228 12.0981C7.42393 12.0447 7.42206 11.9913 7.4172 11.9381L7.3828 11.447C7.38521 11.3846 7.38146 11.3222 7.3716 11.2606L7.2796 10.6806C7.27498 10.6287 7.26369 10.5776 7.246 10.5286L7.1108 10.0486H7.1052L7.094 9.975L7.0876 9.9806L6.8788 9.42061L6.8564 9.42621L6.8132 9.28061L6.5596 8.81263L6.5484 8.78943L6.5148 8.73903L6.182 8.26464C6.15427 8.23046 6.12405 8.19838 6.0916 8.16864L5.826 7.87505C5.78366 7.81642 5.73205 7.76508 5.6732 7.72306L5.3676 7.46306C5.31831 7.41841 5.26472 7.37875 5.2076 7.34467L4.7788 7.06787L4.75 7.06227C6.61867 4.85856 8.94283 3.08607 11.5624 1.86691C14.1819 0.647737 17.0347 0.0108584 19.924 0.000137638C22.8134 -0.0105831 25.6708 0.605108 28.2993 1.8048C30.9278 3.0045 33.2659 4.75969 35.1508 6.94948Z" fill="#CDCFD1"/>
</svg>
