<svg width="28" height="28" viewBox="0 0 28 28" fill="none" xmlns="http://www.w3.org/2000/svg">
<path d="M23.7719 25.375C21.4094 25.375 18.9789 24.7253 16.4803 23.4258C13.9812 22.1269 11.7061 20.4467 9.65516 18.385C7.60358 16.324 5.91899 14.0441 4.60139 11.5453C3.2838 9.04649 2.625 6.61036 2.625 4.23689C2.625 3.78715 2.78015 3.40606 3.09045 3.09364C3.40135 2.78121 3.78058 2.625 4.22813 2.625H6.98864C7.43619 2.625 7.81542 2.75633 8.12632 3.01898C8.43662 3.28103 8.6416 3.63693 8.74126 4.08668L9.45018 7.04781C9.52477 7.4226 9.50597 7.7785 9.39379 8.11551C9.2822 8.45312 9.11451 8.72177 8.89074 8.92146L5.75787 11.8079C7.19959 14.2564 8.79078 16.3426 10.5315 18.0666C12.2721 19.7906 14.3482 21.3147 16.7596 22.6387L19.8182 19.3781C20.067 19.1286 20.3344 18.9538 20.6202 18.8537C20.906 18.7535 21.2107 18.7409 21.5341 18.8159L23.9205 19.3412C24.368 19.4162 24.7225 19.6158 24.9838 19.9403C25.2446 20.2653 25.375 20.6652 25.375 21.1402V23.8009C25.375 24.2506 25.2198 24.6254 24.9095 24.9253C24.5986 25.2251 24.2194 25.375 23.7719 25.375Z" stroke="#D8274F" stroke-width="2"/>
</svg>
