<svg width="26" height="26" viewBox="0 0 26 26" fill="none" xmlns="http://www.w3.org/2000/svg">
<path d="M22.7719 24.375C20.4094 24.375 17.9789 23.7253 15.4803 22.4258C12.9812 21.1269 10.7061 19.4467 8.65516 17.385C6.60358 15.324 4.91899 13.0441 3.60139 10.5453C2.2838 8.04649 1.625 5.61036 1.625 3.23689C1.625 2.78715 1.78015 2.40606 2.09045 2.09364C2.40135 1.78121 2.78058 1.625 3.22813 1.625H5.98864C6.43619 1.625 6.81542 1.75633 7.12632 2.01898C7.43662 2.28103 7.6416 2.63693 7.74126 3.08668L8.45018 6.04781C8.52477 6.4226 8.50597 6.7785 8.39379 7.11551C8.2822 7.45312 8.11451 7.72177 7.89074 7.92146L4.75787 10.8079C6.19959 13.2564 7.79078 15.3426 9.53147 17.0666C11.2721 18.7906 13.3482 20.3147 15.7596 21.6387L18.8182 18.3781C19.067 18.1286 19.3344 17.9538 19.6202 17.8537C19.906 17.7535 20.2107 17.7409 20.5341 17.8159L22.9205 18.3412C23.368 18.4162 23.7225 18.6158 23.9838 18.9403C24.2446 19.2653 24.375 19.6652 24.375 20.1402V22.8009C24.375 23.2506 24.2198 23.6254 23.9095 23.9253C23.5986 24.2251 23.2194 24.375 22.7719 24.375Z" stroke="#0F1937" stroke-width="2"/>
</svg>
