<svg width="32" height="32" viewBox="0 0 32 32" fill="none" xmlns="http://www.w3.org/2000/svg">
<path d="M16 14.3422C14.5448 14.3422 13.324 13.8462 12.3376 12.8542C11.3512 11.8622 10.858 10.6345 10.858 9.17112C10.858 7.70771 11.3512 6.48 12.3376 5.488C13.324 4.496 14.5448 4 16 4C17.4552 4 18.676 4.496 19.6624 5.488C20.6488 6.48 21.142 7.70771 21.142 9.17112C21.142 10.6345 20.6488 11.8622 19.6624 12.8542C18.676 13.8462 17.4552 14.3422 16 14.3422ZM3 28V25.6105C3 24.8948 3.22662 24.2197 3.67986 23.5852C4.13232 22.9514 4.73031 22.4558 5.47381 22.0983C7.28522 21.2851 9.06403 20.6669 10.8102 20.2439C12.5565 19.8217 14.2864 19.6105 16 19.6105C17.7136 19.6105 19.4435 19.8217 21.1898 20.2439C22.936 20.6669 24.7148 21.3011 26.5262 22.1463C27.2697 22.4718 27.8677 22.9514 28.3201 23.5852C28.7734 24.2197 29 24.8948 29 25.6105V28H3ZM4.16414 26.8293H27.8359V25.6105C27.8359 25.1547 27.674 24.7075 27.3504 24.2689C27.0268 23.8295 26.558 23.4474 25.9441 23.1227C24.3267 22.3422 22.6934 21.7569 21.0442 21.3666C19.395 20.9764 17.7136 20.7813 16 20.7813C14.2864 20.7813 12.5968 20.9764 10.9313 21.3666C9.26581 21.7569 7.64067 22.3422 6.05588 23.1227C5.44199 23.4474 4.97322 23.8295 4.64959 24.2689C4.32596 24.7075 4.16414 25.1547 4.16414 25.6105V26.8293ZM16 13.1715C17.0997 13.1715 18.0376 12.7813 18.8137 12.0008C19.5898 11.2203 19.9779 10.2771 19.9779 9.17112C19.9779 8.06517 19.5898 7.12195 18.8137 6.34146C18.0376 5.56098 17.0997 5.17073 16 5.17073C14.9003 5.17073 13.9624 5.56098 13.1863 6.34146C12.4102 7.12195 12.0221 8.06517 12.0221 9.17112C12.0221 10.2771 12.4102 11.2203 13.1863 12.0008C13.9624 12.7813 14.9003 13.1715 16 13.1715Z" fill="#0F1937" stroke="#0F1937"/>
</svg>
