<svg width="26" height="26" viewBox="0 0 26 26" fill="none" xmlns="http://www.w3.org/2000/svg">
<path d="M24 13C24 19.0751 19.0751 24 13 24V26C20.1797 26 26 20.1797 26 13H24ZM13 24C6.92487 24 2 19.0751 2 13H5.96046e-08C5.96046e-08 20.1797 5.8203 26 13 26V24ZM2 13C2 6.92487 6.92487 2 13 2V0C5.8203 0 5.96046e-08 5.8203 5.96046e-08 13H2ZM13 2C19.0751 2 24 6.92487 24 13H26C26 5.8203 20.1797 0 13 0V2ZM18 13C18 16.0227 16.6247 18.8214 15.1772 20.9169C14.46 21.9552 13.7418 22.7967 13.2039 23.3774C12.9354 23.6673 12.7131 23.8908 12.56 24.04C12.4834 24.1145 12.4243 24.1704 12.3855 24.2066C12.3661 24.2247 12.3517 24.2379 12.3429 24.246C12.3384 24.25 12.3353 24.2528 12.3337 24.2543C12.3328 24.2551 12.3323 24.2555 12.3322 24.2556C12.3322 24.2557 12.3322 24.2557 12.3323 24.2556C12.3324 24.2555 12.3325 24.2554 12.3325 24.2554C12.3327 24.2552 12.3329 24.255 13 25C13.6671 25.745 13.6673 25.7448 13.6676 25.7445C13.6677 25.7444 13.668 25.7442 13.6683 25.7439C13.6687 25.7435 13.6693 25.743 13.67 25.7424C13.6713 25.7412 13.673 25.7397 13.675 25.7378C13.6791 25.7341 13.6847 25.7291 13.6916 25.7228C13.7054 25.7102 13.7247 25.6924 13.7493 25.6695C13.7983 25.6238 13.8681 25.5577 13.9557 25.4724C14.1307 25.3019 14.3771 25.0539 14.6711 24.7366C15.2582 24.1028 16.04 23.1869 16.8228 22.0536C18.3753 19.806 20 16.6047 20 13H18ZM13 25C13.6671 24.255 13.6673 24.2552 13.6675 24.2554C13.6675 24.2554 13.6676 24.2555 13.6677 24.2556C13.6678 24.2557 13.6678 24.2557 13.6678 24.2556C13.6677 24.2555 13.6672 24.2551 13.6663 24.2543C13.6647 24.2528 13.6616 24.25 13.6571 24.246C13.6483 24.2379 13.6339 24.2247 13.6145 24.2066C13.5757 24.1704 13.5166 24.1145 13.44 24.04C13.2869 23.8908 13.0646 23.6673 12.7961 23.3774C12.2582 22.7967 11.54 21.9552 10.8228 20.9169C9.37529 18.8214 8 16.0227 8 13H6C6 16.6047 7.62471 19.806 9.17721 22.0536C9.96003 23.1869 10.7418 24.1028 11.3289 24.7366C11.6229 25.0539 11.8693 25.3019 12.0443 25.4724C12.1319 25.5577 12.2017 25.6238 12.2507 25.6695C12.2753 25.6924 12.2946 25.7102 12.3084 25.7228C12.3153 25.7291 12.3209 25.7341 12.325 25.7378C12.327 25.7397 12.3287 25.7412 12.33 25.7424C12.3307 25.743 12.3313 25.7435 12.3318 25.7439C12.332 25.7442 12.3323 25.7444 12.3324 25.7445C12.3327 25.7448 12.3329 25.745 13 25ZM8 13C8 9.97732 9.37529 7.17863 10.8228 5.08306C11.54 4.04479 12.2582 3.20327 12.7961 2.62259C13.0646 2.33274 13.2869 2.10921 13.44 1.96004C13.5166 1.88548 13.5757 1.82961 13.6145 1.79341C13.6339 1.77531 13.6483 1.76214 13.6571 1.75403C13.6616 1.74997 13.6647 1.74718 13.6663 1.74566C13.6672 1.74491 13.6677 1.74447 13.6678 1.74436C13.6678 1.7443 13.6678 1.74432 13.6677 1.74443C13.6676 1.74448 13.6675 1.74462 13.6675 1.74465C13.6673 1.74481 13.6671 1.74498 13 1C12.3329 0.255015 12.3327 0.255236 12.3324 0.255477C12.3323 0.255585 12.332 0.255847 12.3318 0.256063C12.3313 0.256495 12.3307 0.257009 12.33 0.257606C12.3287 0.2588 12.327 0.260324 12.325 0.262175C12.3209 0.265878 12.3153 0.270893 12.3084 0.277203C12.2946 0.289824 12.2753 0.307633 12.2507 0.330504C12.2017 0.37624 12.1319 0.44226 12.0443 0.527557C11.8693 0.698083 11.6229 0.946067 11.3289 1.26345C10.7418 1.89723 9.96003 2.81307 9.17721 3.94638C7.62471 6.19396 6 9.39526 6 13H8ZM13 1C12.3329 1.74498 12.3327 1.74481 12.3325 1.74465C12.3325 1.74462 12.3324 1.74448 12.3323 1.74443C12.3322 1.74432 12.3322 1.7443 12.3322 1.74436C12.3323 1.74447 12.3328 1.74491 12.3337 1.74566C12.3353 1.74718 12.3384 1.74997 12.3429 1.75403C12.3517 1.76214 12.3661 1.77531 12.3855 1.79341C12.4243 1.82961 12.4834 1.88548 12.56 1.96004C12.7131 2.10921 12.9354 2.33274 13.2039 2.62259C13.7418 3.20327 14.46 4.04479 15.1772 5.08306C16.6247 7.17863 18 9.97732 18 13H20C20 9.39526 18.3753 6.19396 16.8228 3.94638C16.04 2.81307 15.2582 1.89723 14.6711 1.26345C14.3771 0.946067 14.1307 0.698083 13.9557 0.527557C13.8681 0.44226 13.7983 0.37624 13.7493 0.330504C13.7247 0.307633 13.7054 0.289824 13.6916 0.277203C13.6847 0.270893 13.6791 0.265878 13.675 0.262175C13.673 0.260324 13.6713 0.2588 13.67 0.257606C13.6693 0.257009 13.6687 0.256495 13.6683 0.256063C13.668 0.255847 13.6677 0.255585 13.6676 0.255477C13.6673 0.255236 13.6671 0.255015 13 1ZM2.2 9.8L23.8 9.8V7.8L2.2 7.8L2.2 9.8ZM1 17L25 17L25 15L1 15L1 17Z" fill="#0F1937"/>
</svg>
