<svg width="28" height="28" viewBox="0 0 28 28" fill="none" xmlns="http://www.w3.org/2000/svg">
<path d="M26.069 26H1.93103V2H12.5172C13.0695 2 13.5172 1.55228 13.5172 1C13.5172 0.447715 13.0695 0 12.5172 0H0V28H28V15.9655C28 15.4323 27.5677 15 27.0345 15C26.5012 15 26.069 15.4323 26.069 15.9655V26ZM19.3448 0C18.7925 0 18.3448 0.447715 18.3448 1C18.3448 1.55228 18.7925 2 19.3448 2H24.7076L15.8734 11.1497C15.5069 11.5292 15.5069 12.1308 15.8734 12.5103C16.2584 12.9091 16.8974 12.9091 17.2825 12.5103L26.069 3.41V9.03448C26.069 9.56772 26.5012 10 27.0345 10C27.5677 10 28 9.56772 28 9.03448V0H19.3448Z" fill="#C22347"/>
</svg>
