<svg width="30" height="30" viewBox="0 0 30 30" fill="none" xmlns="http://www.w3.org/2000/svg">
<path d="M11.667 30L11 25.208C10.4167 25.0413 9.778 24.7637 9.084 24.375C8.38933 23.9863 7.806 23.5697 7.334 23.125L2.917 25.083L0 19.958L3.917 17.083C3.86167 16.7497 3.813 16.4027 3.771 16.042C3.72967 15.6807 3.709 15.3473 3.709 15.042C3.709 14.736 3.72967 14.4093 3.771 14.062C3.813 13.7153 3.86167 13.3337 3.917 12.917L0 10L2.917 5L7.292 6.917C7.84733 6.44433 8.45133 6.02067 9.104 5.646C9.75733 5.27067 10.3757 4.99967 10.959 4.833L11.667 0H17.417L18.084 4.833C18.7507 5.083 19.3757 5.368 19.959 5.688C20.5423 6.00733 21.1117 6.417 21.667 6.917L26.209 5L29.084 10L25.042 13C25.1533 13.3613 25.216 13.7087 25.23 14.042C25.2433 14.3753 25.25 14.6947 25.25 15C25.25 15.278 25.2363 15.5837 25.209 15.917C25.181 16.2503 25.1253 16.6253 25.042 17.042L29.042 19.958L26.125 25.083L21.667 23.083C21.1117 23.5557 20.5353 23.9793 19.938 24.354C19.3407 24.7293 18.7227 25.0003 18.084 25.167L17.417 30H11.667ZM14.459 19.042C15.5977 19.042 16.556 18.653 17.334 17.875C18.1113 17.097 18.5 16.1387 18.5 15C18.5 13.8613 18.1113 12.903 17.334 12.125C16.556 11.347 15.5977 10.958 14.459 10.958C13.3477 10.958 12.396 11.347 11.604 12.125C10.8127 12.903 10.417 13.8613 10.417 15C10.417 16.1387 10.8127 17.097 11.604 17.875C12.396 18.653 13.3477 19.042 14.459 19.042Z" fill="#0F1937"/>
</svg>
