<svg width="35" height="36" viewBox="0 0 35 36" fill="none" xmlns="http://www.w3.org/2000/svg">
<path d="M14.05 36L13.25 30.3C12.5167 30.0667 11.7083 29.7 10.825 29.2C9.94167 28.7 9.2 28.1667 8.6 27.6L3.3 30L0 24.1L4.7 20.6C4.63333 20.2 4.575 19.775 4.525 19.325C4.475 18.875 4.45 18.45 4.45 18.05C4.45 17.65 4.475 17.2333 4.525 16.8C4.575 16.3667 4.63333 15.9 4.7 15.4L0 11.9L3.3 6.05L8.55 8.4C9.25 7.83333 10.0167 7.30833 10.85 6.825C11.6833 6.34167 12.4667 5.98333 13.2 5.75L14.05 0H20.75L21.55 5.75C22.3833 6.08333 23.175 6.45833 23.925 6.875C24.675 7.29167 25.4 7.8 26.1 8.4L31.5 6.05L34.8 11.9L29.95 15.45C30.0833 15.9167 30.1667 16.3583 30.2 16.775C30.2333 17.1917 30.25 17.6 30.25 18C30.25 18.3667 30.225 18.7583 30.175 19.175C30.125 19.5917 30.05 20.05 29.95 20.55L34.8 24.1L31.45 30L26.1 27.6C25.3667 28.2 24.625 28.7333 23.875 29.2C23.125 29.6667 22.35 30.0167 21.55 30.25L20.75 36H14.05ZM17.3 22.75C18.6333 22.75 19.7583 22.2917 20.675 21.375C21.5917 20.4583 22.05 19.3333 22.05 18C22.05 16.6667 21.5917 15.5417 20.675 14.625C19.7583 13.7083 18.6333 13.25 17.3 13.25C15.9667 13.25 14.8333 13.7083 13.9 14.625C12.9667 15.5417 12.5 16.6667 12.5 18C12.5 19.3333 12.9667 20.4583 13.9 21.375C14.8333 22.2917 15.9667 22.75 17.3 22.75Z" fill="#C22347"/>
</svg>
