<svg width="73" height="24" viewBox="0 0 73 24" fill="none" xmlns="http://www.w3.org/2000/svg">
<path d="M72 13C72.5523 13 73 12.5523 73 12C73 11.4477 72.5523 11 72 11L72 13ZM0.750961 11.2929C0.360435 11.6834 0.360435 12.3166 0.750961 12.7071L7.11492 19.0711C7.50545 19.4616 8.13861 19.4616 8.52914 19.0711C8.91966 18.6806 8.91966 18.0474 8.52914 17.6569L2.87228 12L8.52914 6.34316C8.91966 5.95263 8.91966 5.31947 8.52914 4.92894C8.13861 4.53842 7.50545 4.53842 7.11492 4.92894L0.750961 11.2929ZM72 11L1.45807 11L1.45807 13L72 13L72 11Z" fill="#0F1937"/>
</svg>
