<svg width="128" height="24" viewBox="0 0 128 24" fill="none" xmlns="http://www.w3.org/2000/svg">
<path d="M127 13C127.552 13 128 12.5523 128 12C128 11.4477 127.552 11 127 11L127 13ZM1.1058 11.2929C0.715271 11.6834 0.715271 12.3166 1.1058 12.7071L7.46976 19.0711C7.86028 19.4616 8.49345 19.4616 8.88397 19.0711C9.2745 18.6806 9.2745 18.0474 8.88397 17.6569L3.22712 12L8.88397 6.34316C9.2745 5.95263 9.2745 5.31947 8.88397 4.92894C8.49345 4.53842 7.86028 4.53842 7.46976 4.92895L1.1058 11.2929ZM127 11L1.8129 11L1.8129 13L127 13L127 11Z" fill="#C22347"/>
</svg>
