<svg xmlns="http://www.w3.org/2000/svg" width="28" height="28" fill="none">
  <path fill="#0F1937" stroke="#0F1937" d="M26.54 26.54a.64.64 0 0 1-.9 0l-9.7-9.7a8.13 8.13 0 0 1-2.75 1.63c-1.05.37-2.1.55-3.15.55a8.74 8.74 0 0 1-6.4-2.62A8.67 8.67 0 0 1 1 10.01a8.7 8.7 0 0 1 2.62-6.39A8.68 8.68 0 0 1 10 1c2.5 0 4.64.87 6.4 2.62a8.67 8.67 0 0 1 2.63 6.4 9.22 9.22 0 0 1-2.22 5.94l9.73 9.67c.25.25.26.66 0 .91Zm-16.5-8.75a7.6 7.6 0 0 0 5.55-2.24A7.5 7.5 0 0 0 17.84 10c0-2.2-.75-4.05-2.25-5.56a7.54 7.54 0 0 0-5.55-2.26c-2.2 0-4.05.76-5.55 2.26A7.56 7.56 0 0 0 2.23 10c0 2.2.75 4.04 2.26 5.54a7.57 7.57 0 0 0 5.55 2.24Z"/>
</svg>
