<svg width="34" height="24" viewBox="0 0 34 24" fill="none" xmlns="http://www.w3.org/2000/svg">
<path d="M1 13C0.447715 13 -9.96795e-09 12.5523 0 12C9.96795e-09 11.4477 0.447715 11 1 11L1 13ZM33.5007 11.2929C33.8912 11.6834 33.8912 12.3166 33.5007 12.7071L27.1367 19.0711C26.7462 19.4616 26.113 19.4616 25.7225 19.0711C25.332 18.6806 25.332 18.0474 25.7225 17.6569L31.3793 12L25.7225 6.34316C25.332 5.95263 25.332 5.31947 25.7225 4.92894C26.113 4.53842 26.7462 4.53842 27.1367 4.92894L33.5007 11.2929ZM1 11L32.7936 11L32.7936 13L1 13L1 11Z" fill="#999DAA"/>
</svg>
