<svg width="32" height="32" viewBox="0 0 32 32" fill="none" xmlns="http://www.w3.org/2000/svg">
<path d="M15.5245 3.08156C15.6741 2.6209 16.3259 2.6209 16.4755 3.08156L18.8922 10.5193C19.093 11.1373 19.6689 11.5557 20.3188 11.5557H28.1392C28.6236 11.5557 28.825 12.1755 28.4331 12.4602L22.1062 17.057C21.5805 17.439 21.3605 18.116 21.5613 18.734L23.978 26.1717C24.1277 26.6324 23.6004 27.0154 23.2086 26.7307L16.8817 22.134C16.3559 21.752 15.6441 21.752 15.1183 22.134L8.79144 26.7307C8.39959 27.0154 7.87234 26.6324 8.02202 26.1717L10.4387 18.734C10.6395 18.116 10.4195 17.4389 9.89377 17.057L3.56688 12.4602C3.17503 12.1755 3.37641 11.5557 3.86078 11.5557H11.6812C12.3311 11.5557 12.907 11.1373 13.1078 10.5193L15.5245 3.08156Z" fill="#F0F2F4" stroke="#C22347"/>
</svg>
