<svg width="30" height="25" viewBox="0 0 30 25" fill="none" xmlns="http://www.w3.org/2000/svg">
<path d="M6.70711 19.2929L6 18.5858L6.70711 19.2929ZM2.70711 23.2929L2 22.5858L2.70711 23.2929ZM2 2H28V0H2V2ZM28 2V18H30V2H28ZM2 19V2H0V19H2ZM6 18.5858L2 22.5858L3.41421 24L7.41421 20L6 18.5858ZM2 22.5858V19H0V22.5858H2ZM27.9983 18C27.9806 18 27.963 18 27.9454 18C27.9278 18 27.9102 18 27.8926 18C27.875 18 27.8575 18 27.84 18C27.8224 18 27.8049 18 27.7875 18C27.77 18 27.7525 18 27.7351 18C27.7177 18 27.7003 18 27.6829 18C27.6655 18 27.6481 18 27.6308 18C27.6134 18 27.5961 18 27.5788 18C27.5615 18 27.5443 18 27.527 18C27.5098 18 27.4925 18 27.4753 18C27.4581 18 27.441 18 27.4238 18C27.4066 18 27.3895 18 27.3724 18C27.3553 18 27.3382 18 27.3211 18C27.3041 18 27.287 18 27.27 18C27.253 18 27.236 18 27.219 18C27.202 18 27.1851 18 27.1681 18C27.1512 18 27.1343 18 27.1174 18C27.1005 18 27.0836 18 27.0668 18C27.0499 18 27.0331 18 27.0163 18C26.9995 18 26.9827 18 26.966 18C26.9492 18 26.9325 18 26.9158 18C26.8991 18 26.8824 18 26.8657 18C26.849 18 26.8324 18 26.8157 18C26.7991 18 26.7825 18 26.7659 18C26.7493 18 26.7328 18 26.7162 18C26.6997 18 26.6832 18 26.6667 18C26.6502 18 26.6337 18 26.6172 18C26.6008 18 26.5843 18 26.5679 18C26.5515 18 26.5351 18 26.5187 18C26.5023 18 26.486 18 26.4697 18C26.4533 18 26.437 18 26.4207 18C26.4044 18 26.3882 18 26.3719 18C26.3557 18 26.3394 18 26.3232 18C26.307 18 26.2908 18 26.2747 18C26.2585 18 26.2424 18 26.2262 18C26.2101 18 26.194 18 26.1779 18C26.1618 18 26.1458 18 26.1297 18C26.1137 18 26.0977 18 26.0817 18C26.0657 18 26.0497 18 26.0337 18C26.0177 18 26.0018 18 25.9859 18C25.9699 18 25.954 18 25.9382 18C25.9223 18 25.9064 18 25.8906 18C25.8747 18 25.8589 18 25.8431 18C25.8273 18 25.8115 18 25.7957 18C25.78 18 25.7642 18 25.7485 18C25.7328 18 25.7171 18 25.7014 18C25.6857 18 25.67 18 25.6544 18C25.6387 18 25.6231 18 25.6075 18C25.5919 18 25.5763 18 25.5607 18C25.5452 18 25.5296 18 25.5141 18C25.4985 18 25.483 18 25.4675 18C25.452 18 25.4366 18 25.4211 18C25.4056 18 25.3902 18 25.3748 18C25.3594 18 25.344 18 25.3286 18C25.3132 18 25.2978 18 25.2825 18C25.2671 18 25.2518 18 25.2365 18C25.2212 18 25.2059 18 25.1906 18C25.1754 18 25.1601 18 25.1449 18C25.1297 18 25.1144 18 25.0992 18C25.0841 18 25.0689 18 25.0537 18C25.0386 18 25.0234 18 25.0083 18C24.9932 18 24.9781 18 24.963 18C24.9479 18 24.9328 18 24.9178 18C24.9027 18 24.8877 18 24.8727 18C24.8576 18 24.8426 18 24.8277 18C24.8127 18 24.7977 18 24.7828 18C24.7678 18 24.7529 18 24.738 18C24.7231 18 24.7082 18 24.6933 18C24.6784 18 24.6636 18 24.6487 18C24.6339 18 24.6191 18 24.6043 18C24.5895 18 24.5747 18 24.5599 18C24.5451 18 24.5304 18 24.5157 18C24.5009 18 24.4862 18 24.4715 18C24.4568 18 24.4421 18 24.4274 18C24.4128 18 24.3981 18 24.3835 18C24.3689 18 24.3542 18 24.3396 18C24.325 18 24.3104 18 24.2959 18C24.2813 18 24.2668 18 24.2522 18C24.2377 18 24.2232 18 24.2087 18C24.1942 18 24.1797 18 24.1652 18C24.1508 18 24.1363 18 24.1219 18C24.1074 18 24.093 18 24.0786 18C24.0642 18 24.0498 18 24.0355 18C24.0211 18 24.0067 18 23.9924 18C23.9781 18 23.9637 18 23.9494 18C23.9351 18 23.9208 18 23.9066 18C23.8923 18 23.878 18 23.8638 18C23.8495 18 23.8353 18 23.8211 18C23.8069 18 23.7927 18 23.7785 18C23.7643 18 23.7502 18 23.736 18C23.7219 18 23.7077 18 23.6936 18C23.6795 18 23.6654 18 23.6513 18C23.6372 18 23.6232 18 23.6091 18C23.595 18 23.581 18 23.567 18C23.5529 18 23.5389 18 23.5249 18C23.5109 18 23.497 18 23.483 18C23.469 18 23.4551 18 23.4411 18C23.4272 18 23.4133 18 23.3994 18C23.3855 18 23.3716 18 23.3577 18C23.3438 18 23.33 18 23.3161 18C23.3023 18 23.2884 18 23.2746 18C23.2608 18 23.247 18 23.2332 18C23.2194 18 23.2057 18 23.1919 18C23.1781 18 23.1644 18 23.1507 18C23.1369 18 23.1232 18 23.1095 18C23.0958 18 23.0821 18 23.0684 18C23.0548 18 23.0411 18 23.0275 18C23.0138 18 23.0002 18 22.9866 18C22.9729 18 22.9593 18 22.9457 18C22.9321 18 22.9186 18 22.905 18C22.8914 18 22.8779 18 22.8644 18C22.8508 18 22.8373 18 22.8238 18C22.8103 18 22.7968 18 22.7833 18C22.7698 18 22.7564 18 22.7429 18C22.7294 18 22.716 18 22.7026 18C22.6891 18 22.6757 18 22.6623 18C22.6489 18 22.6355 18 22.6222 18C22.6088 18 22.5954 18 22.5821 18C22.5687 18 22.5554 18 22.5421 18C22.5287 18 22.5154 18 22.5021 18C22.4888 18 22.4756 18 22.4623 18C22.449 18 22.4357 18 22.4225 18C22.4093 18 22.396 18 22.3828 18C22.3696 18 22.3564 18 22.3432 18C22.33 18 22.3168 18 22.3036 18C22.2905 18 22.2773 18 22.2641 18C22.251 18 22.2379 18 22.2247 18C22.2116 18 22.1985 18 22.1854 18C22.1723 18 22.1592 18 22.1462 18C22.1331 18 22.12 18 22.107 18C22.0939 18 22.0809 18 22.0679 18C22.0548 18 22.0418 18 22.0288 18C22.0158 18 22.0028 18 21.9898 18C21.9769 18 21.9639 18 21.9509 18C21.938 18 21.925 18 21.9121 18C21.8992 18 21.8863 18 21.8734 18C21.8604 18 21.8475 18 21.8347 18C21.8218 18 21.8089 18 21.796 18C21.7832 18 21.7703 18 21.7575 18C21.7446 18 21.7318 18 21.719 18C21.7062 18 21.6934 18 21.6806 18C21.6678 18 21.655 18 21.6422 18C21.6294 18 21.6167 18 21.6039 18C21.5912 18 21.5784 18 21.5657 18C21.5529 18 21.5402 18 21.5275 18C21.5148 18 21.5021 18 21.4894 18C21.4767 18 21.464 18 21.4514 18C21.4387 18 21.426 18 21.4134 18C21.4007 18 21.3881 18 21.3755 18C21.3629 18 21.3502 18 21.3376 18C21.325 18 21.3124 18 21.2998 18C21.2873 18 21.2747 18 21.2621 18C21.2495 18 21.237 18 21.2244 18C21.2119 18 21.1994 18 21.1868 18C21.1743 18 21.1618 18 21.1493 18C21.1368 18 21.1243 18 21.1118 18C21.0993 18 21.0868 18 21.0744 18C21.0619 18 21.0494 18 21.037 18C21.0245 18 21.0121 18 20.9997 18C20.9872 18 20.9748 18 20.9624 18C20.95 18 20.9376 18 20.9252 18C20.9128 18 20.9004 18 20.888 18C20.8756 18 20.8633 18 20.8509 18C20.8386 18 20.8262 18 20.8139 18C20.8015 18 20.7892 18 20.7769 18C20.7646 18 20.7522 18 20.7399 18C20.7276 18 20.7153 18 20.7031 18C20.6908 18 20.6785 18 20.6662 18C20.654 18 20.6417 18 20.6294 18C20.6172 18 20.6049 18 20.5927 18C20.5805 18 20.5682 18 20.556 18C20.5438 18 20.5316 18 20.5194 18C20.5072 18 20.495 18 20.4828 18C20.4706 18 20.4584 18 20.4463 18C20.4341 18 20.4219 18 20.4098 18C20.3976 18 20.3855 18 20.3734 18C20.3612 18 20.3491 18 20.337 18C20.3248 18 20.3127 18 20.3006 18C20.2885 18 20.2764 18 20.2643 18C20.2522 18 20.2401 18 20.2281 18C20.216 18 20.2039 18 20.1919 18C20.1798 18 20.1677 18 20.1557 18C20.1437 18 20.1316 18 20.1196 18C20.1075 18 20.0955 18 20.0835 18C20.0715 18 20.0595 18 20.0475 18C20.0355 18 20.0235 18 20.0115 18C19.9995 18 19.9875 18 19.9755 18C19.9636 18 19.9516 18 19.9396 18C19.9277 18 19.9157 18 19.9038 18C19.8918 18 19.8799 18 19.8679 18C19.856 18 19.8441 18 19.8321 18C19.8202 18 19.8083 18 19.7964 18C19.7845 18 19.7726 18 19.7607 18C19.7488 18 19.7369 18 19.725 18C19.7131 18 19.7013 18 19.6894 18C19.6775 18 19.6656 18 19.6538 18C19.6419 18 19.6301 18 19.6182 18C19.6064 18 19.5945 18 19.5827 18C19.5709 18 19.559 18 19.5472 18C19.5354 18 19.5236 18 19.5118 18C19.4999 18 19.4881 18 19.4763 18C19.4645 18 19.4527 18 19.4409 18C19.4292 18 19.4174 18 19.4056 18C19.3938 18 19.382 18 19.3703 18C19.3585 18 19.3467 18 19.335 18C19.3232 18 19.3115 18 19.2997 18C19.288 18 19.2762 18 19.2645 18C19.2528 18 19.241 18 19.2293 18C19.2176 18 19.2059 18 19.1941 18C19.1824 18 19.1707 18 19.159 18C19.1473 18 19.1356 18 19.1239 18C19.1122 18 19.1005 18 19.0888 18C19.0771 18 19.0655 18 19.0538 18C19.0421 18 19.0304 18 19.0188 18C19.0071 18 18.9954 18 18.9838 18C18.9721 18 18.9604 18 18.9488 18C18.9371 18 18.9255 18 18.9138 18C18.9022 18 18.8906 18 18.8789 18C18.8673 18 18.8557 18 18.844 18C18.8324 18 18.8208 18 18.8092 18C18.7975 18 18.7859 18 18.7743 18C18.7627 18 18.7511 18 18.7395 18C18.7279 18 18.7163 18 18.7047 18C18.6931 18 18.6815 18 18.6699 18C18.6583 18 18.6467 18 18.6352 18C18.6236 18 18.612 18 18.6004 18C18.5889 18 18.5773 18 18.5657 18C18.5541 18 18.5426 18 18.531 18C18.5195 18 18.5079 18 18.4963 18C18.4848 18 18.4732 18 18.4617 18C18.4501 18 18.4386 18 18.427 18C18.4155 18 18.404 18 18.3924 18C18.3809 18 18.3693 18 18.3578 18C18.3463 18 18.3348 18 18.3232 18C18.3117 18 18.3002 18 18.2887 18C18.2771 18 18.2656 18 18.2541 18C18.2426 18 18.2311 18 18.2196 18C18.208 18 18.1965 18 18.185 18C18.1735 18 18.162 18 18.1505 18C18.139 18 18.1275 18 18.116 18C18.1045 18 18.093 18 18.0815 18C18.07 18 18.0586 18 18.0471 18C18.0356 18 18.0241 18 18.0126 18C18.0011 18 17.9896 18 17.9782 18C17.9667 18 17.9552 18 17.9437 18C17.9322 18 17.9208 18 17.9093 18C17.8978 18 17.8863 18 17.8749 18C17.8634 18 17.8519 18 17.8405 18C17.829 18 17.8175 18 17.8061 18C17.7946 18 17.7831 18 17.7717 18C17.7602 18 17.7487 18 17.7373 18C17.7258 18 17.7144 18 17.7029 18C17.6914 18 17.68 18 17.6685 18C17.6571 18 17.6456 18 17.6342 18C17.6227 18 17.6112 18 17.5998 18C17.5883 18 17.5769 18 17.5654 18C17.554 18 17.5425 18 17.5311 18C17.5196 18 17.5082 18 17.4967 18C17.4853 18 17.4738 18 17.4624 18C17.4509 18 17.4395 18 17.428 18C17.4166 18 17.4052 18 17.3937 18C17.3823 18 17.3708 18 17.3594 18C17.3479 18 17.3365 18 17.325 18C17.3136 18 17.3021 18 17.2907 18C17.2793 18 17.2678 18 17.2564 18C17.2449 18 17.2335 18 17.222 18C17.2106 18 17.1991 18 17.1877 18C17.1762 18 17.1648 18 17.1534 18C17.1419 18 17.1305 18 17.119 18C17.1076 18 17.0961 18 17.0847 18C17.0732 18 17.0618 18 17.0503 18C17.0389 18 17.0274 18 17.016 18C17.0045 18 16.9931 18 16.9816 18C16.9702 18 16.9587 18 16.9473 18C16.9358 18 16.9243 18 16.9129 18C16.9014 18 16.89 18 16.8785 18C16.8671 18 16.8556 18 16.8441 18C16.8327 18 16.8212 18 16.8098 18C16.7983 18 16.7868 18 16.7754 18C16.7639 18 16.7524 18 16.741 18C16.7295 18 16.718 18 16.7066 18C16.6951 18 16.6836 18 16.6721 18C16.6607 18 16.6492 18 16.6377 18C16.6262 18 16.6148 18 16.6033 18C16.5918 18 16.5803 18 16.5688 18C16.5574 18 16.5459 18 16.5344 18C16.5229 18 16.5114 18 16.4999 18C16.4884 18 16.4769 18 16.4654 18C16.4539 18 16.4424 18 16.4309 18C16.4194 18 16.4079 18 16.3964 18C16.3849 18 16.3734 18 16.3619 18C16.3504 18 16.3389 18 16.3274 18C16.3159 18 16.3043 18 16.2928 18C16.2813 18 16.2698 18 16.2583 18C16.2467 18 16.2352 18 16.2237 18C16.2121 18 16.2006 18 16.1891 18C16.1775 18 16.166 18 16.1545 18C16.1429 18 16.1314 18 16.1198 18C16.1083 18 16.0967 18 16.0852 18C16.0736 18 16.0621 18 16.0505 18C16.0389 18 16.0274 18 16.0158 18C16.0042 18 15.9927 18 15.9811 18C15.9695 18 15.958 18 15.9464 18C15.9348 18 15.9232 18 15.9116 18C15.9 18 15.8884 18 15.8769 18C15.8653 18 15.8537 18 15.8421 18C15.8305 18 15.8189 18 15.8072 18C15.7956 18 15.784 18 15.7724 18C15.7608 18 15.7492 18 15.7375 18C15.7259 18 15.7143 18 15.7027 18C15.691 18 15.6794 18 15.6678 18C15.6561 18 15.6445 18 15.6328 18C15.6212 18 15.6095 18 15.5979 18C15.5862 18 15.5745 18 15.5629 18C15.5512 18 15.5395 18 15.5279 18C15.5162 18 15.5045 18 15.4928 18C15.4811 18 15.4694 18 15.4578 18C15.4461 18 15.4344 18 15.4227 18C15.4109 18 15.3992 18 15.3875 18C15.3758 18 15.3641 18 15.3524 18C15.3407 18 15.3289 18 15.3172 18C15.3055 18 15.2937 18 15.282 18C15.2702 18 15.2585 18 15.2467 18C15.235 18 15.2232 18 15.2115 18C15.1997 18 15.1879 18 15.1761 18C15.1644 18 15.1526 18 15.1408 18C15.129 18 15.1172 18 15.1054 18C15.0936 18 15.0818 18 15.07 18C15.0582 18 15.0464 18 15.0346 18C15.0228 18 15.0109 18 14.9991 18C14.9873 18 14.9754 18 14.9636 18C14.9517 18 14.9399 18 14.928 18C14.9162 18 14.9043 18 14.8925 18C14.8806 18 14.8687 18 14.8568 18C14.845 18 14.8331 18 14.8212 18C14.8093 18 14.7974 18 14.7855 18C14.7736 18 14.7617 18 14.7497 18C14.7378 18 14.7259 18 14.714 18C14.702 18 14.6901 18 14.6782 18C14.6662 18 14.6543 18 14.6423 18C14.6303 18 14.6184 18 14.6064 18C14.5944 18 14.5825 18 14.5705 18C14.5585 18 14.5465 18 14.5345 18C14.5225 18 14.5105 18 14.4985 18C14.4865 18 14.4744 18 14.4624 18C14.4504 18 14.4384 18 14.4263 18C14.4143 18 14.4022 18 14.3902 18C14.3781 18 14.366 18 14.354 18C14.3419 18 14.3298 18 14.3177 18C14.3057 18 14.2936 18 14.2815 18C14.2694 18 14.2572 18 14.2451 18C14.233 18 14.2209 18 14.2088 18C14.1966 18 14.1845 18 14.1723 18C14.1602 18 14.148 18 14.1359 18C14.1237 18 14.1115 18 14.0993 18C14.0872 18 14.075 18 14.0628 18C14.0506 18 14.0384 18 14.0262 18C14.0139 18 14.0017 18 13.9895 18C13.9773 18 13.965 18 13.9528 18C13.9405 18 13.9283 18 13.916 18C13.9038 18 13.8915 18 13.8792 18C13.8669 18 13.8546 18 13.8423 18C13.83 18 13.8177 18 13.8054 18C13.7931 18 13.7808 18 13.7684 18C13.7561 18 13.7438 18 13.7314 18C13.7191 18 13.7067 18 13.6943 18C13.682 18 13.6696 18 13.6572 18C13.6448 18 13.6324 18 13.62 18C13.6076 18 13.5952 18 13.5828 18C13.5703 18 13.5579 18 13.5455 18C13.533 18 13.5206 18 13.5081 18C13.4956 18 13.4832 18 13.4707 18C13.4582 18 13.4457 18 13.4332 18C13.4207 18 13.4082 18 13.3957 18C13.3832 18 13.3706 18 13.3581 18C13.3455 18 13.333 18 13.3204 18C13.3079 18 13.2953 18 13.2827 18C13.2701 18 13.2576 18 13.245 18C13.2324 18 13.2197 18 13.2071 18C13.1945 18 13.1819 18 13.1692 18C13.1566 18 13.1439 18 13.1313 18C13.1186 18 13.1059 18 13.0933 18C13.0806 18 13.0679 18 13.0552 18C13.0425 18 13.0298 18 13.017 18C13.0043 18 12.9916 18 12.9788 18C12.9661 18 12.9533 18 12.9406 18C12.9278 18 12.915 18 12.9022 18C12.8894 18 12.8766 18 12.8638 18C12.851 18 12.8382 18 12.8254 18C12.8125 18 12.7997 18 12.7868 18C12.774 18 12.7611 18 12.7482 18C12.7353 18 12.7224 18 12.7095 18C12.6966 18 12.6837 18 12.6708 18C12.6579 18 12.6449 18 12.632 18C12.6191 18 12.6061 18 12.5931 18C12.5802 18 12.5672 18 12.5542 18C12.5412 18 12.5282 18 12.5152 18C12.5021 18 12.4891 18 12.4761 18C12.463 18 12.45 18 12.4369 18C12.4238 18 12.4108 18 12.3977 18C12.3846 18 12.3715 18 12.3584 18C12.3453 18 12.3321 18 12.319 18C12.3059 18 12.2927 18 12.2795 18C12.2664 18 12.2532 18 12.24 18C12.2268 18 12.2136 18 12.2004 18C12.1872 18 12.174 18 12.1607 18C12.1475 18 12.1343 18 12.121 18C12.1077 18 12.0944 18 12.0812 18C12.0679 18 12.0546 18 12.0413 18C12.0279 18 12.0146 18 12.0013 18C11.9879 18 11.9746 18 11.9612 18C11.9478 18 11.9345 18 11.9211 18C11.9077 18 11.8943 18 11.8809 18C11.8674 18 11.854 18 11.8406 18C11.8271 18 11.8137 18 11.8002 18C11.7867 18 11.7732 18 11.7597 18C11.7462 18 11.7327 18 11.7192 18C11.7057 18 11.6921 18 11.6786 18C11.665 18 11.6514 18 11.6379 18C11.6243 18 11.6107 18 11.5971 18C11.5835 18 11.5698 18 11.5562 18C11.5426 18 11.5289 18 11.5152 18C11.5016 18 11.4879 18 11.4742 18C11.4605 18 11.4468 18 11.4331 18C11.4194 18 11.4056 18 11.3919 18C11.3781 18 11.3644 18 11.3506 18C11.3368 18 11.323 18 11.3092 18C11.2954 18 11.2816 18 11.2677 18C11.2539 18 11.24 18 11.2262 18C11.2123 18 11.1984 18 11.1845 18C11.1706 18 11.1567 18 11.1428 18C11.1289 18 11.1149 18 11.101 18C11.087 18 11.0731 18 11.0591 18C11.0451 18 11.0311 18 11.0171 18C11.0031 18 10.989 18 10.975 18C10.9609 18 10.9469 18 10.9328 18C10.9187 18 10.9046 18 10.8905 18C10.8764 18 10.8623 18 10.8482 18C10.834 18 10.8199 18 10.8057 18C10.7915 18 10.7773 18 10.7631 18C10.7489 18 10.7347 18 10.7205 18C10.7063 18 10.692 18 10.6777 18C10.6635 18 10.6492 18 10.6349 18C10.6206 18 10.6063 18 10.592 18C10.5776 18 10.5633 18 10.5489 18C10.5346 18 10.5202 18 10.5058 18C10.4914 18 10.477 18 10.4626 18C10.4482 18 10.4337 18 10.4193 18C10.4048 18 10.3903 18 10.3759 18C10.3614 18 10.3469 18 10.3323 18C10.3178 18 10.3033 18 10.2887 18C10.2742 18 10.2596 18 10.245 18C10.2304 18 10.2158 18 10.2012 18C10.1866 18 10.1719 18 10.1573 18C10.1426 18 10.1279 18 10.1132 18C10.0985 18 10.0838 18 10.0691 18C10.0544 18 10.0396 18 10.0249 18C10.0101 18 9.99536 18 9.98056 18C9.96577 18 9.95096 18 9.93613 18C9.9213 18 9.90646 18 9.89159 18C9.87673 18 9.86185 18 9.84695 18C9.83206 18 9.81714 18 9.80221 18C9.78727 18 9.77232 18 9.75736 18C9.74239 18 9.7274 18 9.7124 18C9.69739 18 9.68237 18 9.66733 18C9.65229 18 9.63723 18 9.62216 18C9.60708 18 9.59199 18 9.57688 18C9.56177 18 9.54664 18 9.53149 18C9.51634 18 9.50118 18 9.48599 18C9.47081 18 9.45561 18 9.44038 18C9.42516 18 9.40993 18 9.39467 18C9.37941 18 9.36413 18 9.34884 18C9.33355 18 9.31823 18 9.3029 18C9.28757 18 9.27222 18 9.25685 18C9.24148 18 9.22609 18 9.21069 18C9.19528 18 9.17986 18 9.16441 18C9.14897 18 9.1335 18 9.11802 18C9.10254 18 9.08704 18 9.07152 18C9.056 18 9.04046 18 9.0249 18C9.00934 18 8.99377 18 8.97817 18C8.96257 18 8.94696 18 8.93132 18C8.91569 18 8.90003 18 8.88436 18C8.86869 18 8.85299 18 8.83728 18C8.82157 18 8.80583 18 8.79008 18C8.77433 18 8.75856 18 8.74277 18C8.72698 18 8.71117 18 8.69534 18C8.67951 18 8.66366 18 8.64779 18C8.63192 18 8.61602 18 8.60012 18C8.58421 18 8.56828 18 8.55233 18C8.53638 18 8.52041 18 8.50442 18C8.48843 18 8.47241 18 8.45638 18C8.44035 18 8.4243 18 8.40823 18C8.39216 18 8.37607 18 8.35996 18C8.34385 18 8.32771 18 8.31156 18C8.29541 18 8.27924 18 8.26304 18C8.24685 18 8.23064 18 8.2144 18C8.19817 18 8.18191 18 8.16563 18C8.14936 18 8.13306 18 8.11674 18C8.10043 18 8.08409 18 8.06773 18C8.05137 18 8.03499 18 8.01859 18C8.00218 18 7.98576 18 7.96932 18C7.95287 18 7.93641 18 7.91992 18C7.90344 18 7.88693 18 7.8704 18C7.85387 18 7.83732 18 7.82075 18C7.80418 18 7.78759 18 7.77098 18C7.75436 18 7.73773 18 7.72107 18C7.70441 18 7.68773 18 7.67103 18C7.65433 18 7.63761 18 7.62087 18C7.60413 18 7.58736 18 7.57057 18C7.55379 18 7.53698 18 7.52015 18C7.50332 18 7.48646 18 7.46959 18C7.45271 18 7.43582 18 7.4189 18V20C7.43582 20 7.45271 20 7.46959 20C7.48646 20 7.50332 20 7.52015 20C7.53698 20 7.55379 20 7.57057 20C7.58736 20 7.60413 20 7.62087 20C7.63761 20 7.65433 20 7.67103 20C7.68773 20 7.70441 20 7.72107 20C7.73773 20 7.75436 20 7.77098 20C7.78759 20 7.80418 20 7.82075 20C7.83732 20 7.85387 20 7.8704 20C7.88693 20 7.90344 20 7.91992 20C7.93641 20 7.95287 20 7.96932 20C7.98576 20 8.00218 20 8.01859 20C8.03499 20 8.05137 20 8.06773 20C8.08409 20 8.10043 20 8.11674 20C8.13306 20 8.14936 20 8.16563 20C8.18191 20 8.19817 20 8.2144 20C8.23064 20 8.24685 20 8.26304 20C8.27924 20 8.29541 20 8.31156 20C8.32771 20 8.34385 20 8.35996 20C8.37607 20 8.39216 20 8.40823 20C8.4243 20 8.44035 20 8.45638 20C8.47241 20 8.48843 20 8.50442 20C8.52041 20 8.53638 20 8.55233 20C8.56828 20 8.58421 20 8.60012 20C8.61602 20 8.63192 20 8.64779 20C8.66366 20 8.67951 20 8.69534 20C8.71117 20 8.72698 20 8.74277 20C8.75856 20 8.77433 20 8.79008 20C8.80583 20 8.82157 20 8.83728 20C8.85299 20 8.86869 20 8.88436 20C8.90003 20 8.91569 20 8.93132 20C8.94696 20 8.96257 20 8.97817 20C8.99377 20 9.00934 20 9.0249 20C9.04046 20 9.056 20 9.07152 20C9.08704 20 9.10254 20 9.11802 20C9.1335 20 9.14897 20 9.16441 20C9.17986 20 9.19528 20 9.21069 20C9.22609 20 9.24148 20 9.25685 20C9.27222 20 9.28757 20 9.3029 20C9.31823 20 9.33355 20 9.34884 20C9.36413 20 9.37941 20 9.39467 20C9.40993 20 9.42516 20 9.44038 20C9.45561 20 9.47081 20 9.48599 20C9.50118 20 9.51634 20 9.53149 20C9.54664 20 9.56177 20 9.57688 20C9.59199 20 9.60708 20 9.62216 20C9.63723 20 9.65229 20 9.66733 20C9.68237 20 9.69739 20 9.7124 20C9.7274 20 9.74239 20 9.75736 20C9.77232 20 9.78727 20 9.80221 20C9.81714 20 9.83206 20 9.84695 20C9.86185 20 9.87673 20 9.89159 20C9.90646 20 9.9213 20 9.93613 20C9.95096 20 9.96577 20 9.98056 20C9.99536 20 10.0101 20 10.0249 20C10.0396 20 10.0544 20 10.0691 20C10.0838 20 10.0985 20 10.1132 20C10.1279 20 10.1426 20 10.1573 20C10.1719 20 10.1866 20 10.2012 20C10.2158 20 10.2304 20 10.245 20C10.2596 20 10.2742 20 10.2887 20C10.3033 20 10.3178 20 10.3323 20C10.3469 20 10.3614 20 10.3759 20C10.3903 20 10.4048 20 10.4193 20C10.4337 20 10.4482 20 10.4626 20C10.477 20 10.4914 20 10.5058 20C10.5202 20 10.5346 20 10.5489 20C10.5633 20 10.5776 20 10.592 20C10.6063 20 10.6206 20 10.6349 20C10.6492 20 10.6635 20 10.6777 20C10.692 20 10.7063 20 10.7205 20C10.7347 20 10.7489 20 10.7631 20C10.7773 20 10.7915 20 10.8057 20C10.8199 20 10.834 20 10.8482 20C10.8623 20 10.8764 20 10.8905 20C10.9046 20 10.9187 20 10.9328 20C10.9469 20 10.9609 20 10.975 20C10.989 20 11.0031 20 11.0171 20C11.0311 20 11.0451 20 11.0591 20C11.0731 20 11.087 20 11.101 20C11.1149 20 11.1289 20 11.1428 20C11.1567 20 11.1706 20 11.1845 20C11.1984 20 11.2123 20 11.2262 20C11.24 20 11.2539 20 11.2677 20C11.2816 20 11.2954 20 11.3092 20C11.323 20 11.3368 20 11.3506 20C11.3644 20 11.3781 20 11.3919 20C11.4056 20 11.4194 20 11.4331 20C11.4468 20 11.4605 20 11.4742 20C11.4879 20 11.5016 20 11.5152 20C11.5289 20 11.5426 20 11.5562 20C11.5698 20 11.5835 20 11.5971 20C11.6107 20 11.6243 20 11.6379 20C11.6514 20 11.665 20 11.6786 20C11.6921 20 11.7057 20 11.7192 20C11.7327 20 11.7462 20 11.7597 20C11.7732 20 11.7867 20 11.8002 20C11.8137 20 11.8271 20 11.8406 20C11.854 20 11.8674 20 11.8809 20C11.8943 20 11.9077 20 11.9211 20C11.9345 20 11.9478 20 11.9612 20C11.9746 20 11.9879 20 12.0013 20C12.0146 20 12.0279 20 12.0413 20C12.0546 20 12.0679 20 12.0812 20C12.0944 20 12.1077 20 12.121 20C12.1343 20 12.1475 20 12.1607 20C12.174 20 12.1872 20 12.2004 20C12.2136 20 12.2268 20 12.24 20C12.2532 20 12.2664 20 12.2795 20C12.2927 20 12.3059 20 12.319 20C12.3321 20 12.3453 20 12.3584 20C12.3715 20 12.3846 20 12.3977 20C12.4108 20 12.4238 20 12.4369 20C12.45 20 12.463 20 12.4761 20C12.4891 20 12.5021 20 12.5152 20C12.5282 20 12.5412 20 12.5542 20C12.5672 20 12.5802 20 12.5931 20C12.6061 20 12.6191 20 12.632 20C12.6449 20 12.6579 20 12.6708 20C12.6837 20 12.6966 20 12.7095 20C12.7224 20 12.7353 20 12.7482 20C12.7611 20 12.774 20 12.7868 20C12.7997 20 12.8125 20 12.8254 20C12.8382 20 12.851 20 12.8638 20C12.8766 20 12.8894 20 12.9022 20C12.915 20 12.9278 20 12.9406 20C12.9533 20 12.9661 20 12.9788 20C12.9916 20 13.0043 20 13.017 20C13.0298 20 13.0425 20 13.0552 20C13.0679 20 13.0806 20 13.0933 20C13.1059 20 13.1186 20 13.1313 20C13.1439 20 13.1566 20 13.1692 20C13.1819 20 13.1945 20 13.2071 20C13.2197 20 13.2324 20 13.245 20C13.2576 20 13.2701 20 13.2827 20C13.2953 20 13.3079 20 13.3204 20C13.333 20 13.3455 20 13.3581 20C13.3706 20 13.3832 20 13.3957 20C13.4082 20 13.4207 20 13.4332 20C13.4457 20 13.4582 20 13.4707 20C13.4832 20 13.4956 20 13.5081 20C13.5206 20 13.533 20 13.5455 20C13.5579 20 13.5703 20 13.5828 20C13.5952 20 13.6076 20 13.62 20C13.6324 20 13.6448 20 13.6572 20C13.6696 20 13.682 20 13.6943 20C13.7067 20 13.7191 20 13.7314 20C13.7438 20 13.7561 20 13.7684 20C13.7808 20 13.7931 20 13.8054 20C13.8177 20 13.83 20 13.8423 20C13.8546 20 13.8669 20 13.8792 20C13.8915 20 13.9038 20 13.916 20C13.9283 20 13.9405 20 13.9528 20C13.965 20 13.9773 20 13.9895 20C14.0017 20 14.0139 20 14.0262 20C14.0384 20 14.0506 20 14.0628 20C14.075 20 14.0872 20 14.0993 20C14.1115 20 14.1237 20 14.1359 20C14.148 20 14.1602 20 14.1723 20C14.1845 20 14.1966 20 14.2088 20C14.2209 20 14.233 20 14.2451 20C14.2572 20 14.2694 20 14.2815 20C14.2936 20 14.3057 20 14.3177 20C14.3298 20 14.3419 20 14.354 20C14.366 20 14.3781 20 14.3902 20C14.4022 20 14.4143 20 14.4263 20C14.4384 20 14.4504 20 14.4624 20C14.4744 20 14.4865 20 14.4985 20C14.5105 20 14.5225 20 14.5345 20C14.5465 20 14.5585 20 14.5705 20C14.5825 20 14.5944 20 14.6064 20C14.6184 20 14.6303 20 14.6423 20C14.6543 20 14.6662 20 14.6782 20C14.6901 20 14.702 20 14.714 20C14.7259 20 14.7378 20 14.7497 20C14.7617 20 14.7736 20 14.7855 20C14.7974 20 14.8093 20 14.8212 20C14.8331 20 14.845 20 14.8568 20C14.8687 20 14.8806 20 14.8925 20C14.9043 20 14.9162 20 14.928 20C14.9399 20 14.9517 20 14.9636 20C14.9754 20 14.9873 20 14.9991 20C15.0109 20 15.0228 20 15.0346 20C15.0464 20 15.0582 20 15.07 20C15.0818 20 15.0936 20 15.1054 20C15.1172 20 15.129 20 15.1408 20C15.1526 20 15.1644 20 15.1761 20C15.1879 20 15.1997 20 15.2115 20C15.2232 20 15.235 20 15.2467 20C15.2585 20 15.2702 20 15.282 20C15.2937 20 15.3055 20 15.3172 20C15.3289 20 15.3407 20 15.3524 20C15.3641 20 15.3758 20 15.3875 20C15.3992 20 15.4109 20 15.4227 20C15.4344 20 15.4461 20 15.4578 20C15.4694 20 15.4811 20 15.4928 20C15.5045 20 15.5162 20 15.5279 20C15.5395 20 15.5512 20 15.5629 20C15.5745 20 15.5862 20 15.5979 20C15.6095 20 15.6212 20 15.6328 20C15.6445 20 15.6561 20 15.6678 20C15.6794 20 15.691 20 15.7027 20C15.7143 20 15.7259 20 15.7375 20C15.7492 20 15.7608 20 15.7724 20C15.784 20 15.7956 20 15.8072 20C15.8189 20 15.8305 20 15.8421 20C15.8537 20 15.8653 20 15.8769 20C15.8884 20 15.9 20 15.9116 20C15.9232 20 15.9348 20 15.9464 20C15.958 20 15.9695 20 15.9811 20C15.9927 20 16.0042 20 16.0158 20C16.0274 20 16.0389 20 16.0505 20C16.0621 20 16.0736 20 16.0852 20C16.0967 20 16.1083 20 16.1198 20C16.1314 20 16.1429 20 16.1545 20C16.166 20 16.1775 20 16.1891 20C16.2006 20 16.2121 20 16.2237 20C16.2352 20 16.2467 20 16.2583 20C16.2698 20 16.2813 20 16.2928 20C16.3043 20 16.3159 20 16.3274 20C16.3389 20 16.3504 20 16.3619 20C16.3734 20 16.3849 20 16.3964 20C16.4079 20 16.4194 20 16.4309 20C16.4424 20 16.4539 20 16.4654 20C16.4769 20 16.4884 20 16.4999 20C16.5114 20 16.5229 20 16.5344 20C16.5459 20 16.5574 20 16.5688 20C16.5803 20 16.5918 20 16.6033 20C16.6148 20 16.6262 20 16.6377 20C16.6492 20 16.6607 20 16.6721 20C16.6836 20 16.6951 20 16.7066 20C16.718 20 16.7295 20 16.741 20C16.7524 20 16.7639 20 16.7754 20C16.7868 20 16.7983 20 16.8098 20C16.8212 20 16.8327 20 16.8441 20C16.8556 20 16.8671 20 16.8785 20C16.89 20 16.9014 20 16.9129 20C16.9243 20 16.9358 20 16.9473 20C16.9587 20 16.9702 20 16.9816 20C16.9931 20 17.0045 20 17.016 20C17.0274 20 17.0389 20 17.0503 20C17.0618 20 17.0732 20 17.0847 20C17.0961 20 17.1076 20 17.119 20C17.1305 20 17.1419 20 17.1534 20C17.1648 20 17.1762 20 17.1877 20C17.1991 20 17.2106 20 17.222 20C17.2335 20 17.2449 20 17.2564 20C17.2678 20 17.2793 20 17.2907 20C17.3021 20 17.3136 20 17.325 20C17.3365 20 17.3479 20 17.3594 20C17.3708 20 17.3823 20 17.3937 20C17.4052 20 17.4166 20 17.428 20C17.4395 20 17.4509 20 17.4624 20C17.4738 20 17.4853 20 17.4967 20C17.5082 20 17.5196 20 17.5311 20C17.5425 20 17.554 20 17.5654 20C17.5769 20 17.5883 20 17.5998 20C17.6112 20 17.6227 20 17.6342 20C17.6456 20 17.6571 20 17.6685 20C17.68 20 17.6914 20 17.7029 20C17.7144 20 17.7258 20 17.7373 20C17.7487 20 17.7602 20 17.7717 20C17.7831 20 17.7946 20 17.8061 20C17.8175 20 17.829 20 17.8405 20C17.8519 20 17.8634 20 17.8749 20C17.8863 20 17.8978 20 17.9093 20C17.9208 20 17.9322 20 17.9437 20C17.9552 20 17.9667 20 17.9782 20C17.9896 20 18.0011 20 18.0126 20C18.0241 20 18.0356 20 18.0471 20C18.0586 20 18.07 20 18.0815 20C18.093 20 18.1045 20 18.116 20C18.1275 20 18.139 20 18.1505 20C18.162 20 18.1735 20 18.185 20C18.1965 20 18.208 20 18.2196 20C18.2311 20 18.2426 20 18.2541 20C18.2656 20 18.2771 20 18.2887 20C18.3002 20 18.3117 20 18.3232 20C18.3348 20 18.3463 20 18.3578 20C18.3693 20 18.3809 20 18.3924 20C18.404 20 18.4155 20 18.427 20C18.4386 20 18.4501 20 18.4617 20C18.4732 20 18.4848 20 18.4963 20C18.5079 20 18.5195 20 18.531 20C18.5426 20 18.5541 20 18.5657 20C18.5773 20 18.5889 20 18.6004 20C18.612 20 18.6236 20 18.6352 20C18.6467 20 18.6583 20 18.6699 20C18.6815 20 18.6931 20 18.7047 20C18.7163 20 18.7279 20 18.7395 20C18.7511 20 18.7627 20 18.7743 20C18.7859 20 18.7975 20 18.8092 20C18.8208 20 18.8324 20 18.844 20C18.8557 20 18.8673 20 18.8789 20C18.8906 20 18.9022 20 18.9138 20C18.9255 20 18.9371 20 18.9488 20C18.9604 20 18.9721 20 18.9838 20C18.9954 20 19.0071 20 19.0188 20C19.0304 20 19.0421 20 19.0538 20C19.0655 20 19.0771 20 19.0888 20C19.1005 20 19.1122 20 19.1239 20C19.1356 20 19.1473 20 19.159 20C19.1707 20 19.1824 20 19.1941 20C19.2059 20 19.2176 20 19.2293 20C19.241 20 19.2528 20 19.2645 20C19.2762 20 19.288 20 19.2997 20C19.3115 20 19.3232 20 19.335 20C19.3467 20 19.3585 20 19.3703 20C19.382 20 19.3938 20 19.4056 20C19.4174 20 19.4292 20 19.4409 20C19.4527 20 19.4645 20 19.4763 20C19.4881 20 19.4999 20 19.5118 20C19.5236 20 19.5354 20 19.5472 20C19.559 20 19.5709 20 19.5827 20C19.5945 20 19.6064 20 19.6182 20C19.6301 20 19.6419 20 19.6538 20C19.6656 20 19.6775 20 19.6894 20C19.7013 20 19.7131 20 19.725 20C19.7369 20 19.7488 20 19.7607 20C19.7726 20 19.7845 20 19.7964 20C19.8083 20 19.8202 20 19.8321 20C19.8441 20 19.856 20 19.8679 20C19.8799 20 19.8918 20 19.9038 20C19.9157 20 19.9277 20 19.9396 20C19.9516 20 19.9636 20 19.9755 20C19.9875 20 19.9995 20 20.0115 20C20.0235 20 20.0355 20 20.0475 20C20.0595 20 20.0715 20 20.0835 20C20.0955 20 20.1075 20 20.1196 20C20.1316 20 20.1437 20 20.1557 20C20.1677 20 20.1798 20 20.1919 20C20.2039 20 20.216 20 20.2281 20C20.2401 20 20.2522 20 20.2643 20C20.2764 20 20.2885 20 20.3006 20C20.3127 20 20.3248 20 20.337 20C20.3491 20 20.3612 20 20.3734 20C20.3855 20 20.3976 20 20.4098 20C20.4219 20 20.4341 20 20.4463 20C20.4584 20 20.4706 20 20.4828 20C20.495 20 20.5072 20 20.5194 20C20.5316 20 20.5438 20 20.556 20C20.5682 20 20.5805 20 20.5927 20C20.6049 20 20.6172 20 20.6294 20C20.6417 20 20.654 20 20.6662 20C20.6785 20 20.6908 20 20.7031 20C20.7153 20 20.7276 20 20.7399 20C20.7522 20 20.7646 20 20.7769 20C20.7892 20 20.8015 20 20.8139 20C20.8262 20 20.8386 20 20.8509 20C20.8633 20 20.8756 20 20.888 20C20.9004 20 20.9128 20 20.9252 20C20.9376 20 20.95 20 20.9624 20C20.9748 20 20.9872 20 20.9997 20C21.0121 20 21.0245 20 21.037 20C21.0494 20 21.0619 20 21.0744 20C21.0868 20 21.0993 20 21.1118 20C21.1243 20 21.1368 20 21.1493 20C21.1618 20 21.1743 20 21.1868 20C21.1994 20 21.2119 20 21.2244 20C21.237 20 21.2495 20 21.2621 20C21.2747 20 21.2873 20 21.2998 20C21.3124 20 21.325 20 21.3376 20C21.3502 20 21.3629 20 21.3755 20C21.3881 20 21.4007 20 21.4134 20C21.426 20 21.4387 20 21.4514 20C21.464 20 21.4767 20 21.4894 20C21.5021 20 21.5148 20 21.5275 20C21.5402 20 21.5529 20 21.5657 20C21.5784 20 21.5912 20 21.6039 20C21.6167 20 21.6294 20 21.6422 20C21.655 20 21.6678 20 21.6806 20C21.6934 20 21.7062 20 21.719 20C21.7318 20 21.7446 20 21.7575 20C21.7703 20 21.7832 20 21.796 20C21.8089 20 21.8218 20 21.8347 20C21.8475 20 21.8604 20 21.8734 20C21.8863 20 21.8992 20 21.9121 20C21.925 20 21.938 20 21.9509 20C21.9639 20 21.9769 20 21.9898 20C22.0028 20 22.0158 20 22.0288 20C22.0418 20 22.0548 20 22.0679 20C22.0809 20 22.0939 20 22.107 20C22.12 20 22.1331 20 22.1462 20C22.1592 20 22.1723 20 22.1854 20C22.1985 20 22.2116 20 22.2247 20C22.2379 20 22.251 20 22.2641 20C22.2773 20 22.2905 20 22.3036 20C22.3168 20 22.33 20 22.3432 20C22.3564 20 22.3696 20 22.3828 20C22.396 20 22.4093 20 22.4225 20C22.4357 20 22.449 20 22.4623 20C22.4756 20 22.4888 20 22.5021 20C22.5154 20 22.5287 20 22.5421 20C22.5554 20 22.5687 20 22.5821 20C22.5954 20 22.6088 20 22.6222 20C22.6355 20 22.6489 20 22.6623 20C22.6757 20 22.6891 20 22.7026 20C22.716 20 22.7294 20 22.7429 20C22.7564 20 22.7698 20 22.7833 20C22.7968 20 22.8103 20 22.8238 20C22.8373 20 22.8508 20 22.8644 20C22.8779 20 22.8914 20 22.905 20C22.9186 20 22.9321 20 22.9457 20C22.9593 20 22.9729 20 22.9866 20C23.0002 20 23.0138 20 23.0275 20C23.0411 20 23.0548 20 23.0684 20C23.0821 20 23.0958 20 23.1095 20C23.1232 20 23.1369 20 23.1507 20C23.1644 20 23.1781 20 23.1919 20C23.2057 20 23.2194 20 23.2332 20C23.247 20 23.2608 20 23.2746 20C23.2884 20 23.3023 20 23.3161 20C23.33 20 23.3438 20 23.3577 20C23.3716 20 23.3855 20 23.3994 20C23.4133 20 23.4272 20 23.4411 20C23.4551 20 23.469 20 23.483 20C23.497 20 23.5109 20 23.5249 20C23.5389 20 23.5529 20 23.567 20C23.581 20 23.595 20 23.6091 20C23.6232 20 23.6372 20 23.6513 20C23.6654 20 23.6795 20 23.6936 20C23.7077 20 23.7219 20 23.736 20C23.7502 20 23.7643 20 23.7785 20C23.7927 20 23.8069 20 23.8211 20C23.8353 20 23.8495 20 23.8638 20C23.878 20 23.8923 20 23.9066 20C23.9208 20 23.9351 20 23.9494 20C23.9637 20 23.9781 20 23.9924 20C24.0067 20 24.0211 20 24.0355 20C24.0498 20 24.0642 20 24.0786 20C24.093 20 24.1074 20 24.1219 20C24.1363 20 24.1508 20 24.1652 20C24.1797 20 24.1942 20 24.2087 20C24.2232 20 24.2377 20 24.2522 20C24.2668 20 24.2813 20 24.2959 20C24.3104 20 24.325 20 24.3396 20C24.3542 20 24.3689 20 24.3835 20C24.3981 20 24.4128 20 24.4274 20C24.4421 20 24.4568 20 24.4715 20C24.4862 20 24.5009 20 24.5157 20C24.5304 20 24.5451 20 24.5599 20C24.5747 20 24.5895 20 24.6043 20C24.6191 20 24.6339 20 24.6487 20C24.6636 20 24.6784 20 24.6933 20C24.7082 20 24.7231 20 24.738 20C24.7529 20 24.7678 20 24.7828 20C24.7977 20 24.8127 20 24.8277 20C24.8426 20 24.8576 20 24.8727 20C24.8877 20 24.9027 20 24.9178 20C24.9328 20 24.9479 20 24.963 20C24.9781 20 24.9932 20 25.0083 20C25.0234 20 25.0386 20 25.0537 20C25.0689 20 25.0841 20 25.0992 20C25.1144 20 25.1297 20 25.1449 20C25.1601 20 25.1754 20 25.1906 20C25.2059 20 25.2212 20 25.2365 20C25.2518 20 25.2671 20 25.2825 20C25.2978 20 25.3132 20 25.3286 20C25.344 20 25.3594 20 25.3748 20C25.3902 20 25.4056 20 25.4211 20C25.4366 20 25.452 20 25.4675 20C25.483 20 25.4985 20 25.5141 20C25.5296 20 25.5452 20 25.5607 20C25.5763 20 25.5919 20 25.6075 20C25.6231 20 25.6387 20 25.6544 20C25.67 20 25.6857 20 25.7014 20C25.7171 20 25.7328 20 25.7485 20C25.7642 20 25.78 20 25.7957 20C25.8115 20 25.8273 20 25.8431 20C25.8589 20 25.8747 20 25.8906 20C25.9064 20 25.9223 20 25.9382 20C25.954 20 25.9699 20 25.9859 20C26.0018 20 26.0177 20 26.0337 20C26.0497 20 26.0657 20 26.0817 20C26.0977 20 26.1137 20 26.1297 20C26.1458 20 26.1618 20 26.1779 20C26.194 20 26.2101 20 26.2262 20C26.2424 20 26.2585 20 26.2747 20C26.2908 20 26.307 20 26.3232 20C26.3394 20 26.3557 20 26.3719 20C26.3882 20 26.4044 20 26.4207 20C26.437 20 26.4533 20 26.4697 20C26.486 20 26.5023 20 26.5187 20C26.5351 20 26.5515 20 26.5679 20C26.5843 20 26.6008 20 26.6172 20C26.6337 20 26.6502 20 26.6667 20C26.6832 20 26.6997 20 26.7162 20C26.7328 20 26.7493 20 26.7659 20C26.7825 20 26.7991 20 26.8157 20C26.8324 20 26.849 20 26.8657 20C26.8824 20 26.8991 20 26.9158 20C26.9325 20 26.9492 20 26.966 20C26.9827 20 26.9995 20 27.0163 20C27.0331 20 27.0499 20 27.0668 20C27.0836 20 27.1005 20 27.1174 20C27.1343 20 27.1512 20 27.1681 20C27.1851 20 27.202 20 27.219 20C27.236 20 27.253 20 27.27 20C27.287 20 27.3041 20 27.3211 20C27.3382 20 27.3553 20 27.3724 20C27.3895 20 27.4066 20 27.4238 20C27.441 20 27.4581 20 27.4753 20C27.4925 20 27.5098 20 27.527 20C27.5443 20 27.5615 20 27.5788 20C27.5961 20 27.6134 20 27.6308 20C27.6481 20 27.6655 20 27.6829 20C27.7003 20 27.7177 20 27.7351 20C27.7525 20 27.77 20 27.7875 20C27.8049 20 27.8224 20 27.84 20C27.8575 20 27.875 20 27.8926 20C27.9102 20 27.9278 20 27.9454 20C27.963 20 27.9806 20 27.9983 20V18ZM7.41421 20C7.4115 20.0027 7.41088 20.0023 7.4134 20.0013C7.41601 20.0002 7.41828 20 7.4189 20V18C6.89342 18 6.37854 18.2072 6 18.5858L7.41421 20ZM28 18C28 18.0011 27.9999 18.0011 28 18.0004C28.0002 17.9998 28.0004 17.9991 28.0006 17.9987C28.0009 17.9978 28.0009 17.9982 28 17.9992C27.999 18.0001 27.9984 18.0004 27.9987 18.0002C27.9989 18.0001 27.9993 18 27.9996 18C27.9999 17.9999 27.9996 18 27.9983 18V20C29.1007 20 30 19.1068 30 18H28ZM28 2H30C30 0.895431 29.1046 0 28 0V2ZM2 22.5858L2 22.5858H0C0 24.3676 2.15429 25.2599 3.41421 24L2 22.5858ZM2 0C0.89543 0 0 0.895432 0 2H2V2V0Z" fill="#0F1937"/>
<circle cx="8" cy="10" r="2" fill="#0F1937"/>
<circle cx="15" cy="10" r="2" fill="#0F1937"/>
<circle cx="22" cy="10" r="2" fill="#0F1937"/>
</svg>
